Graphik-Regular.ufo
<glyph name="exclam" format="2">
  <advance width="286"/>
  <unicode hex="0021"/>
  <outline>
    <contour>
      <point x="143" y="-5" type="curve" smooth="yes"/>
      <point x="108" y="-5"/>
      <point x="79" y="23"/>
      <point x="79" y="59" type="curve" smooth="yes"/>
      <point x="79" y="95"/>
      <point x="108" y="123"/>
      <point x="143" y="123" type="curve" smooth="yes"/>
      <point x="178" y="123"/>
      <point x="207" y="95"/>
      <point x="207" y="59" type="curve" smooth="yes"/>
      <point x="207" y="23"/>
      <point x="178" y="-5"/>
    </contour>
    <contour>
      <point x="112" y="202" type="line"/>
      <point x="98" y="715" type="line"/>
      <point x="190" y="715" type="line"/>
      <point x="176" y="202" type="line"/>
    </contour>
  </outline>
</glyph>
<glyph name="quotedbl" format="2">
  <advance width="375"/>
  <unicode hex="0022"/>
  <outline>
    <contour>
      <point x="76" y="470" type="line"/>
      <point x="61" y="715" type="line"/>
      <point x="151" y="715" type="line"/>
      <point x="136" y="470" type="line"/>
    </contour>
    <contour>
      <point x="239" y="470" type="line"/>
      <point x="224" y="715" type="line"/>
      <point x="314" y="715" type="line"/>
      <point x="299" y="470" type="line"/>
    </contour>
  </outline>
</glyph>
<glyph name="numbersign" format="2">
  <advance width="503"/>
  <unicode hex="0023"/>
  <outline>
    <contour>
      <point x="252" y="99" type="line"/>
      <point x="278" y="282" type="line"/>
      <point x="181" y="282" type="line"/>
      <point x="155" y="99" type="line"/>
      <point x="87" y="99" type="line"/>
      <point x="113" y="282" type="line"/>
      <point x="30" y="282" type="line"/>
      <point x="30" y="352" type="line"/>
      <point x="124" y="352" type="line"/>
      <point x="143" y="484" type="line"/>
      <point x="58" y="484" type="line"/>
      <point x="58" y="554" type="line"/>
      <point x="153" y="554" type="line"/>
      <point x="177" y="715" type="line"/>
      <point x="245" y="715" type="line"/>
      <point x="221" y="554" type="line"/>
      <point x="318" y="554" type="line"/>
      <point x="342" y="715" type="line"/>
      <point x="410" y="715" type="line"/>
      <point x="386" y="554" type="line"/>
      <point x="473" y="554" type="line"/>
      <point x="473" y="484" type="line"/>
      <point x="376" y="484" type="line"/>
      <point x="357" y="352" type="line"/>
      <point x="445" y="352" type="line"/>
      <point x="445" y="282" type="line"/>
      <point x="346" y="282" type="line"/>
      <point x="320" y="99" type="line"/>
    </contour>
    <contour>
      <point x="211" y="484" type="line"/>
      <point x="192" y="352" type="line"/>
      <point x="289" y="352" type="line"/>
      <point x="308" y="484" type="line"/>
    </contour>
  </outline>
</glyph>
<glyph name="dollar" format="2">
  <advance width="627"/>
  <unicode hex="0024"/>
  <outline>
    <contour>
      <point x="285" y="-135" type="line"/>
      <point x="285" y="-8" type="line"/>
      <point x="114" y="4"/>
      <point x="57" y="103"/>
      <point x="45" y="218" type="curve"/>
      <point x="129" y="218" type="line"/>
      <point x="139" y="140"/>
      <point x="163" y="71"/>
      <point x="285" y="60" type="curve"/>
      <point x="285" y="338" type="line"/>
      <point x="153" y="363"/>
      <point x="74" y="410"/>
      <point x="74" y="530" type="curve" smooth="yes"/>
      <point x="74" y="634"/>
      <point x="160" y="715"/>
      <point x="285" y="723" type="curve"/>
      <point x="285" y="813" type="line"/>
      <point x="344" y="813" type="line"/>
      <point x="344" y="722" type="line"/>
      <point x="464" y="711"/>
      <point x="539" y="643"/>
      <point x="552" y="527" type="curve"/>
      <point x="474" y="527" type="line"/>
      <point x="459" y="604"/>
      <point x="418" y="644"/>
      <point x="344" y="654" type="curve"/>
      <point x="344" y="404" type="line"/>
      <point x="491" y="378"/>
      <point x="567" y="331"/>
      <point x="567" y="202" type="curve" smooth="yes"/>
      <point x="567" y="88"/>
      <point x="474" y="0"/>
      <point x="344" y="-8" type="curve"/>
      <point x="344" y="-135" type="line"/>
    </contour>
    <contour>
      <point x="484" y="196" type="curve" smooth="yes"/>
      <point x="484" y="270"/>
      <point x="453" y="305"/>
      <point x="344" y="328" type="curve"/>
      <point x="344" y="60" type="line"/>
      <point x="424" y="68"/>
      <point x="484" y="122"/>
    </contour>
    <contour>
      <point x="153" y="538" type="curve" smooth="yes"/>
      <point x="153" y="475"/>
      <point x="174" y="437"/>
      <point x="285" y="414" type="curve"/>
      <point x="285" y="655" type="line"/>
      <point x="201" y="648"/>
      <point x="153" y="600"/>
    </contour>
  </outline>
</glyph>
<glyph name="percent" format="2">
  <advance width="784"/>
  <unicode hex="0025"/>
  <outline>
    <contour>
      <point x="198" y="448" type="curve" smooth="yes"/>
      <point x="252" y="448"/>
      <point x="286" y="485"/>
      <point x="286" y="552" type="curve" smooth="yes"/>
      <point x="286" y="616"/>
      <point x="252" y="656"/>
      <point x="198" y="656" type="curve" smooth="yes"/>
      <point x="145" y="656"/>
      <point x="110" y="619"/>
      <point x="110" y="551" type="curve" smooth="yes"/>
      <point x="110" y="483"/>
      <point x="145" y="448"/>
    </contour>
    <contour>
      <point x="198" y="383" type="curve" smooth="yes"/>
      <point x="113" y="383"/>
      <point x="34" y="453"/>
      <point x="34" y="550" type="curve" smooth="yes"/>
      <point x="34" y="649"/>
      <point x="111" y="721"/>
      <point x="198" y="721" type="curve" smooth="yes"/>
      <point x="287" y="721"/>
      <point x="362" y="649"/>
      <point x="362" y="552" type="curve" smooth="yes"/>
      <point x="362" y="453"/>
      <point x="284" y="383"/>
    </contour>
    <contour>
      <point x="135" y="0" type="line"/>
      <point x="572" y="715" type="line"/>
      <point x="648" y="715" type="line"/>
      <point x="211" y="0" type="line"/>
    </contour>
    <contour>
      <point x="586" y="57" type="curve" smooth="yes"/>
      <point x="640" y="57"/>
      <point x="674" y="94"/>
      <point x="674" y="161" type="curve" smooth="yes"/>
      <point x="674" y="225"/>
      <point x="640" y="265"/>
      <point x="586" y="265" type="curve" smooth="yes"/>
      <point x="533" y="265"/>
      <point x="498" y="228"/>
      <point x="498" y="160" type="curve" smooth="yes"/>
      <point x="498" y="92"/>
      <point x="533" y="57"/>
    </contour>
    <contour>
      <point x="586" y="-8" type="curve" smooth="yes"/>
      <point x="501" y="-8"/>
      <point x="422" y="62"/>
      <point x="422" y="159" type="curve" smooth="yes"/>
      <point x="422" y="258"/>
      <point x="499" y="330"/>
      <point x="586" y="330" type="curve" smooth="yes"/>
      <point x="675" y="330"/>
      <point x="750" y="258"/>
      <point x="750" y="161" type="curve" smooth="yes"/>
      <point x="750" y="62"/>
      <point x="672" y="-8"/>
    </contour>
  </outline>
</glyph>
<glyph name="ampersand" format="2">
  <advance width="686"/>
  <unicode hex="0026"/>
  <outline>
    <contour>
      <point x="644" y="369" type="line"/>
      <point x="527" y="146" type="line"/>
      <point x="647" y="0" type="line"/>
      <point x="546" y="0" type="line"/>
      <point x="475" y="86" type="line"/>
      <point x="430" y="34"/>
      <point x="367" y="-7"/>
      <point x="277" y="-7" type="curve" smooth="yes"/>
      <point x="146" y="-7"/>
      <point x="51" y="71"/>
      <point x="51" y="189" type="curve" smooth="yes"/>
      <point x="51" y="302"/>
      <point x="123" y="359"/>
      <point x="215" y="404" type="curve"/>
      <point x="173" y="458"/>
      <point x="152" y="507"/>
      <point x="152" y="555" type="curve" smooth="yes"/>
      <point x="152" y="663"/>
      <point x="237" y="719"/>
      <point x="327" y="719" type="curve" smooth="yes"/>
      <point x="415" y="719"/>
      <point x="483" y="658"/>
      <point x="483" y="572" type="curve" smooth="yes"/>
      <point x="483" y="485"/>
      <point x="421" y="426"/>
      <point x="330" y="387" type="curve"/>
      <point x="480" y="204" type="line"/>
      <point x="567" y="369" type="line"/>
    </contour>
    <contour>
      <point x="280" y="61" type="curve" smooth="yes"/>
      <point x="337" y="61"/>
      <point x="389" y="87"/>
      <point x="432" y="139" type="curve"/>
      <point x="254" y="356" type="line"/>
      <point x="184" y="322"/>
      <point x="135" y="281"/>
      <point x="135" y="197" type="curve" smooth="yes"/>
      <point x="135" y="111"/>
      <point x="190" y="61"/>
    </contour>
    <contour>
      <point x="232" y="554" type="curve" smooth="yes"/>
      <point x="232" y="518"/>
      <point x="255" y="482"/>
      <point x="294" y="433" type="curve"/>
      <point x="374" y="469"/>
      <point x="405" y="505"/>
      <point x="405" y="574" type="curve" smooth="yes"/>
      <point x="405" y="620"/>
      <point x="372" y="654"/>
      <point x="324" y="654" type="curve" smooth="yes"/>
      <point x="274" y="654"/>
      <point x="232" y="624"/>
    </contour>
  </outline>
</glyph>
<glyph name="quotesingle" format="2">
  <advance width="212"/>
  <unicode hex="0027"/>
  <outline>
    <contour>
      <point x="76" y="470" type="line"/>
      <point x="61" y="715" type="line"/>
      <point x="151" y="715" type="line"/>
      <point x="136" y="470" type="line"/>
    </contour>
  </outline>
</glyph>
<glyph name="parenleft" format="2">
  <advance width="322"/>
  <unicode hex="0028"/>
  <outline>
    <contour>
      <point x="219" y="-148" type="line"/>
      <point x="127" y="-40"/>
      <point x="53" y="113"/>
      <point x="53" y="312" type="curve" smooth="yes"/>
      <point x="53" y="511"/>
      <point x="127" y="665"/>
      <point x="219" y="773" type="curve"/>
      <point x="302" y="773" type="line"/>
      <point x="212" y="661"/>
      <point x="140" y="518"/>
      <point x="140" y="312" type="curve" smooth="yes"/>
      <point x="140" y="106"/>
      <point x="212" y="-36"/>
      <point x="302" y="-148" type="curve"/>
    </contour>
  </outline>
</glyph>
<glyph name="parenright" format="2">
  <advance width="322"/>
  <unicode hex="0029"/>
  <outline>
    <contour>
      <point x="20" y="-145" type="line"/>
      <point x="110" y="-33"/>
      <point x="182" y="110"/>
      <point x="182" y="316" type="curve" smooth="yes"/>
      <point x="182" y="522"/>
      <point x="110" y="664"/>
      <point x="20" y="776" type="curve"/>
      <point x="103" y="776" type="line"/>
      <point x="195" y="668"/>
      <point x="269" y="515"/>
      <point x="269" y="316" type="curve" smooth="yes"/>
      <point x="269" y="117"/>
      <point x="195" y="-37"/>
      <point x="103" y="-145" type="curve"/>
    </contour>
  </outline>
</glyph>
<glyph name="asterisk" format="2">
  <advance width="422"/>
  <unicode hex="002A"/>
  <outline>
    <contour>
      <point x="139" y="409" type="line"/>
      <point x="82" y="450" type="line"/>
      <point x="165" y="561" type="line"/>
      <point x="42" y="590" type="line"/>
      <point x="64" y="657" type="line"/>
      <point x="182" y="609" type="line"/>
      <point x="175" y="743" type="line"/>
      <point x="248" y="743" type="line"/>
      <point x="241" y="609" type="line"/>
      <point x="358" y="657" type="line"/>
      <point x="380" y="590" type="line"/>
      <point x="256" y="561" type="line"/>
      <point x="339" y="450" type="line"/>
      <point x="283" y="409" type="line"/>
      <point x="209" y="529" type="line"/>
    </contour>
  </outline>
</glyph>
<glyph name="plus" format="2">
  <advance width="519"/>
  <unicode hex="002B"/>
  <outline>
    <contour>
      <point x="223" y="105" type="line"/>
      <point x="223" y="307" type="line"/>
      <point x="36" y="307" type="line"/>
      <point x="36" y="377" type="line"/>
      <point x="223" y="377" type="line"/>
      <point x="223" y="579" type="line"/>
      <point x="296" y="579" type="line"/>
      <point x="296" y="377" type="line"/>
      <point x="483" y="377" type="line"/>
      <point x="483" y="307" type="line"/>
      <point x="296" y="307" type="line"/>
      <point x="296" y="105" type="line"/>
    </contour>
  </outline>
</glyph>
<glyph name="comma" format="2">
  <advance width="282"/>
  <unicode hex="002C"/>
  <outline>
    <contour>
      <point x="90" y="-123" type="line"/>
      <point x="36" y="-95" type="line"/>
      <point x="132" y="124" type="line"/>
      <point x="213" y="86" type="line"/>
    </contour>
  </outline>
</glyph>
<glyph name="hyphen" format="2">
  <advance width="334"/>
  <unicode hex="002D"/>
  <outline>
    <contour>
      <point x="60" y="236" type="line"/>
      <point x="60" y="314" type="line"/>
      <point x="274" y="314" type="line"/>
      <point x="274" y="236" type="line"/>
    </contour>
  </outline>
</glyph>
<glyph name="period" format="2">
  <advance width="282"/>
  <unicode hex="002E"/>
  <outline>
    <contour>
      <point x="141" y="-5" type="curve" smooth="yes"/>
      <point x="106" y="-5"/>
      <point x="77" y="23"/>
      <point x="77" y="59" type="curve" smooth="yes"/>
      <point x="77" y="95"/>
      <point x="106" y="123"/>
      <point x="141" y="123" type="curve" smooth="yes"/>
      <point x="176" y="123"/>
      <point x="205" y="95"/>
      <point x="205" y="59" type="curve" smooth="yes"/>
      <point x="205" y="23"/>
      <point x="176" y="-5"/>
    </contour>
  </outline>
</glyph>
<glyph name="zero" format="2">
  <advance width="681"/>
  <unicode hex="0030"/>
  <outline>
    <contour>
      <point x="344" y="63" type="curve" smooth="yes"/>
      <point x="469" y="63"/>
      <point x="533" y="159"/>
      <point x="533" y="340" type="curve" smooth="yes"/>
      <point x="533" y="380" type="line" smooth="yes"/>
      <point x="533" y="546"/>
      <point x="463" y="654"/>
      <point x="342" y="654" type="curve" smooth="yes"/>
      <point x="221" y="654"/>
      <point x="149" y="554"/>
      <point x="149" y="378" type="curve" smooth="yes"/>
      <point x="149" y="338" type="line" smooth="yes"/>
      <point x="149" y="157"/>
      <point x="225" y="63"/>
    </contour>
    <contour>
      <point x="344" y="-9" type="curve" smooth="yes"/>
      <point x="173" y="-9"/>
      <point x="60" y="129"/>
      <point x="60" y="337" type="curve" smooth="yes"/>
      <point x="60" y="377" type="line" smooth="yes"/>
      <point x="60" y="588"/>
      <point x="167" y="724"/>
      <point x="342" y="724" type="curve" smooth="yes"/>
      <point x="518" y="724"/>
      <point x="621" y="583"/>
      <point x="621" y="379" type="curve" smooth="yes"/>
      <point x="621" y="339" type="line" smooth="yes"/>
      <point x="621" y="131"/>
      <point x="520" y="-9"/>
    </contour>
  </outline>
</glyph>
<glyph name="one" format="2">
  <advance width="399"/>
  <unicode hex="0031"/>
  <outline>
    <contour>
      <point x="193" y="0" type="line"/>
      <point x="193" y="629" type="line"/>
      <point x="33" y="514" type="line"/>
      <point x="33" y="595" type="line"/>
      <point x="199" y="715" type="line"/>
      <point x="280" y="715" type="line"/>
      <point x="280" y="0" type="line"/>
    </contour>
  </outline>
</glyph>
<glyph name="two" format="2">
  <advance width="554"/>
  <unicode hex="0032"/>
  <outline>
    <contour>
      <point x="19" y="0" type="line"/>
      <point x="19" y="20" type="line"/>
      <point x="303" y="319" type="line" smooth="yes"/>
      <point x="368" y="388"/>
      <point x="406" y="453"/>
      <point x="406" y="526" type="curve" smooth="yes"/>
      <point x="406" y="606"/>
      <point x="359" y="654"/>
      <point x="278" y="654" type="curve" smooth="yes"/>
      <point x="195" y="654"/>
      <point x="141" y="607"/>
      <point x="127" y="495" type="curve"/>
      <point x="46" y="495" type="line"/>
      <point x="57" y="635"/>
      <point x="142" y="724"/>
      <point x="278" y="724" type="curve" smooth="yes"/>
      <point x="410" y="724"/>
      <point x="494" y="646"/>
      <point x="494" y="523" type="curve" smooth="yes"/>
      <point x="494" y="435"/>
      <point x="438" y="349"/>
      <point x="350" y="263" type="curve" smooth="yes"/>
      <point x="153" y="71" type="line"/>
      <point x="498" y="71" type="line"/>
      <point x="498" y="0" type="line"/>
    </contour>
  </outline>
</glyph>
<glyph name="three" format="2">
  <advance width="604"/>
  <unicode hex="0033"/>
  <outline>
    <contour>
      <point x="290" y="-9" type="curve" smooth="yes"/>
      <point x="138" y="-9"/>
      <point x="45" y="86"/>
      <point x="40" y="211" type="curve"/>
      <point x="120" y="211" type="line"/>
      <point x="128" y="126"/>
      <point x="179" y="61"/>
      <point x="292" y="61" type="curve" smooth="yes"/>
      <point x="404" y="61"/>
      <point x="455" y="115"/>
      <point x="455" y="199" type="curve" smooth="yes"/>
      <point x="455" y="291"/>
      <point x="405" y="338"/>
      <point x="304" y="338" type="curve" smooth="yes"/>
      <point x="250" y="338" type="line"/>
      <point x="250" y="411" type="line"/>
      <point x="300" y="411" type="line" smooth="yes"/>
      <point x="393" y="411"/>
      <point x="434" y="455"/>
      <point x="434" y="533" type="curve" smooth="yes"/>
      <point x="434" y="601"/>
      <point x="391" y="653"/>
      <point x="304" y="653" type="curve" smooth="yes"/>
      <point x="215" y="653"/>
      <point x="155" y="599"/>
      <point x="146" y="518" type="curve"/>
      <point x="70" y="518" type="line"/>
      <point x="75" y="631"/>
      <point x="168" y="724"/>
      <point x="304" y="724" type="curve" smooth="yes"/>
      <point x="440" y="724"/>
      <point x="519" y="634"/>
      <point x="519" y="535" type="curve" smooth="yes"/>
      <point x="519" y="454"/>
      <point x="471" y="406"/>
      <point x="406" y="379" type="curve"/>
      <point x="490" y="357"/>
      <point x="544" y="298"/>
      <point x="544" y="199" type="curve" smooth="yes"/>
      <point x="544" y="69"/>
      <point x="438" y="-9"/>
    </contour>
  </outline>
</glyph>
<glyph name="four" format="2">
  <advance width="617"/>
  <unicode hex="0034"/>
  <outline>
    <contour>
      <point x="397" y="0" type="line"/>
      <point x="397" y="150" type="line"/>
      <point x="39" y="150" type="line"/>
      <point x="39" y="178" type="line"/>
      <point x="366" y="715" type="line"/>
      <point x="482" y="715" type="line"/>
      <point x="482" y="221" type="line"/>
      <point x="581" y="221" type="line"/>
      <point x="581" y="150" type="line"/>
      <point x="482" y="150" type="line"/>
      <point x="482" y="0" type="line"/>
    </contour>
    <contour>
      <point x="149" y="221" type="line"/>
      <point x="397" y="221" type="line"/>
      <point x="397" y="649" type="line"/>
    </contour>
  </outline>
</glyph>
<glyph name="five" format="2">
  <advance width="587"/>
  <unicode hex="0035"/>
  <outline>
    <contour>
      <point x="281" y="-9" type="curve" smooth="yes"/>
      <point x="127" y="-9"/>
      <point x="53" y="76"/>
      <point x="43" y="193" type="curve"/>
      <point x="126" y="193" type="line"/>
      <point x="140" y="115"/>
      <point x="171" y="61"/>
      <point x="280" y="61" type="curve" smooth="yes"/>
      <point x="377" y="61"/>
      <point x="437" y="126"/>
      <point x="437" y="234" type="curve" smooth="yes"/>
      <point x="437" y="335"/>
      <point x="378" y="401"/>
      <point x="287" y="401" type="curve" smooth="yes"/>
      <point x="204" y="401"/>
      <point x="156" y="375"/>
      <point x="118" y="332" type="curve"/>
      <point x="86" y="332" type="line"/>
      <point x="86" y="715" type="line"/>
      <point x="488" y="715" type="line"/>
      <point x="488" y="640" type="line"/>
      <point x="158" y="640" type="line"/>
      <point x="158" y="422" type="line"/>
      <point x="187" y="449"/>
      <point x="236" y="471"/>
      <point x="304" y="471" type="curve" smooth="yes"/>
      <point x="432" y="471"/>
      <point x="526" y="380"/>
      <point x="526" y="234" type="curve" smooth="yes"/>
      <point x="526" y="83"/>
      <point x="417" y="-9"/>
    </contour>
  </outline>
</glyph>
<glyph name="six" format="2">
  <advance width="619"/>
  <unicode hex="0036"/>
  <outline>
    <contour>
      <point x="317" y="-9" type="curve" smooth="yes"/>
      <point x="122" y="-9"/>
      <point x="60" y="137"/>
      <point x="60" y="316" type="curve" smooth="yes"/>
      <point x="60" y="333" type="line" smooth="yes"/>
      <point x="60" y="590"/>
      <point x="176" y="724"/>
      <point x="340" y="724" type="curve" smooth="yes"/>
      <point x="451" y="724"/>
      <point x="530" y="666"/>
      <point x="549" y="551" type="curve"/>
      <point x="466" y="551" type="line"/>
      <point x="450" y="617"/>
      <point x="414" y="653"/>
      <point x="334" y="653" type="curve" smooth="yes"/>
      <point x="226" y="653"/>
      <point x="150" y="556"/>
      <point x="146" y="367" type="curve"/>
      <point x="180" y="425"/>
      <point x="247" y="464"/>
      <point x="330" y="464" type="curve" smooth="yes"/>
      <point x="472" y="464"/>
      <point x="564" y="361"/>
      <point x="564" y="230" type="curve" smooth="yes"/>
      <point x="564" y="87"/>
      <point x="468" y="-9"/>
    </contour>
    <contour>
      <point x="317" y="59" type="curve" smooth="yes"/>
      <point x="411" y="59"/>
      <point x="475" y="125"/>
      <point x="475" y="226" type="curve" smooth="yes"/>
      <point x="475" y="329"/>
      <point x="413" y="396"/>
      <point x="316" y="396" type="curve" smooth="yes"/>
      <point x="220" y="396"/>
      <point x="152" y="331"/>
      <point x="152" y="238" type="curve" smooth="yes"/>
      <point x="152" y="121"/>
      <point x="221" y="59"/>
    </contour>
  </outline>
</glyph>
<glyph name="seven" format="2">
  <advance width="525"/>
  <unicode hex="0037"/>
  <outline>
    <contour>
      <point x="146" y="0" type="line"/>
      <point x="395" y="645" type="line"/>
      <point x="32" y="645" type="line"/>
      <point x="32" y="715" type="line"/>
      <point x="503" y="715" type="line"/>
      <point x="503" y="703" type="line"/>
      <point x="235" y="0" type="line"/>
    </contour>
  </outline>
</glyph>
<glyph name="eight" format="2">
  <advance width="607"/>
  <unicode hex="0038"/>
  <outline>
    <contour>
      <point x="304" y="-9" type="curve" smooth="yes"/>
      <point x="187" y="-9"/>
      <point x="57" y="61"/>
      <point x="57" y="203" type="curve" smooth="yes"/>
      <point x="57" y="299"/>
      <point x="116" y="361"/>
      <point x="192" y="388" type="curve"/>
      <point x="124" y="414"/>
      <point x="84" y="468"/>
      <point x="84" y="538" type="curve" smooth="yes"/>
      <point x="84" y="654"/>
      <point x="194" y="724"/>
      <point x="304" y="724" type="curve" smooth="yes"/>
      <point x="415" y="724"/>
      <point x="523" y="652"/>
      <point x="523" y="540" type="curve" smooth="yes"/>
      <point x="523" y="468"/>
      <point x="479" y="418"/>
      <point x="413" y="389" type="curve"/>
      <point x="496" y="359"/>
      <point x="550" y="297"/>
      <point x="550" y="205" type="curve" smooth="yes"/>
      <point x="550" y="62"/>
      <point x="425" y="-9"/>
    </contour>
    <contour>
      <point x="304" y="62" type="curve" smooth="yes"/>
      <point x="392" y="62"/>
      <point x="461" y="113"/>
      <point x="461" y="208" type="curve" smooth="yes"/>
      <point x="461" y="302"/>
      <point x="391" y="350"/>
      <point x="306" y="350" type="curve" smooth="yes"/>
      <point x="221" y="350"/>
      <point x="146" y="301"/>
      <point x="146" y="206" type="curve" smooth="yes"/>
      <point x="146" y="112"/>
      <point x="221" y="62"/>
    </contour>
    <contour>
      <point x="307" y="419" type="curve" smooth="yes"/>
      <point x="383" y="419"/>
      <point x="435" y="463"/>
      <point x="435" y="539" type="curve" smooth="yes"/>
      <point x="435" y="608"/>
      <point x="378" y="656"/>
      <point x="304" y="656" type="curve" smooth="yes"/>
      <point x="230" y="656"/>
      <point x="172" y="611"/>
      <point x="172" y="537" type="curve" smooth="yes"/>
      <point x="172" y="462"/>
      <point x="234" y="419"/>
    </contour>
  </outline>
</glyph>
<glyph name="nine" format="2">
  <advance width="620"/>
  <unicode hex="0039"/>
  <outline>
    <contour>
      <point x="290" y="-8" type="curve" smooth="yes"/>
      <point x="158" y="-8"/>
      <point x="79" y="61"/>
      <point x="60" y="176" type="curve"/>
      <point x="144" y="176" type="line"/>
      <point x="160" y="106"/>
      <point x="200" y="63"/>
      <point x="292" y="63" type="curve" smooth="yes"/>
      <point x="406" y="63"/>
      <point x="473" y="157"/>
      <point x="475" y="347" type="curve"/>
      <point x="441" y="289"/>
      <point x="372" y="252"/>
      <point x="290" y="252" type="curve" smooth="yes"/>
      <point x="151" y="252"/>
      <point x="55" y="351"/>
      <point x="55" y="486" type="curve" smooth="yes"/>
      <point x="55" y="629"/>
      <point x="151" y="725"/>
      <point x="302" y="725" type="curve" smooth="yes"/>
      <point x="471" y="725"/>
      <point x="559" y="611"/>
      <point x="559" y="405" type="curve" smooth="yes"/>
      <point x="559" y="360" type="line" smooth="yes"/>
      <point x="559" y="123"/>
      <point x="461" y="-8"/>
    </contour>
    <contour>
      <point x="303" y="320" type="curve" smooth="yes"/>
      <point x="399" y="320"/>
      <point x="467" y="382"/>
      <point x="467" y="475" type="curve" smooth="yes"/>
      <point x="467" y="592"/>
      <point x="398" y="657"/>
      <point x="302" y="657" type="curve" smooth="yes"/>
      <point x="208" y="657"/>
      <point x="144" y="591"/>
      <point x="144" y="490" type="curve" smooth="yes"/>
      <point x="144" y="387"/>
      <point x="206" y="320"/>
    </contour>
  </outline>
</glyph>
<glyph name="colon" format="2">
  <advance width="292"/>
  <unicode hex="003A"/>
  <outline>
    <contour>
      <point x="146" y="-5" type="curve" smooth="yes"/>
      <point x="111" y="-5"/>
      <point x="82" y="23"/>
      <point x="82" y="59" type="curve" smooth="yes"/>
      <point x="82" y="95"/>
      <point x="111" y="123"/>
      <point x="146" y="123" type="curve" smooth="yes"/>
      <point x="181" y="123"/>
      <point x="210" y="95"/>
      <point x="210" y="59" type="curve" smooth="yes"/>
      <point x="210" y="23"/>
      <point x="181" y="-5"/>
    </contour>
    <contour>
      <point x="146" y="292" type="curve" smooth="yes"/>
      <point x="111" y="292"/>
      <point x="82" y="320"/>
      <point x="82" y="356" type="curve" smooth="yes"/>
      <point x="82" y="392"/>
      <point x="111" y="420"/>
      <point x="146" y="420" type="curve" smooth="yes"/>
      <point x="181" y="420"/>
      <point x="210" y="392"/>
      <point x="210" y="356" type="curve" smooth="yes"/>
      <point x="210" y="320"/>
      <point x="181" y="292"/>
    </contour>
  </outline>
</glyph>
<glyph name="semicolon" format="2">
  <advance width="292"/>
  <unicode hex="003B"/>
  <outline>
    <contour>
      <point x="75" y="-123" type="line"/>
      <point x="21" y="-95" type="line"/>
      <point x="117" y="124" type="line"/>
      <point x="198" y="86" type="line"/>
    </contour>
    <contour>
      <point x="155" y="292" type="curve" smooth="yes"/>
      <point x="120" y="292"/>
      <point x="91" y="320"/>
      <point x="91" y="356" type="curve" smooth="yes"/>
      <point x="91" y="392"/>
      <point x="120" y="420"/>
      <point x="155" y="420" type="curve" smooth="yes"/>
      <point x="190" y="420"/>
      <point x="219" y="392"/>
      <point x="219" y="356" type="curve" smooth="yes"/>
      <point x="219" y="320"/>
      <point x="190" y="292"/>
    </contour>
  </outline>
</glyph>
<glyph name="less" format="2">
  <advance width="504"/>
  <unicode hex="003C"/>
  <outline>
    <contour>
      <point x="437" y="95" type="line"/>
      <point x="53" y="312" type="line"/>
      <point x="53" y="332" type="line"/>
      <point x="437" y="549" type="line"/>
      <point x="437" y="469" type="line"/>
      <point x="174" y="322" type="line"/>
      <point x="437" y="175" type="line"/>
    </contour>
  </outline>
</glyph>
<glyph name="equal" format="2">
  <advance width="484"/>
  <unicode hex="003D"/>
  <outline>
    <contour>
      <point x="40" y="196" type="line"/>
      <point x="40" y="268" type="line"/>
      <point x="444" y="268" type="line"/>
      <point x="444" y="196" type="line"/>
    </contour>
    <contour>
      <point x="40" y="376" type="line"/>
      <point x="40" y="448" type="line"/>
      <point x="444" y="448" type="line"/>
      <point x="444" y="376" type="line"/>
    </contour>
  </outline>
</glyph>
<glyph name="greater" format="2">
  <advance width="504"/>
  <unicode hex="003E"/>
  <outline>
    <contour>
      <point x="67" y="95" type="line"/>
      <point x="67" y="175" type="line"/>
      <point x="330" y="322" type="line"/>
      <point x="67" y="469" type="line"/>
      <point x="67" y="549" type="line"/>
      <point x="451" y="332" type="line"/>
      <point x="451" y="312" type="line"/>
    </contour>
  </outline>
</glyph>
<glyph name="question" format="2">
  <advance width="489"/>
  <unicode hex="003F"/>
  <outline>
    <contour>
      <point x="179" y="202" type="line"/>
      <point x="179" y="252" type="line" smooth="yes"/>
      <point x="179" y="333"/>
      <point x="232" y="383"/>
      <point x="282" y="432" type="curve" smooth="yes"/>
      <point x="321" y="471"/>
      <point x="355" y="507"/>
      <point x="355" y="555" type="curve" smooth="yes"/>
      <point x="355" y="614"/>
      <point x="322" y="655"/>
      <point x="248" y="655" type="curve" smooth="yes"/>
      <point x="173" y="655"/>
      <point x="122" y="604"/>
      <point x="115" y="525" type="curve"/>
      <point x="37" y="525" type="line"/>
      <point x="44" y="642"/>
      <point x="127" y="724"/>
      <point x="249" y="724" type="curve" smooth="yes"/>
      <point x="385" y="724"/>
      <point x="439" y="642"/>
      <point x="439" y="558" type="curve" smooth="yes"/>
      <point x="439" y="484"/>
      <point x="389" y="437"/>
      <point x="341" y="391" type="curve" smooth="yes"/>
      <point x="296" y="348"/>
      <point x="253" y="306"/>
      <point x="253" y="245" type="curve" smooth="yes"/>
      <point x="253" y="202" type="line"/>
    </contour>
    <contour>
      <point x="214" y="-5" type="curve" smooth="yes"/>
      <point x="179" y="-5"/>
      <point x="150" y="23"/>
      <point x="150" y="59" type="curve" smooth="yes"/>
      <point x="150" y="95"/>
      <point x="179" y="123"/>
      <point x="214" y="123" type="curve" smooth="yes"/>
      <point x="249" y="123"/>
      <point x="278" y="95"/>
      <point x="278" y="59" type="curve" smooth="yes"/>
      <point x="278" y="23"/>
      <point x="249" y="-5"/>
    </contour>
  </outline>
</glyph>
<glyph name="at" format="2">
  <advance width="915"/>
  <unicode hex="0040"/>
  <outline>
    <contour>
      <point x="459" y="-147" type="curve" smooth="yes"/>
      <point x="192" y="-147"/>
      <point x="45" y="47"/>
      <point x="45" y="260" type="curve" smooth="yes"/>
      <point x="45" y="505"/>
      <point x="241" y="688"/>
      <point x="472" y="688" type="curve" smooth="yes"/>
      <point x="711" y="688"/>
      <point x="870" y="528"/>
      <point x="870" y="322" type="curve" smooth="yes"/>
      <point x="870" y="134"/>
      <point x="762" y="67"/>
      <point x="682" y="67" type="curve" smooth="yes"/>
      <point x="601" y="67"/>
      <point x="575" y="101"/>
      <point x="567" y="153" type="curve"/>
      <point x="538" y="101"/>
      <point x="480" y="60"/>
      <point x="418" y="60" type="curve" smooth="yes"/>
      <point x="321" y="60"/>
      <point x="257" y="126"/>
      <point x="257" y="234" type="curve" smooth="yes"/>
      <point x="257" y="368"/>
      <point x="345" y="466"/>
      <point x="454" y="466" type="curve" smooth="yes"/>
      <point x="525" y="466"/>
      <point x="561" y="432"/>
      <point x="575" y="398" type="curve"/>
      <point x="582" y="458" type="line"/>
      <point x="665" y="458" type="line"/>
      <point x="635" y="206" type="line" smooth="yes"/>
      <point x="628" y="153"/>
      <point x="645" y="127"/>
      <point x="683" y="127" type="curve" smooth="yes"/>
      <point x="740" y="127"/>
      <point x="798" y="184"/>
      <point x="798" y="320" type="curve" smooth="yes"/>
      <point x="798" y="499"/>
      <point x="678" y="622"/>
      <point x="472" y="622" type="curve" smooth="yes"/>
      <point x="270" y="622"/>
      <point x="122" y="474"/>
      <point x="122" y="262" type="curve" smooth="yes"/>
      <point x="122" y="80"/>
      <point x="236" y="-81"/>
      <point x="459" y="-81" type="curve" smooth="yes"/>
      <point x="568" y="-81"/>
      <point x="633" y="-53"/>
      <point x="695" y="0" type="curve"/>
      <point x="772" y="0" type="line"/>
      <point x="721" y="-87"/>
      <point x="603" y="-147"/>
    </contour>
    <contour>
      <point x="436" y="124" type="curve" smooth="yes"/>
      <point x="498" y="124"/>
      <point x="564" y="181"/>
      <point x="564" y="287" type="curve" smooth="yes"/>
      <point x="564" y="363"/>
      <point x="525" y="400"/>
      <point x="460" y="400" type="curve" smooth="yes"/>
      <point x="397" y="400"/>
      <point x="342" y="340"/>
      <point x="342" y="235" type="curve" smooth="yes"/>
      <point x="342" y="165"/>
      <point x="382" y="124"/>
    </contour>
  </outline>
</glyph>
<glyph name="B" format="2">
  <advance width="622"/>
  <unicode hex="0042"/>
  <outline>
    <contour>
      <point x="90" y="0" type="line"/>
      <point x="90" y="715" type="line"/>
      <point x="305" y="715" type="line" smooth="yes"/>
      <point x="438" y="715"/>
      <point x="535" y="671"/>
      <point x="535" y="530" type="curve" smooth="yes"/>
      <point x="535" y="526" type="line" smooth="yes"/>
      <point x="535" y="461"/>
      <point x="509" y="403"/>
      <point x="427" y="375" type="curve"/>
      <point x="531" y="350"/>
      <point x="570" y="297"/>
      <point x="570" y="204" type="curve" smooth="yes"/>
      <point x="570" y="200" type="line" smooth="yes"/>
      <point x="570" y="65"/>
      <point x="478" y="0"/>
      <point x="335" y="0" type="curve" smooth="yes"/>
    </contour>
    <contour>
      <point x="175" y="68" type="line"/>
      <point x="333" y="68" type="line" smooth="yes"/>
      <point x="437" y="68"/>
      <point x="485" y="114"/>
      <point x="485" y="201" type="curve" smooth="yes"/>
      <point x="485" y="205" type="line" smooth="yes"/>
      <point x="485" y="293"/>
      <point x="436" y="335"/>
      <point x="321" y="335" type="curve" smooth="yes"/>
      <point x="175" y="335" type="line"/>
    </contour>
    <contour>
      <point x="175" y="403" type="line"/>
      <point x="305" y="403" type="line" smooth="yes"/>
      <point x="410" y="403"/>
      <point x="450" y="441"/>
      <point x="450" y="529" type="curve" smooth="yes"/>
      <point x="450" y="533" type="line" smooth="yes"/>
      <point x="450" y="614"/>
      <point x="403" y="647"/>
      <point x="303" y="647" type="curve" smooth="yes"/>
      <point x="175" y="647" type="line"/>
    </contour>
  </outline>
</glyph>
<glyph name="D" format="2">
  <advance width="696"/>
  <unicode hex="0044"/>
  <outline>
    <contour>
      <point x="177" y="71" type="line"/>
      <point x="275" y="71" type="line" smooth="yes"/>
      <point x="459" y="71"/>
      <point x="551" y="181"/>
      <point x="551" y="356" type="curve" smooth="yes"/>
      <point x="551" y="364" type="line" smooth="yes"/>
      <point x="551" y="529"/>
      <point x="471" y="645"/>
      <point x="274" y="645" type="curve" smooth="yes"/>
      <point x="177" y="645" type="line"/>
    </contour>
    <contour>
      <point x="90" y="0" type="line"/>
      <point x="90" y="715" type="line"/>
      <point x="279" y="715" type="line" smooth="yes"/>
      <point x="525" y="715"/>
      <point x="641" y="563"/>
      <point x="641" y="364" type="curve" smooth="yes"/>
      <point x="641" y="355" type="line" smooth="yes"/>
      <point x="641" y="157"/>
      <point x="527" y="0"/>
      <point x="277" y="0" type="curve" smooth="yes"/>
    </contour>
  </outline>
</glyph>
<glyph name="E" format="2">
  <advance width="566"/>
  <unicode hex="0045"/>
  <outline>
    <contour>
      <point x="90" y="0" type="line"/>
      <point x="90" y="715" type="line"/>
      <point x="507" y="715" type="line"/>
      <point x="507" y="644" type="line"/>
      <point x="177" y="644" type="line"/>
      <point x="177" y="401" type="line"/>
      <point x="443" y="401" type="line"/>
      <point x="443" y="330" type="line"/>
      <point x="177" y="330" type="line"/>
      <point x="177" y="71" type="line"/>
      <point x="525" y="71" type="line"/>
      <point x="525" y="0" type="line"/>
    </contour>
  </outline>
</glyph>
<glyph name="F" format="2">
  <advance width="546"/>
  <unicode hex="0046"/>
  <outline>
    <contour>
      <point x="90" y="0" type="line"/>
      <point x="90" y="715" type="line"/>
      <point x="508" y="715" type="line"/>
      <point x="508" y="644" type="line"/>
      <point x="177" y="644" type="line"/>
      <point x="177" y="391" type="line"/>
      <point x="435" y="391" type="line"/>
      <point x="435" y="320" type="line"/>
      <point x="177" y="320" type="line"/>
      <point x="177" y="0" type="line"/>
    </contour>
  </outline>
</glyph>
<glyph name="G" format="2">
  <advance width="767"/>
  <unicode hex="0047"/>
  <outline>
    <contour>
      <point x="401" y="-9" type="curve" smooth="yes"/>
      <point x="181" y="-9"/>
      <point x="55" y="144"/>
      <point x="55" y="353" type="curve" smooth="yes"/>
      <point x="55" y="361" type="line" smooth="yes"/>
      <point x="55" y="570"/>
      <point x="196" y="726"/>
      <point x="401" y="726" type="curve" smooth="yes"/>
      <point x="543" y="726"/>
      <point x="670" y="660"/>
      <point x="692" y="499" type="curve"/>
      <point x="605" y="499" type="line"/>
      <point x="585" y="613"/>
      <point x="507" y="657"/>
      <point x="403" y="657" type="curve" smooth="yes"/>
      <point x="239" y="657"/>
      <point x="145" y="537"/>
      <point x="145" y="362" type="curve" smooth="yes"/>
      <point x="145" y="354" type="line" smooth="yes"/>
      <point x="145" y="177"/>
      <point x="233" y="61"/>
      <point x="401" y="61" type="curve" smooth="yes"/>
      <point x="556" y="61"/>
      <point x="623" y="162"/>
      <point x="626" y="289" type="curve"/>
      <point x="417" y="289" type="line"/>
      <point x="417" y="361" type="line"/>
      <point x="711" y="361" type="line"/>
      <point x="711" y="308" type="line" smooth="yes"/>
      <point x="711" y="101"/>
      <point x="584" y="-9"/>
    </contour>
  </outline>
</glyph>
<glyph name="H" format="2">
  <advance width="730"/>
  <unicode hex="0048"/>
  <outline>
    <contour>
      <point x="90" y="0" type="line"/>
      <point x="90" y="715" type="line"/>
      <point x="177" y="715" type="line"/>
      <point x="177" y="391" type="line"/>
      <point x="553" y="391" type="line"/>
      <point x="553" y="715" type="line"/>
      <point x="640" y="715" type="line"/>
      <point x="640" y="0" type="line"/>
      <point x="553" y="0" type="line"/>
      <point x="553" y="318" type="line"/>
      <point x="177" y="318" type="line"/>
      <point x="177" y="0" type="line"/>
    </contour>
  </outline>
</glyph>
<glyph name="I" format="2">
  <advance width="277"/>
  <unicode hex="0049"/>
  <outline>
    <contour>
      <point x="95" y="0" type="line"/>
      <point x="95" y="715" type="line"/>
      <point x="182" y="715" type="line"/>
      <point x="182" y="0" type="line"/>
    </contour>
  </outline>
</glyph>
<glyph name="J" format="2">
  <advance width="420"/>
  <unicode hex="004A"/>
  <outline>
    <contour>
      <point x="138" y="-9" type="curve" smooth="yes"/>
      <point x="84" y="-9"/>
      <point x="57" y="0"/>
      <point x="38" y="10" type="curve"/>
      <point x="38" y="82" type="line"/>
      <point x="64" y="71"/>
      <point x="90" y="62"/>
      <point x="133" y="62" type="curve" smooth="yes"/>
      <point x="204" y="62"/>
      <point x="249" y="102"/>
      <point x="249" y="198" type="curve" smooth="yes"/>
      <point x="249" y="715" type="line"/>
      <point x="336" y="715" type="line"/>
      <point x="336" y="194" type="line" smooth="yes"/>
      <point x="336" y="51"/>
      <point x="247" y="-9"/>
    </contour>
  </outline>
</glyph>
<glyph name="L" format="2">
  <advance width="535"/>
  <unicode hex="004C"/>
  <outline>
    <contour>
      <point x="90" y="0" type="line"/>
      <point x="90" y="715" type="line"/>
      <point x="177" y="715" type="line"/>
      <point x="177" y="71" type="line"/>
      <point x="504" y="71" type="line"/>
      <point x="504" y="0" type="line"/>
    </contour>
  </outline>
</glyph>
<glyph name="M" format="2">
  <advance width="856"/>
  <unicode hex="004D"/>
  <outline>
    <contour>
      <point x="90" y="0" type="line"/>
      <point x="90" y="715" type="line"/>
      <point x="211" y="715" type="line"/>
      <point x="432" y="158" type="line"/>
      <point x="646" y="715" type="line"/>
      <point x="766" y="715" type="line"/>
      <point x="766" y="0" type="line"/>
      <point x="679" y="0" type="line"/>
      <point x="679" y="602" type="line"/>
      <point x="442" y="0" type="line"/>
      <point x="415" y="0" type="line"/>
      <point x="170" y="602" type="line"/>
      <point x="170" y="0" type="line"/>
    </contour>
  </outline>
</glyph>
<glyph name="P" format="2">
  <advance width="581"/>
  <unicode hex="0050"/>
  <outline>
    <contour>
      <point x="90" y="0" type="line"/>
      <point x="90" y="715" type="line"/>
      <point x="293" y="715" type="line" smooth="yes"/>
      <point x="430" y="715"/>
      <point x="543" y="655"/>
      <point x="543" y="506" type="curve" smooth="yes"/>
      <point x="543" y="502" type="line" smooth="yes"/>
      <point x="543" y="350"/>
      <point x="429" y="291"/>
      <point x="293" y="291" type="curve" smooth="yes"/>
      <point x="177" y="291" type="line"/>
      <point x="177" y="0" type="line"/>
    </contour>
    <contour>
      <point x="177" y="360" type="line"/>
      <point x="299" y="360" type="line" smooth="yes"/>
      <point x="401" y="360"/>
      <point x="456" y="410"/>
      <point x="456" y="502" type="curve" smooth="yes"/>
      <point x="456" y="506" type="line" smooth="yes"/>
      <point x="456" y="607"/>
      <point x="396" y="645"/>
      <point x="299" y="645" type="curve" smooth="yes"/>
      <point x="177" y="645" type="line"/>
    </contour>
  </outline>
</glyph>
<glyph name="Q" format="2">
  <advance width="811"/>
  <unicode hex="0051"/>
  <outline>
    <contour>
      <point x="659" y="-89" type="line"/>
      <point x="559" y="23" type="line"/>
      <point x="515" y="2"/>
      <point x="464" y="-9"/>
      <point x="409" y="-9" type="curve" smooth="yes"/>
      <point x="198" y="-9"/>
      <point x="55" y="153"/>
      <point x="55" y="353" type="curve" smooth="yes"/>
      <point x="55" y="361" type="line" smooth="yes"/>
      <point x="55" y="564"/>
      <point x="197" y="724"/>
      <point x="407" y="724" type="curve" smooth="yes"/>
      <point x="617" y="724"/>
      <point x="756" y="564"/>
      <point x="756" y="363" type="curve" smooth="yes"/>
      <point x="756" y="355" type="line" smooth="yes"/>
      <point x="756" y="234"/>
      <point x="706" y="128"/>
      <point x="622" y="62" type="curve"/>
      <point x="712" y="-38" type="line"/>
    </contour>
    <contour>
      <point x="409" y="63" type="curve" smooth="yes"/>
      <point x="445" y="63"/>
      <point x="478" y="69"/>
      <point x="507" y="81" type="curve"/>
      <point x="427" y="171" type="line"/>
      <point x="480" y="222" type="line"/>
      <point x="571" y="119" type="line"/>
      <point x="632" y="171"/>
      <point x="666" y="254"/>
      <point x="666" y="356" type="curve" smooth="yes"/>
      <point x="666" y="364" type="line" smooth="yes"/>
      <point x="666" y="524"/>
      <point x="572" y="654"/>
      <point x="407" y="654" type="curve" smooth="yes"/>
      <point x="241" y="654"/>
      <point x="145" y="532"/>
      <point x="145" y="362" type="curve" smooth="yes"/>
      <point x="145" y="354" type="line" smooth="yes"/>
      <point x="145" y="181"/>
      <point x="260" y="63"/>
    </contour>
  </outline>
</glyph>
<glyph name="V" format="2">
  <advance width="654"/>
  <unicode hex="0056"/>
  <outline>
    <contour>
      <point x="273" y="0" type="line"/>
      <point x="30" y="715" type="line"/>
      <point x="116" y="715" type="line"/>
      <point x="329" y="84" type="line"/>
      <point x="542" y="715" type="line"/>
      <point x="624" y="715" type="line"/>
      <point x="377" y="0" type="line"/>
    </contour>
  </outline>
</glyph>
<glyph name="W" format="2">
  <advance width="928"/>
  <unicode hex="0057"/>
  <outline>
    <contour>
      <point x="220" y="0" type="line"/>
      <point x="34" y="715" type="line"/>
      <point x="123" y="715" type="line"/>
      <point x="268" y="138" type="line"/>
      <point x="436" y="715" type="line"/>
      <point x="498" y="715" type="line"/>
      <point x="666" y="136" type="line"/>
      <point x="813" y="715" type="line"/>
      <point x="894" y="715" type="line"/>
      <point x="708" y="0" type="line"/>
      <point x="628" y="0" type="line"/>
      <point x="466" y="565" type="line"/>
      <point x="299" y="0" type="line"/>
    </contour>
  </outline>
</glyph>
<glyph name="X" format="2">
  <advance width="657"/>
  <unicode hex="0058"/>
  <outline>
    <contour>
      <point x="45" y="0" type="line"/>
      <point x="281" y="367" type="line"/>
      <point x="61" y="715" type="line"/>
      <point x="157" y="715" type="line"/>
      <point x="335" y="434" type="line"/>
      <point x="512" y="715" type="line"/>
      <point x="601" y="715" type="line"/>
      <point x="379" y="367" type="line"/>
      <point x="612" y="0" type="line"/>
      <point x="514" y="0" type="line"/>
      <point x="323" y="301" type="line"/>
      <point x="132" y="0" type="line"/>
    </contour>
  </outline>
</glyph>
<glyph name="Z" format="2">
  <advance width="595"/>
  <unicode hex="005A"/>
  <outline>
    <contour>
      <point x="28" y="0" type="line"/>
      <point x="28" y="14" type="line"/>
      <point x="433" y="644" type="line"/>
      <point x="64" y="644" type="line"/>
      <point x="64" y="715" type="line"/>
      <point x="553" y="715" type="line"/>
      <point x="553" y="702" type="line"/>
      <point x="159" y="74" type="line"/>
      <point x="547" y="74" type="line"/>
      <point x="547" y="0" type="line"/>
    </contour>
  </outline>
</glyph>
<glyph name="bracketleft" format="2">
  <advance width="356"/>
  <unicode hex="005B"/>
  <outline>
    <contour>
      <point x="88" y="-148" type="line"/>
      <point x="88" y="776" type="line"/>
      <point x="312" y="776" type="line"/>
      <point x="312" y="710" type="line"/>
      <point x="171" y="710" type="line"/>
      <point x="171" y="-82" type="line"/>
      <point x="312" y="-82" type="line"/>
      <point x="312" y="-148" type="line"/>
    </contour>
  </outline>
</glyph>
<glyph name="backslash" format="2">
  <advance width="403"/>
  <unicode hex="005C"/>
  <outline>
    <contour>
      <point x="321" y="-148" type="line"/>
      <point x="30" y="776" type="line"/>
      <point x="106" y="776" type="line"/>
      <point x="397" y="-148" type="line"/>
    </contour>
  </outline>
</glyph>
<glyph name="bracketright" format="2">
  <advance width="356"/>
  <unicode hex="005D"/>
  <outline>
    <contour>
      <point x="44" y="-148" type="line"/>
      <point x="44" y="-82" type="line"/>
      <point x="185" y="-82" type="line"/>
      <point x="185" y="710" type="line"/>
      <point x="44" y="710" type="line"/>
      <point x="44" y="776" type="line"/>
      <point x="268" y="776" type="line"/>
      <point x="268" y="-148" type="line"/>
    </contour>
  </outline>
</glyph>
<glyph name="asciicircum" format="2">
  <advance width="507"/>
  <unicode hex="005E"/>
  <outline>
    <contour>
      <point x="44" y="408" type="line"/>
      <point x="211" y="715" type="line"/>
      <point x="296" y="715" type="line"/>
      <point x="463" y="408" type="line"/>
      <point x="379" y="408" type="line"/>
      <point x="252" y="644" type="line"/>
      <point x="126" y="408" type="line"/>
    </contour>
  </outline>
</glyph>
<glyph name="underscore" format="2">
  <advance width="394"/>
  <unicode hex="005F"/>
  <outline>
    <contour>
      <point x="-1" y="-158" type="line"/>
      <point x="-1" y="-92" type="line"/>
      <point x="395" y="-92" type="line"/>
      <point x="395" y="-158" type="line"/>
    </contour>
  </outline>
</glyph>
<glyph name="grave" format="2">
  <advance width="400"/>
  <unicode hex="0060"/>
  <outline>
    <contour>
      <point x="177" y="613" type="line"/>
      <point x="73" y="760" type="line"/>
      <point x="177" y="760" type="line"/>
      <point x="239" y="613" type="line"/>
    </contour>
  </outline>
</glyph>
<glyph name="c" format="2">
  <advance width="570"/>
  <unicode hex="0063"/>
  <outline>
    <contour>
      <point x="301" y="-9" type="curve" smooth="yes"/>
      <point x="155" y="-9"/>
      <point x="45" y="94"/>
      <point x="45" y="256" type="curve" smooth="yes"/>
      <point x="45" y="264" type="line" smooth="yes"/>
      <point x="45" y="424"/>
      <point x="159" y="532"/>
      <point x="299" y="532" type="curve" smooth="yes"/>
      <point x="408" y="532"/>
      <point x="510" y="482"/>
      <point x="526" y="349" type="curve"/>
      <point x="444" y="349" type="line"/>
      <point x="431" y="432"/>
      <point x="371" y="463"/>
      <point x="299" y="463" type="curve" smooth="yes"/>
      <point x="204" y="463"/>
      <point x="131" y="387"/>
      <point x="131" y="264" type="curve" smooth="yes"/>
      <point x="131" y="256" type="line" smooth="yes"/>
      <point x="131" y="128"/>
      <point x="201" y="60"/>
      <point x="302" y="60" type="curve" smooth="yes"/>
      <point x="376" y="60"/>
      <point x="443" y="103"/>
      <point x="452" y="188" type="curve"/>
      <point x="529" y="188" type="line"/>
      <point x="518" y="75"/>
      <point x="427" y="-9"/>
    </contour>
  </outline>
</glyph>
<glyph name="f" format="2">
  <advance width="346"/>
  <unicode hex="0066"/>
  <outline>
    <contour>
      <point x="102" y="0" type="line"/>
      <point x="102" y="453" type="line"/>
      <point x="27" y="453" type="line"/>
      <point x="27" y="523" type="line"/>
      <point x="102" y="523" type="line"/>
      <point x="102" y="608" type="line" smooth="yes"/>
      <point x="102" y="714"/>
      <point x="154" y="776"/>
      <point x="258" y="776" type="curve" smooth="yes"/>
      <point x="285" y="776"/>
      <point x="299" y="773"/>
      <point x="320" y="766" type="curve"/>
      <point x="320" y="696" type="line"/>
      <point x="305" y="702"/>
      <point x="284" y="707"/>
      <point x="261" y="707" type="curve" smooth="yes"/>
      <point x="207" y="707"/>
      <point x="185" y="670"/>
      <point x="185" y="617" type="curve" smooth="yes"/>
      <point x="185" y="523" type="line"/>
      <point x="313" y="523" type="line"/>
      <point x="313" y="453" type="line"/>
      <point x="185" y="453" type="line"/>
      <point x="185" y="0" type="line"/>
    </contour>
  </outline>
</glyph>
<glyph name="k" format="2">
  <advance width="516"/>
  <unicode hex="006B"/>
  <outline>
    <contour>
      <point x="84" y="0" type="line"/>
      <point x="84" y="773" type="line"/>
      <point x="167" y="773" type="line"/>
      <point x="167" y="282" type="line"/>
      <point x="384" y="523" type="line"/>
      <point x="481" y="523" type="line"/>
      <point x="257" y="280" type="line"/>
      <point x="500" y="0" type="line"/>
      <point x="399" y="0" type="line"/>
      <point x="167" y="271" type="line"/>
      <point x="167" y="0" type="line"/>
    </contour>
  </outline>
</glyph>
<glyph name="m" format="2">
  <advance width="910"/>
  <unicode hex="006D"/>
  <outline>
    <contour>
      <point x="84" y="0" type="line"/>
      <point x="84" y="523" type="line"/>
      <point x="167" y="523" type="line"/>
      <point x="167" y="443" type="line"/>
      <point x="191" y="492"/>
      <point x="248" y="532"/>
      <point x="323" y="532" type="curve" smooth="yes"/>
      <point x="390" y="532"/>
      <point x="449" y="504"/>
      <point x="476" y="434" type="curve"/>
      <point x="512" y="502"/>
      <point x="590" y="532"/>
      <point x="655" y="532" type="curve" smooth="yes"/>
      <point x="749" y="532"/>
      <point x="831" y="476"/>
      <point x="831" y="324" type="curve" smooth="yes"/>
      <point x="831" y="0" type="line"/>
      <point x="748" y="0" type="line"/>
      <point x="748" y="330" type="line" smooth="yes"/>
      <point x="748" y="422"/>
      <point x="709" y="460"/>
      <point x="637" y="460" type="curve" smooth="yes"/>
      <point x="569" y="460"/>
      <point x="499" y="414"/>
      <point x="499" y="320" type="curve" smooth="yes"/>
      <point x="499" y="0" type="line"/>
      <point x="416" y="0" type="line"/>
      <point x="416" y="330" type="line" smooth="yes"/>
      <point x="416" y="422"/>
      <point x="377" y="460"/>
      <point x="305" y="460" type="curve" smooth="yes"/>
      <point x="237" y="460"/>
      <point x="167" y="414"/>
      <point x="167" y="320" type="curve" smooth="yes"/>
      <point x="167" y="0" type="line"/>
    </contour>
  </outline>
</glyph>
<glyph name="v" format="2">
  <advance width="534"/>
  <unicode hex="0076"/>
  <outline>
    <contour>
      <point x="215" y="0" type="line"/>
      <point x="25" y="523" type="line"/>
      <point x="115" y="523" type="line"/>
      <point x="270" y="84" type="line"/>
      <point x="423" y="523" type="line"/>
      <point x="509" y="523" type="line"/>
      <point x="321" y="0" type="line"/>
    </contour>
  </outline>
</glyph>
<glyph name="x" format="2">
  <advance width="528"/>
  <unicode hex="0078"/>
  <outline>
    <contour>
      <point x="28" y="0" type="line"/>
      <point x="215" y="269" type="line"/>
      <point x="40" y="523" type="line"/>
      <point x="137" y="523" type="line"/>
      <point x="265" y="333" type="line"/>
      <point x="392" y="523" type="line"/>
      <point x="482" y="523" type="line"/>
      <point x="309" y="275" type="line"/>
      <point x="500" y="0" type="line"/>
      <point x="402" y="0" type="line"/>
      <point x="261" y="211" type="line"/>
      <point x="117" y="0" type="line"/>
    </contour>
  </outline>
</glyph>
<glyph name="braceleft" format="2">
  <advance width="381"/>
  <unicode hex="007B"/>
  <outline>
    <contour>
      <point x="337" y="-147" type="line"/>
      <point x="189" y="-147"/>
      <point x="112" y="-90"/>
      <point x="139" y="61" type="curve" smooth="yes"/>
      <point x="158" y="165" type="line" smooth="yes"/>
      <point x="169" y="224"/>
      <point x="142" y="285"/>
      <point x="40" y="285" type="curve"/>
      <point x="40" y="347" type="line"/>
      <point x="142" y="347"/>
      <point x="169" y="408"/>
      <point x="158" y="467" type="curve" smooth="yes"/>
      <point x="139" y="571" type="line" smooth="yes"/>
      <point x="112" y="722"/>
      <point x="189" y="779"/>
      <point x="337" y="779" type="curve"/>
      <point x="337" y="716" type="line"/>
      <point x="239" y="715"/>
      <point x="200" y="683"/>
      <point x="218" y="569" type="curve" smooth="yes"/>
      <point x="237" y="454" type="line" smooth="yes"/>
      <point x="249" y="379"/>
      <point x="206" y="333"/>
      <point x="139" y="316" type="curve"/>
      <point x="206" y="299"/>
      <point x="249" y="253"/>
      <point x="237" y="178" type="curve" smooth="yes"/>
      <point x="218" y="63" type="line" smooth="yes"/>
      <point x="200" y="-51"/>
      <point x="239" y="-83"/>
      <point x="337" y="-84" type="curve"/>
    </contour>
  </outline>
</glyph>
<glyph name="braceright" format="2">
  <advance width="381"/>
  <unicode hex="007D"/>
  <outline>
    <contour>
      <point x="44" y="-147" type="curve"/>
      <point x="44" y="-84" type="line"/>
      <point x="142" y="-83"/>
      <point x="181" y="-51"/>
      <point x="163" y="63" type="curve" smooth="yes"/>
      <point x="144" y="178" type="line" smooth="yes"/>
      <point x="132" y="253"/>
      <point x="175" y="299"/>
      <point x="242" y="316" type="curve"/>
      <point x="175" y="333"/>
      <point x="132" y="379"/>
      <point x="144" y="454" type="curve" smooth="yes"/>
      <point x="163" y="569" type="line" smooth="yes"/>
      <point x="181" y="683"/>
      <point x="142" y="715"/>
      <point x="44" y="716" type="curve"/>
      <point x="44" y="779" type="line"/>
      <point x="192" y="779"/>
      <point x="269" y="722"/>
      <point x="242" y="571" type="curve" smooth="yes"/>
      <point x="223" y="467" type="line" smooth="yes"/>
      <point x="212" y="408"/>
      <point x="239" y="347"/>
      <point x="341" y="347" type="curve"/>
      <point x="341" y="285" type="line"/>
      <point x="239" y="285"/>
      <point x="212" y="224"/>
      <point x="223" y="165" type="curve" smooth="yes"/>
      <point x="242" y="61" type="line" smooth="yes"/>
      <point x="269" y="-90"/>
      <point x="192" y="-147"/>
    </contour>
  </outline>
</glyph>
<glyph name="asciitilde" format="2">
  <advance width="445"/>
  <unicode hex="007E"/>
  <outline>
    <contour>
      <point x="44" y="223" type="line"/>
      <point x="51" y="310"/>
      <point x="100" y="351"/>
      <point x="150" y="351" type="curve" smooth="yes"/>
      <point x="216" y="351"/>
      <point x="257" y="300"/>
      <point x="290" y="300" type="curve" smooth="yes"/>
      <point x="311" y="300"/>
      <point x="332" y="317"/>
      <point x="335" y="353" type="curve"/>
      <point x="401" y="353" type="line"/>
      <point x="395" y="264"/>
      <point x="345" y="225"/>
      <point x="298" y="225" type="curve" smooth="yes"/>
      <point x="229" y="225"/>
      <point x="188" y="276"/>
      <point x="156" y="276" type="curve" smooth="yes"/>
      <point x="134" y="276"/>
      <point x="115" y="258"/>
      <point x="110" y="223" type="curve"/>
    </contour>
  </outline>
</glyph>
<glyph name="exclamdown" format="2">
  <advance width="288"/>
  <unicode hex="00A1"/>
  <outline>
    <contour>
      <point x="97" y="-117" type="line"/>
      <point x="111" y="396" type="line"/>
      <point x="175" y="396" type="line"/>
      <point x="189" y="-117" type="line"/>
    </contour>
    <contour>
      <point x="144" y="475" type="curve" smooth="yes"/>
      <point x="109" y="475"/>
      <point x="80" y="503"/>
      <point x="80" y="539" type="curve" smooth="yes"/>
      <point x="80" y="575"/>
      <point x="109" y="603"/>
      <point x="144" y="603" type="curve" smooth="yes"/>
      <point x="179" y="603"/>
      <point x="208" y="575"/>
      <point x="208" y="539" type="curve" smooth="yes"/>
      <point x="208" y="503"/>
      <point x="179" y="475"/>
    </contour>
  </outline>
</glyph>
<glyph name="cent" format="2">
  <advance width="565"/>
  <unicode hex="00A2"/>
  <outline>
    <contour>
      <point x="267" y="-135" type="line"/>
      <point x="267" y="-7" type="line"/>
      <point x="137" y="6"/>
      <point x="45" y="106"/>
      <point x="45" y="256" type="curve" smooth="yes"/>
      <point x="45" y="264" type="line" smooth="yes"/>
      <point x="45" y="412"/>
      <point x="141" y="515"/>
      <point x="267" y="530" type="curve"/>
      <point x="267" y="629" type="line"/>
      <point x="326" y="629" type="line"/>
      <point x="326" y="530" type="line"/>
      <point x="424" y="522"/>
      <point x="511" y="470"/>
      <point x="526" y="349" type="curve"/>
      <point x="444" y="349" type="line"/>
      <point x="433" y="420"/>
      <point x="385" y="453"/>
      <point x="326" y="461" type="curve"/>
      <point x="326" y="62" type="line"/>
      <point x="389" y="71"/>
      <point x="444" y="113"/>
      <point x="452" y="188" type="curve"/>
      <point x="529" y="188" type="line"/>
      <point x="519" y="83"/>
      <point x="438" y="3"/>
      <point x="326" y="-7" type="curve"/>
      <point x="326" y="-135" type="line"/>
    </contour>
    <contour>
      <point x="131" y="256" type="line" smooth="yes"/>
      <point x="131" y="142"/>
      <point x="184" y="76"/>
      <point x="267" y="62" type="curve"/>
      <point x="267" y="460" type="line"/>
      <point x="187" y="445"/>
      <point x="131" y="373"/>
      <point x="131" y="264" type="curve" smooth="yes"/>
    </contour>
  </outline>
</glyph>
<glyph name="sterling" format="2">
  <advance width="596"/>
  <unicode hex="00A3"/>
  <outline>
    <contour>
      <point x="48" y="315" type="line"/>
      <point x="48" y="377" type="line"/>
      <point x="113" y="377" type="line"/>
      <point x="103" y="419"/>
      <point x="95" y="465"/>
      <point x="95" y="518" type="curve" smooth="yes"/>
      <point x="95" y="640"/>
      <point x="191" y="724"/>
      <point x="315" y="724" type="curve" smooth="yes"/>
      <point x="443" y="724"/>
      <point x="520" y="649"/>
      <point x="529" y="535" type="curve"/>
      <point x="445" y="535" type="line"/>
      <point x="431" y="611"/>
      <point x="398" y="653"/>
      <point x="315" y="653" type="curve" smooth="yes"/>
      <point x="238" y="653"/>
      <point x="183" y="599"/>
      <point x="183" y="517" type="curve" smooth="yes"/>
      <point x="183" y="463"/>
      <point x="191" y="419"/>
      <point x="200" y="377" type="curve"/>
      <point x="413" y="377" type="line"/>
      <point x="413" y="315" type="line"/>
      <point x="214" y="315" type="line"/>
      <point x="222" y="275"/>
      <point x="229" y="233"/>
      <point x="229" y="183" type="curve" smooth="yes"/>
      <point x="229" y="159"/>
      <point x="224" y="137"/>
      <point x="216" y="118" type="curve"/>
      <point x="282" y="102"/>
      <point x="345" y="64"/>
      <point x="388" y="64" type="curve" smooth="yes"/>
      <point x="441" y="64"/>
      <point x="475" y="85"/>
      <point x="479" y="150" type="curve"/>
      <point x="552" y="150" type="line"/>
      <point x="546" y="58"/>
      <point x="492" y="-9"/>
      <point x="398" y="-9" type="curve" smooth="yes"/>
      <point x="310" y="-9"/>
      <point x="233" y="54"/>
      <point x="176" y="54" type="curve" smooth="yes"/>
      <point x="132" y="54"/>
      <point x="114" y="26"/>
      <point x="111" y="0" type="curve"/>
      <point x="38" y="0" type="line"/>
      <point x="42" y="45"/>
      <point x="72" y="109"/>
      <point x="141" y="122" type="curve"/>
      <point x="148" y="139"/>
      <point x="153" y="159"/>
      <point x="153" y="184" type="curve" smooth="yes"/>
      <point x="153" y="228"/>
      <point x="142" y="270"/>
      <point x="130" y="315" type="curve"/>
    </contour>
  </outline>
</glyph>
<glyph name="yen" format="2">
  <advance width="576"/>
  <unicode hex="00A5"/>
  <outline>
    <contour>
      <point x="84" y="281" type="line"/>
      <point x="84" y="339" type="line"/>
      <point x="240" y="339" type="line"/>
      <point x="28" y="715" type="line"/>
      <point x="122" y="715" type="line"/>
      <point x="297" y="391" type="line"/>
      <point x="464" y="715" type="line"/>
      <point x="548" y="715" type="line"/>
      <point x="348" y="339" type="line"/>
      <point x="505" y="339" type="line"/>
      <point x="505" y="281" type="line"/>
      <point x="337" y="281" type="line"/>
      <point x="337" y="203" type="line"/>
      <point x="505" y="203" type="line"/>
      <point x="505" y="145" type="line"/>
      <point x="337" y="145" type="line"/>
      <point x="337" y="0" type="line"/>
      <point x="252" y="0" type="line"/>
      <point x="252" y="145" type="line"/>
      <point x="84" y="145" type="line"/>
      <point x="84" y="203" type="line"/>
      <point x="252" y="203" type="line"/>
      <point x="252" y="281" type="line"/>
    </contour>
  </outline>
</glyph>
<glyph name="brokenbar" format="2">
  <advance width="260"/>
  <unicode hex="00A6"/>
  <outline>
    <contour>
      <point x="93" y="-148" type="line"/>
      <point x="93" y="297" type="line"/>
      <point x="160" y="297" type="line"/>
      <point x="160" y="-148" type="line"/>
    </contour>
    <contour>
      <point x="93" y="367" type="line"/>
      <point x="93" y="776" type="line"/>
      <point x="160" y="776" type="line"/>
      <point x="160" y="367" type="line"/>
    </contour>
  </outline>
</glyph>
<glyph name="section" format="2">
  <advance width="539"/>
  <unicode hex="00A7"/>
  <outline>
    <contour>
      <point x="266" y="-137" type="curve" smooth="yes"/>
      <point x="155" y="-137"/>
      <point x="80" y="-78"/>
      <point x="78" y="26" type="curve"/>
      <point x="163" y="26" type="line"/>
      <point x="168" y="-31"/>
      <point x="194" y="-67"/>
      <point x="264" y="-67" type="curve" smooth="yes"/>
      <point x="334" y="-67"/>
      <point x="366" y="-27"/>
      <point x="366" y="23" type="curve" smooth="yes"/>
      <point x="366" y="75"/>
      <point x="341" y="101"/>
      <point x="225" y="130" type="curve" smooth="yes"/>
      <point x="115" y="158"/>
      <point x="42" y="200"/>
      <point x="42" y="299" type="curve" smooth="yes"/>
      <point x="42" y="365"/>
      <point x="85" y="414"/>
      <point x="155" y="434" type="curve"/>
      <point x="115" y="462"/>
      <point x="94" y="499"/>
      <point x="94" y="561" type="curve" smooth="yes"/>
      <point x="94" y="656"/>
      <point x="180" y="724"/>
      <point x="272" y="724" type="curve" smooth="yes"/>
      <point x="381" y="724"/>
      <point x="452" y="668"/>
      <point x="455" y="567" type="curve"/>
      <point x="371" y="567" type="line"/>
      <point x="367" y="620"/>
      <point x="344" y="654"/>
      <point x="274" y="654" type="curve" smooth="yes"/>
      <point x="204" y="654"/>
      <point x="174" y="613"/>
      <point x="174" y="563" type="curve" smooth="yes"/>
      <point x="174" y="511"/>
      <point x="197" y="486"/>
      <point x="308" y="458" type="curve" smooth="yes"/>
      <point x="418" y="430"/>
      <point x="497" y="395"/>
      <point x="497" y="286" type="curve" smooth="yes"/>
      <point x="497" y="229"/>
      <point x="457" y="174"/>
      <point x="387" y="152" type="curve"/>
      <point x="425" y="124"/>
      <point x="446" y="85"/>
      <point x="446" y="25" type="curve" smooth="yes"/>
      <point x="446" y="-65"/>
      <point x="366" y="-137"/>
    </contour>
    <contour>
      <point x="326" y="185" type="line"/>
      <point x="387" y="200"/>
      <point x="415" y="233"/>
      <point x="415" y="279" type="curve" smooth="yes"/>
      <point x="415" y="337"/>
      <point x="370" y="359"/>
      <point x="290" y="380" type="curve" smooth="yes"/>
      <point x="211" y="401" type="line"/>
      <point x="159" y="390"/>
      <point x="124" y="355"/>
      <point x="124" y="306" type="curve" smooth="yes"/>
      <point x="124" y="253"/>
      <point x="167" y="229"/>
      <point x="251" y="206" type="curve" smooth="yes"/>
    </contour>
  </outline>
</glyph>
<glyph name="dieresis" format="2">
  <advance width="400"/>
  <unicode hex="00A8"/>
  <outline>
    <contour>
      <point x="106" y="634" type="curve" smooth="yes"/>
      <point x="77" y="634"/>
      <point x="53" y="658"/>
      <point x="53" y="687" type="curve" smooth="yes"/>
      <point x="53" y="716"/>
      <point x="77" y="740"/>
      <point x="106" y="740" type="curve" smooth="yes"/>
      <point x="135" y="740"/>
      <point x="159" y="716"/>
      <point x="159" y="687" type="curve" smooth="yes"/>
      <point x="159" y="658"/>
      <point x="135" y="634"/>
    </contour>
    <contour>
      <point x="294" y="634" type="curve" smooth="yes"/>
      <point x="265" y="634"/>
      <point x="241" y="658"/>
      <point x="241" y="687" type="curve" smooth="yes"/>
      <point x="241" y="716"/>
      <point x="265" y="740"/>
      <point x="294" y="740" type="curve" smooth="yes"/>
      <point x="323" y="740"/>
      <point x="347" y="716"/>
      <point x="347" y="687" type="curve" smooth="yes"/>
      <point x="347" y="658"/>
      <point x="323" y="634"/>
    </contour>
  </outline>
</glyph>
<glyph name="copyright" format="2">
  <advance width="844"/>
  <unicode hex="00A9"/>
  <outline>
    <contour>
      <point x="423" y="155" type="curve" smooth="yes"/>
      <point x="302" y="155"/>
      <point x="231" y="232"/>
      <point x="231" y="353" type="curve" smooth="yes"/>
      <point x="231" y="361" type="line" smooth="yes"/>
      <point x="231" y="480"/>
      <point x="312" y="560"/>
      <point x="423" y="560" type="curve" smooth="yes"/>
      <point x="513" y="560"/>
      <point x="584" y="515"/>
      <point x="592" y="422" type="curve"/>
      <point x="516" y="422" type="line"/>
      <point x="508" y="473"/>
      <point x="478" y="500"/>
      <point x="423" y="500" type="curve" smooth="yes"/>
      <point x="354" y="500"/>
      <point x="310" y="449"/>
      <point x="310" y="361" type="curve" smooth="yes"/>
      <point x="310" y="354" type="line" smooth="yes"/>
      <point x="310" y="266"/>
      <point x="351" y="216"/>
      <point x="423" y="216" type="curve" smooth="yes"/>
      <point x="477" y="216"/>
      <point x="516" y="243"/>
      <point x="524" y="299" type="curve"/>
      <point x="596" y="299" type="line"/>
      <point x="586" y="203"/>
      <point x="517" y="155"/>
    </contour>
    <contour>
      <point x="421" y="33" type="curve" smooth="yes"/>
      <point x="591" y="33"/>
      <point x="741" y="166"/>
      <point x="741" y="359" type="curve" smooth="yes"/>
      <point x="741" y="549"/>
      <point x="596" y="682"/>
      <point x="423" y="682" type="curve" smooth="yes"/>
      <point x="248" y="682"/>
      <point x="103" y="548"/>
      <point x="103" y="357" type="curve" smooth="yes"/>
      <point x="103" y="164"/>
      <point x="254" y="33"/>
    </contour>
    <contour>
      <point x="421" y="-9" type="curve" smooth="yes"/>
      <point x="218" y="-9"/>
      <point x="55" y="150"/>
      <point x="55" y="357" type="curve" smooth="yes"/>
      <point x="55" y="561"/>
      <point x="217" y="724"/>
      <point x="423" y="724" type="curve" smooth="yes"/>
      <point x="631" y="724"/>
      <point x="789" y="562"/>
      <point x="789" y="359" type="curve" smooth="yes"/>
      <point x="789" y="151"/>
      <point x="627" y="-9"/>
    </contour>
  </outline>
</glyph>
<glyph name="ordfeminine" format="2">
  <advance width="419"/>
  <unicode hex="00AA"/>
  <outline>
    <contour>
      <point x="170" y="290" type="curve" smooth="yes"/>
      <point x="93" y="290"/>
      <point x="30" y="328"/>
      <point x="30" y="414" type="curve" smooth="yes"/>
      <point x="30" y="511"/>
      <point x="129" y="545"/>
      <point x="242" y="545" type="curve" smooth="yes"/>
      <point x="300" y="545" type="line"/>
      <point x="300" y="571" type="line" smooth="yes"/>
      <point x="300" y="633"/>
      <point x="276" y="661"/>
      <point x="215" y="661" type="curve" smooth="yes"/>
      <point x="160" y="661"/>
      <point x="132" y="637"/>
      <point x="125" y="593" type="curve"/>
      <point x="48" y="593" type="line"/>
      <point x="56" y="686"/>
      <point x="132" y="724"/>
      <point x="219" y="724" type="curve" smooth="yes"/>
      <point x="306" y="724"/>
      <point x="378" y="689"/>
      <point x="378" y="572" type="curve" smooth="yes"/>
      <point x="378" y="298" type="line"/>
      <point x="300" y="298" type="line"/>
      <point x="300" y="350" type="line"/>
      <point x="271" y="312"/>
      <point x="233" y="290"/>
    </contour>
    <contour>
      <point x="184" y="351" type="curve" smooth="yes"/>
      <point x="250" y="351"/>
      <point x="300" y="384"/>
      <point x="300" y="445" type="curve" smooth="yes"/>
      <point x="300" y="491" type="line"/>
      <point x="244" y="491" type="line" smooth="yes"/>
      <point x="165" y="491"/>
      <point x="109" y="472"/>
      <point x="109" y="416" type="curve" smooth="yes"/>
      <point x="109" y="375"/>
      <point x="129" y="351"/>
    </contour>
  </outline>
</glyph>
<glyph name="guillemotleft" format="2">
  <advance width="500"/>
  <unicode hex="00AB"/>
  <outline>
    <contour>
      <point x="189" y="83" type="line"/>
      <point x="59" y="261" type="line"/>
      <point x="189" y="439" type="line"/>
      <point x="271" y="439" type="line"/>
      <point x="146" y="261" type="line"/>
      <point x="271" y="83" type="line"/>
    </contour>
    <contour>
      <point x="367" y="83" type="line"/>
      <point x="237" y="261" type="line"/>
      <point x="367" y="439" type="line"/>
      <point x="449" y="439" type="line"/>
      <point x="324" y="261" type="line"/>
      <point x="449" y="83" type="line"/>
    </contour>
  </outline>
</glyph>
<glyph name="registered" format="2">
  <advance width="514"/>
  <unicode hex="00AE"/>
  <outline>
    <contour>
      <point x="181" y="396" type="line"/>
      <point x="181" y="615" type="line"/>
      <point x="258" y="615" type="line" smooth="yes"/>
      <point x="309" y="615"/>
      <point x="342" y="594"/>
      <point x="342" y="549" type="curve" smooth="yes"/>
      <point x="342" y="548" type="line" smooth="yes"/>
      <point x="342" y="515"/>
      <point x="323" y="497"/>
      <point x="297" y="489" type="curve"/>
      <point x="355" y="396" type="line"/>
      <point x="305" y="396" type="line"/>
      <point x="252" y="481" type="line"/>
      <point x="229" y="481" type="line"/>
      <point x="229" y="396" type="line"/>
    </contour>
    <contour>
      <point x="229" y="514" type="line"/>
      <point x="257" y="514" type="line" smooth="yes"/>
      <point x="282" y="514"/>
      <point x="295" y="525"/>
      <point x="295" y="546" type="curve" smooth="yes"/>
      <point x="295" y="547" type="line" smooth="yes"/>
      <point x="295" y="570"/>
      <point x="281" y="578"/>
      <point x="257" y="578" type="curve" smooth="yes"/>
      <point x="229" y="578" type="line"/>
    </contour>
    <contour>
      <point x="257" y="318" type="curve" smooth="yes"/>
      <point x="360" y="318"/>
      <point x="439" y="394"/>
      <point x="439" y="503" type="curve" smooth="yes"/>
      <point x="439" y="612"/>
      <point x="363" y="688"/>
      <point x="257" y="688" type="curve" smooth="yes"/>
      <point x="151" y="688"/>
      <point x="75" y="611"/>
      <point x="75" y="502" type="curve" smooth="yes"/>
      <point x="75" y="392"/>
      <point x="155" y="318"/>
    </contour>
    <contour>
      <point x="257" y="282" type="curve" smooth="yes"/>
      <point x="134" y="282"/>
      <point x="35" y="377"/>
      <point x="35" y="502" type="curve" smooth="yes"/>
      <point x="35" y="625"/>
      <point x="133" y="724"/>
      <point x="257" y="724" type="curve" smooth="yes"/>
      <point x="383" y="724"/>
      <point x="479" y="626"/>
      <point x="479" y="503" type="curve" smooth="yes"/>
      <point x="479" y="378"/>
      <point x="381" y="282"/>
    </contour>
  </outline>
</glyph>
<glyph name="macron" format="2">
  <advance width="400"/>
  <unicode hex="00AF"/>
  <outline>
    <contour>
      <point x="69" y="648" type="line"/>
      <point x="69" y="712" type="line"/>
      <point x="331" y="712" type="line"/>
      <point x="331" y="648" type="line"/>
    </contour>
  </outline>
</glyph>
<glyph name="degree" format="2">
  <advance width="427"/>
  <unicode hex="00B0"/>
  <outline>
    <contour>
      <point x="214" y="464" type="curve" smooth="yes"/>
      <point x="267" y="464"/>
      <point x="303" y="508"/>
      <point x="303" y="564" type="curve" smooth="yes"/>
      <point x="303" y="622"/>
      <point x="267" y="666"/>
      <point x="214" y="666" type="curve" smooth="yes"/>
      <point x="160" y="666"/>
      <point x="121" y="622"/>
      <point x="121" y="564" type="curve" smooth="yes"/>
      <point x="121" y="508"/>
      <point x="160" y="464"/>
    </contour>
    <contour>
      <point x="214" y="406" type="curve" smooth="yes"/>
      <point x="123" y="406"/>
      <point x="50" y="478"/>
      <point x="50" y="564" type="curve" smooth="yes"/>
      <point x="50" y="652"/>
      <point x="123" y="724"/>
      <point x="214" y="724" type="curve" smooth="yes"/>
      <point x="304" y="724"/>
      <point x="377" y="652"/>
      <point x="377" y="564" type="curve" smooth="yes"/>
      <point x="377" y="478"/>
      <point x="304" y="406"/>
    </contour>
  </outline>
</glyph>
<glyph name="plusminus" format="2">
  <advance width="519"/>
  <unicode hex="00B1"/>
  <outline>
    <contour>
      <point x="223" y="145" type="line"/>
      <point x="223" y="327" type="line"/>
      <point x="36" y="327" type="line"/>
      <point x="36" y="397" type="line"/>
      <point x="223" y="397" type="line"/>
      <point x="223" y="579" type="line"/>
      <point x="296" y="579" type="line"/>
      <point x="296" y="397" type="line"/>
      <point x="483" y="397" type="line"/>
      <point x="483" y="327" type="line"/>
      <point x="296" y="327" type="line"/>
      <point x="296" y="145" type="line"/>
    </contour>
    <contour>
      <point x="36" y="0" type="line"/>
      <point x="36" y="70" type="line"/>
      <point x="483" y="70" type="line"/>
      <point x="483" y="0" type="line"/>
    </contour>
  </outline>
</glyph>
<glyph name="threesuperior" format="2">
  <advance width="311"/>
  <unicode hex="00B3"/>
  <outline>
    <contour>
      <point x="152" y="368" type="curve" smooth="yes"/>
      <point x="69" y="368"/>
      <point x="23" y="412"/>
      <point x="21" y="479" type="curve"/>
      <point x="82" y="479" type="line"/>
      <point x="86" y="444"/>
      <point x="105" y="418"/>
      <point x="150" y="418" type="curve" smooth="yes"/>
      <point x="193" y="418"/>
      <point x="213" y="439"/>
      <point x="213" y="472" type="curve" smooth="yes"/>
      <point x="213" y="508"/>
      <point x="193" y="526"/>
      <point x="153" y="526" type="curve" smooth="yes"/>
      <point x="127" y="526" type="line"/>
      <point x="127" y="573" type="line"/>
      <point x="152" y="573" type="line" smooth="yes"/>
      <point x="190" y="573"/>
      <point x="208" y="591"/>
      <point x="208" y="622" type="curve" smooth="yes"/>
      <point x="208" y="649"/>
      <point x="191" y="669"/>
      <point x="156" y="669" type="curve" smooth="yes"/>
      <point x="121" y="669"/>
      <point x="98" y="648"/>
      <point x="94" y="614" type="curve"/>
      <point x="33" y="614" type="line"/>
      <point x="37" y="675"/>
      <point x="83" y="719"/>
      <point x="157" y="719" type="curve" smooth="yes"/>
      <point x="230" y="719"/>
      <point x="272" y="679"/>
      <point x="272" y="627" type="curve" smooth="yes"/>
      <point x="272" y="589"/>
      <point x="249" y="565"/>
      <point x="215" y="553" type="curve"/>
      <point x="255" y="544"/>
      <point x="282" y="516"/>
      <point x="282" y="471" type="curve" smooth="yes"/>
      <point x="282" y="407"/>
      <point x="232" y="368"/>
    </contour>
  </outline>
</glyph>
<glyph name="paragraph" format="2">
  <advance width="588"/>
  <unicode hex="00B6"/>
  <outline>
    <contour>
      <point x="276" y="-100" type="line"/>
      <point x="276" y="346" type="line"/>
      <point x="262" y="346" type="line" smooth="yes"/>
      <point x="135" y="346"/>
      <point x="45" y="406"/>
      <point x="45" y="527" type="curve" smooth="yes"/>
      <point x="45" y="654"/>
      <point x="139" y="715"/>
      <point x="262" y="715" type="curve" smooth="yes"/>
      <point x="494" y="715" type="line"/>
      <point x="494" y="-100" type="line"/>
      <point x="425" y="-100" type="line"/>
      <point x="425" y="658" type="line"/>
      <point x="344" y="658" type="line"/>
      <point x="344" y="-100" type="line"/>
    </contour>
  </outline>
</glyph>
<glyph name="periodcentered" format="2">
  <advance width="282"/>
  <unicode hex="00B7"/>
  <outline>
    <contour>
      <point x="141" y="263" type="curve" smooth="yes"/>
      <point x="106" y="263"/>
      <point x="77" y="291"/>
      <point x="77" y="327" type="curve" smooth="yes"/>
      <point x="77" y="363"/>
      <point x="106" y="391"/>
      <point x="141" y="391" type="curve" smooth="yes"/>
      <point x="176" y="391"/>
      <point x="205" y="363"/>
      <point x="205" y="327" type="curve" smooth="yes"/>
      <point x="205" y="291"/>
      <point x="176" y="263"/>
    </contour>
  </outline>
</glyph>
<glyph name="cedilla" format="2">
  <advance width="400"/>
  <unicode hex="00B8"/>
  <outline>
    <contour>
      <point x="208" y="-214" type="curve" smooth="yes"/>
      <point x="150" y="-214"/>
      <point x="112" y="-180"/>
      <point x="108" y="-130" type="curve"/>
      <point x="162" y="-130" type="line"/>
      <point x="166" y="-149"/>
      <point x="180" y="-166"/>
      <point x="205" y="-166" type="curve" smooth="yes"/>
      <point x="230" y="-166"/>
      <point x="245" y="-151"/>
      <point x="245" y="-130" type="curve" smooth="yes"/>
      <point x="245" y="-109"/>
      <point x="230" y="-96"/>
      <point x="209" y="-96" type="curve" smooth="yes"/>
      <point x="196" y="-96"/>
      <point x="186" y="-101"/>
      <point x="181" y="-104" type="curve"/>
      <point x="149" y="-76" type="line"/>
      <point x="191" y="0" type="line"/>
      <point x="244" y="0" type="line"/>
      <point x="215" y="-53" type="line"/>
      <point x="261" y="-47"/>
      <point x="309" y="-73"/>
      <point x="309" y="-134" type="curve" smooth="yes"/>
      <point x="309" y="-188"/>
      <point x="262" y="-214"/>
    </contour>
  </outline>
</glyph>
<glyph name="onesuperior" format="2">
  <advance width="231"/>
  <unicode hex="00B9"/>
  <outline>
    <contour>
      <point x="105" y="373" type="line"/>
      <point x="105" y="649" type="line"/>
      <point x="24" y="595" type="line"/>
      <point x="24" y="654" type="line"/>
      <point x="113" y="715" type="line"/>
      <point x="173" y="715" type="line"/>
      <point x="173" y="373" type="line"/>
    </contour>
  </outline>
</glyph>
<glyph name="ordmasculine" format="2">
  <advance width="493"/>
  <unicode hex="00BA"/>
  <outline>
    <contour>
      <point x="247" y="354" type="curve" smooth="yes"/>
      <point x="326" y="354"/>
      <point x="374" y="414"/>
      <point x="374" y="504" type="curve" smooth="yes"/>
      <point x="374" y="510" type="line" smooth="yes"/>
      <point x="374" y="601"/>
      <point x="325" y="660"/>
      <point x="247" y="660" type="curve" smooth="yes"/>
      <point x="168" y="660"/>
      <point x="119" y="601"/>
      <point x="119" y="510" type="curve" smooth="yes"/>
      <point x="119" y="504" type="line" smooth="yes"/>
      <point x="119" y="413"/>
      <point x="167" y="354"/>
    </contour>
    <contour>
      <point x="246" y="290" type="curve" smooth="yes"/>
      <point x="125" y="290"/>
      <point x="37" y="379"/>
      <point x="37" y="503" type="curve" smooth="yes"/>
      <point x="37" y="509" type="line" smooth="yes"/>
      <point x="37" y="637"/>
      <point x="126" y="724"/>
      <point x="247" y="724" type="curve" smooth="yes"/>
      <point x="367" y="724"/>
      <point x="456" y="638"/>
      <point x="456" y="511" type="curve" smooth="yes"/>
      <point x="456" y="505" type="line" smooth="yes"/>
      <point x="456" y="376"/>
      <point x="367" y="290"/>
    </contour>
  </outline>
</glyph>
<glyph name="guillemotright" format="2">
  <advance width="500"/>
  <unicode hex="00BB"/>
  <outline>
    <contour>
      <point x="51" y="83" type="line"/>
      <point x="176" y="261" type="line"/>
      <point x="51" y="439" type="line"/>
      <point x="133" y="439" type="line"/>
      <point x="263" y="261" type="line"/>
      <point x="133" y="83" type="line"/>
    </contour>
    <contour>
      <point x="229" y="83" type="line"/>
      <point x="354" y="261" type="line"/>
      <point x="229" y="439" type="line"/>
      <point x="311" y="439" type="line"/>
      <point x="441" y="261" type="line"/>
      <point x="311" y="83" type="line"/>
    </contour>
  </outline>
</glyph>
<glyph name="onequarter" format="2">
  <advance width="678"/>
  <unicode hex="00BC"/>
  <outline>
    <contour>
      <point x="108" y="373" type="line"/>
      <point x="108" y="649" type="line"/>
      <point x="27" y="595" type="line"/>
      <point x="27" y="654" type="line"/>
      <point x="116" y="715" type="line"/>
      <point x="176" y="715" type="line"/>
      <point x="176" y="373" type="line"/>
    </contour>
    <contour>
      <point x="49" y="0" type="line"/>
      <point x="556" y="715" type="line"/>
      <point x="622" y="715" type="line"/>
      <point x="115" y="0" type="line"/>
    </contour>
    <contour>
      <point x="546" y="0" type="line"/>
      <point x="546" y="69" type="line"/>
      <point x="374" y="69" type="line"/>
      <point x="374" y="93" type="line"/>
      <point x="527" y="342" type="line"/>
      <point x="610" y="342" type="line"/>
      <point x="610" y="118" type="line"/>
      <point x="655" y="118" type="line"/>
      <point x="655" y="69" type="line"/>
      <point x="610" y="69" type="line"/>
      <point x="610" y="0" type="line"/>
    </contour>
    <contour>
      <point x="446" y="118" type="line"/>
      <point x="547" y="118" type="line"/>
      <point x="547" y="291" type="line"/>
    </contour>
  </outline>
</glyph>
<glyph name="onehalf" format="2">
  <advance width="677"/>
  <unicode hex="00BD"/>
  <outline>
    <contour>
      <point x="108" y="373" type="line"/>
      <point x="108" y="649" type="line"/>
      <point x="27" y="595" type="line"/>
      <point x="27" y="654" type="line"/>
      <point x="116" y="715" type="line"/>
      <point x="176" y="715" type="line"/>
      <point x="176" y="373" type="line"/>
    </contour>
    <contour>
      <point x="36" y="0" type="line"/>
      <point x="543" y="715" type="line"/>
      <point x="609" y="715" type="line"/>
      <point x="102" y="0" type="line"/>
    </contour>
    <contour>
      <point x="395" y="0" type="line"/>
      <point x="395" y="11" type="line"/>
      <point x="523" y="147" type="line" smooth="yes"/>
      <point x="556" y="181"/>
      <point x="577" y="212"/>
      <point x="577" y="244" type="curve" smooth="yes"/>
      <point x="577" y="275"/>
      <point x="559" y="294"/>
      <point x="527" y="294" type="curve" smooth="yes"/>
      <point x="494" y="294"/>
      <point x="473" y="275"/>
      <point x="467" y="228" type="curve"/>
      <point x="406" y="228" type="line"/>
      <point x="410" y="303"/>
      <point x="456" y="346"/>
      <point x="529" y="346" type="curve" smooth="yes"/>
      <point x="601" y="346"/>
      <point x="643" y="306"/>
      <point x="643" y="245" type="curve" smooth="yes"/>
      <point x="643" y="200"/>
      <point x="617" y="162"/>
      <point x="577" y="123" type="curve" smooth="yes"/>
      <point x="504" y="51" type="line"/>
      <point x="646" y="51" type="line"/>
      <point x="646" y="0" type="line"/>
    </contour>
  </outline>
</glyph>
<glyph name="threequarters" format="2">
  <advance width="681"/>
  <unicode hex="00BE"/>
  <outline>
    <contour>
      <point x="155" y="368" type="curve" smooth="yes"/>
      <point x="72" y="368"/>
      <point x="26" y="412"/>
      <point x="24" y="479" type="curve"/>
      <point x="85" y="479" type="line"/>
      <point x="89" y="444"/>
      <point x="108" y="418"/>
      <point x="153" y="418" type="curve" smooth="yes"/>
      <point x="196" y="418"/>
      <point x="216" y="439"/>
      <point x="216" y="472" type="curve" smooth="yes"/>
      <point x="216" y="508"/>
      <point x="196" y="526"/>
      <point x="156" y="526" type="curve" smooth="yes"/>
      <point x="130" y="526" type="line"/>
      <point x="130" y="573" type="line"/>
      <point x="155" y="573" type="line" smooth="yes"/>
      <point x="193" y="573"/>
      <point x="211" y="591"/>
      <point x="211" y="622" type="curve" smooth="yes"/>
      <point x="211" y="649"/>
      <point x="194" y="669"/>
      <point x="159" y="669" type="curve" smooth="yes"/>
      <point x="124" y="669"/>
      <point x="101" y="648"/>
      <point x="97" y="614" type="curve"/>
      <point x="36" y="614" type="line"/>
      <point x="40" y="675"/>
      <point x="86" y="719"/>
      <point x="160" y="719" type="curve" smooth="yes"/>
      <point x="233" y="719"/>
      <point x="275" y="679"/>
      <point x="275" y="627" type="curve" smooth="yes"/>
      <point x="275" y="589"/>
      <point x="252" y="565"/>
      <point x="218" y="553" type="curve"/>
      <point x="258" y="544"/>
      <point x="285" y="516"/>
      <point x="285" y="471" type="curve" smooth="yes"/>
      <point x="285" y="407"/>
      <point x="235" y="368"/>
    </contour>
    <contour>
      <point x="85" y="0" type="line"/>
      <point x="592" y="715" type="line"/>
      <point x="658" y="715" type="line"/>
      <point x="151" y="0" type="line"/>
    </contour>
    <contour>
      <point x="546" y="0" type="line"/>
      <point x="546" y="69" type="line"/>
      <point x="374" y="69" type="line"/>
      <point x="374" y="93" type="line"/>
      <point x="527" y="342" type="line"/>
      <point x="610" y="342" type="line"/>
      <point x="610" y="118" type="line"/>
      <point x="655" y="118" type="line"/>
      <point x="655" y="69" type="line"/>
      <point x="610" y="69" type="line"/>
      <point x="610" y="0" type="line"/>
    </contour>
    <contour>
      <point x="446" y="118" type="line"/>
      <point x="547" y="118" type="line"/>
      <point x="547" y="291" type="line"/>
    </contour>
  </outline>
</glyph>
<glyph name="questiondown" format="2">
  <advance width="489"/>
  <unicode hex="00BF"/>
  <outline>
    <contour>
      <point x="310" y="396" type="line"/>
      <point x="310" y="346" type="line" smooth="yes"/>
      <point x="310" y="265"/>
      <point x="257" y="215"/>
      <point x="207" y="166" type="curve" smooth="yes"/>
      <point x="168" y="127"/>
      <point x="134" y="91"/>
      <point x="134" y="43" type="curve" smooth="yes"/>
      <point x="134" y="-16"/>
      <point x="167" y="-57"/>
      <point x="241" y="-57" type="curve" smooth="yes"/>
      <point x="316" y="-57"/>
      <point x="367" y="-6"/>
      <point x="374" y="73" type="curve"/>
      <point x="452" y="73" type="line"/>
      <point x="445" y="-44"/>
      <point x="362" y="-126"/>
      <point x="240" y="-126" type="curve" smooth="yes"/>
      <point x="104" y="-126"/>
      <point x="50" y="-44"/>
      <point x="50" y="40" type="curve" smooth="yes"/>
      <point x="50" y="114"/>
      <point x="100" y="161"/>
      <point x="148" y="207" type="curve" smooth="yes"/>
      <point x="193" y="250"/>
      <point x="236" y="292"/>
      <point x="236" y="353" type="curve" smooth="yes"/>
      <point x="236" y="396" type="line"/>
    </contour>
    <contour>
      <point x="275" y="603" type="curve" smooth="yes"/>
      <point x="310" y="603"/>
      <point x="339" y="575"/>
      <point x="339" y="539" type="curve" smooth="yes"/>
      <point x="339" y="503"/>
      <point x="310" y="475"/>
      <point x="275" y="475" type="curve" smooth="yes"/>
      <point x="240" y="475"/>
      <point x="211" y="503"/>
      <point x="211" y="539" type="curve" smooth="yes"/>
      <point x="211" y="575"/>
      <point x="240" y="603"/>
    </contour>
  </outline>
</glyph>
<glyph name="Aacute" format="2">
  <advance width="674"/>
  <unicode hex="00C1"/>
  <outline>
    <contour>
      <point x="36" y="0" type="line"/>
      <point x="282" y="715" type="line"/>
      <point x="396" y="715" type="line"/>
      <point x="638" y="0" type="line"/>
      <point x="552" y="0" type="line"/>
      <point x="482" y="206" type="line"/>
      <point x="187" y="206" type="line"/>
      <point x="118" y="0" type="line"/>
    </contour>
    <contour>
      <point x="335" y="643" type="line"/>
      <point x="211" y="275" type="line"/>
      <point x="459" y="275" type="line"/>
    </contour>
    <contour>
      <point x="300" y="771" type="line"/>
      <point x="356" y="898" type="line"/>
      <point x="460" y="898" type="line"/>
      <point x="362" y="771" type="line"/>
    </contour>
  </outline>
</glyph>
<glyph name="Atilde" format="2">
  <advance width="674"/>
  <unicode hex="00C3"/>
  <outline>
    <contour>
      <point x="36" y="0" type="line"/>
      <point x="282" y="715" type="line"/>
      <point x="396" y="715" type="line"/>
      <point x="638" y="0" type="line"/>
      <point x="552" y="0" type="line"/>
      <point x="482" y="206" type="line"/>
      <point x="187" y="206" type="line"/>
      <point x="118" y="0" type="line"/>
    </contour>
    <contour>
      <point x="335" y="643" type="line"/>
      <point x="211" y="275" type="line"/>
      <point x="459" y="275" type="line"/>
    </contour>
    <contour>
      <point x="391" y="774" type="curve" smooth="yes"/>
      <point x="348" y="774"/>
      <point x="312" y="817"/>
      <point x="283" y="817" type="curve" smooth="yes"/>
      <point x="264" y="817"/>
      <point x="248" y="798"/>
      <point x="243" y="772" type="curve"/>
      <point x="183" y="772" type="line"/>
      <point x="191" y="843"/>
      <point x="232" y="888"/>
      <point x="284" y="888" type="curve" smooth="yes"/>
      <point x="326" y="888"/>
      <point x="362" y="845"/>
      <point x="391" y="845" type="curve" smooth="yes"/>
      <point x="410" y="845"/>
      <point x="426" y="864"/>
      <point x="431" y="890" type="curve"/>
      <point x="491" y="890" type="line"/>
      <point x="483" y="819"/>
      <point x="442" y="774"/>
    </contour>
  </outline>
</glyph>
<glyph name="Adieresis" format="2">
  <advance width="674"/>
  <unicode hex="00C4"/>
  <outline>
    <contour>
      <point x="36" y="0" type="line"/>
      <point x="282" y="715" type="line"/>
      <point x="396" y="715" type="line"/>
      <point x="638" y="0" type="line"/>
      <point x="552" y="0" type="line"/>
      <point x="482" y="206" type="line"/>
      <point x="187" y="206" type="line"/>
      <point x="118" y="0" type="line"/>
    </contour>
    <contour>
      <point x="335" y="643" type="line"/>
      <point x="211" y="275" type="line"/>
      <point x="459" y="275" type="line"/>
    </contour>
    <contour>
      <point x="235" y="789" type="curve" smooth="yes"/>
      <point x="206" y="789"/>
      <point x="182" y="813"/>
      <point x="182" y="842" type="curve" smooth="yes"/>
      <point x="182" y="871"/>
      <point x="206" y="895"/>
      <point x="235" y="895" type="curve" smooth="yes"/>
      <point x="264" y="895"/>
      <point x="288" y="871"/>
      <point x="288" y="842" type="curve" smooth="yes"/>
      <point x="288" y="813"/>
      <point x="264" y="789"/>
    </contour>
    <contour>
      <point x="438" y="789" type="curve" smooth="yes"/>
      <point x="409" y="789"/>
      <point x="385" y="813"/>
      <point x="385" y="842" type="curve" smooth="yes"/>
      <point x="385" y="871"/>
      <point x="409" y="895"/>
      <point x="438" y="895" type="curve" smooth="yes"/>
      <point x="467" y="895"/>
      <point x="491" y="871"/>
      <point x="491" y="842" type="curve" smooth="yes"/>
      <point x="491" y="813"/>
      <point x="467" y="789"/>
    </contour>
  </outline>
</glyph>
<glyph name="Aring" format="2">
  <advance width="674"/>
  <unicode hex="00C5"/>
  <outline>
    <contour>
      <point x="36" y="0" type="line"/>
      <point x="282" y="715" type="line"/>
      <point x="396" y="715" type="line"/>
      <point x="638" y="0" type="line"/>
      <point x="552" y="0" type="line"/>
      <point x="482" y="206" type="line"/>
      <point x="187" y="206" type="line"/>
      <point x="118" y="0" type="line"/>
    </contour>
    <contour>
      <point x="335" y="643" type="line"/>
      <point x="211" y="275" type="line"/>
      <point x="459" y="275" type="line"/>
    </contour>
    <contour>
      <point x="337" y="759" type="curve" smooth="yes"/>
      <point x="278" y="759"/>
      <point x="230" y="806"/>
      <point x="230" y="863" type="curve" smooth="yes"/>
      <point x="230" y="920"/>
      <point x="278" y="967"/>
      <point x="337" y="967" type="curve" smooth="yes"/>
      <point x="396" y="967"/>
      <point x="444" y="920"/>
      <point x="444" y="863" type="curve" smooth="yes"/>
      <point x="444" y="806"/>
      <point x="396" y="759"/>
    </contour>
    <contour>
      <point x="337" y="805" type="curve" smooth="yes"/>
      <point x="368" y="805"/>
      <point x="390" y="830"/>
      <point x="390" y="863" type="curve" smooth="yes"/>
      <point x="390" y="896"/>
      <point x="368" y="921"/>
      <point x="337" y="921" type="curve" smooth="yes"/>
      <point x="306" y="921"/>
      <point x="284" y="896"/>
      <point x="284" y="863" type="curve" smooth="yes"/>
      <point x="284" y="830"/>
      <point x="306" y="805"/>
    </contour>
  </outline>
</glyph>
<glyph name="AE" format="2">
  <advance width="950"/>
  <unicode hex="00C6"/>
  <outline>
    <contour>
      <point x="29" y="0" type="line"/>
      <point x="399" y="715" type="line"/>
      <point x="891" y="715" type="line"/>
      <point x="891" y="644" type="line"/>
      <point x="561" y="644" type="line"/>
      <point x="561" y="401" type="line"/>
      <point x="827" y="401" type="line"/>
      <point x="827" y="330" type="line"/>
      <point x="561" y="330" type="line"/>
      <point x="561" y="71" type="line"/>
      <point x="909" y="71" type="line"/>
      <point x="909" y="0" type="line"/>
      <point x="474" y="0" type="line"/>
      <point x="474" y="207" type="line"/>
      <point x="222" y="207" type="line"/>
      <point x="117" y="0" type="line"/>
    </contour>
    <contour>
      <point x="443" y="644" type="line"/>
      <point x="256" y="275" type="line"/>
      <point x="474" y="275" type="line"/>
      <point x="474" y="644" type="line"/>
    </contour>
  </outline>
</glyph>
<glyph name="Ccedilla" format="2">
  <advance width="730"/>
  <unicode hex="00C7"/>
  <outline>
    <contour>
      <point x="381" y="-214" type="curve" smooth="yes"/>
      <point x="323" y="-214"/>
      <point x="285" y="-180"/>
      <point x="281" y="-130" type="curve"/>
      <point x="335" y="-130" type="line"/>
      <point x="339" y="-149"/>
      <point x="353" y="-166"/>
      <point x="378" y="-166" type="curve" smooth="yes"/>
      <point x="403" y="-166"/>
      <point x="418" y="-151"/>
      <point x="418" y="-130" type="curve" smooth="yes"/>
      <point x="418" y="-109"/>
      <point x="403" y="-96"/>
      <point x="382" y="-96" type="curve" smooth="yes"/>
      <point x="369" y="-96"/>
      <point x="359" y="-101"/>
      <point x="354" y="-104" type="curve"/>
      <point x="322" y="-76" type="line"/>
      <point x="359" y="-8" type="line"/>
      <point x="170" y="5"/>
      <point x="55" y="143"/>
      <point x="55" y="353" type="curve" smooth="yes"/>
      <point x="55" y="361" type="line" smooth="yes"/>
      <point x="55" y="573"/>
      <point x="197" y="726"/>
      <point x="391" y="726" type="curve" smooth="yes"/>
      <point x="540" y="726"/>
      <point x="666" y="647"/>
      <point x="681" y="492" type="curve"/>
      <point x="595" y="492" type="line"/>
      <point x="577" y="601"/>
      <point x="514" y="657"/>
      <point x="392" y="657" type="curve" smooth="yes"/>
      <point x="244" y="657"/>
      <point x="145" y="542"/>
      <point x="145" y="362" type="curve" smooth="yes"/>
      <point x="145" y="354" type="line" smooth="yes"/>
      <point x="145" y="172"/>
      <point x="237" y="62"/>
      <point x="391" y="62" type="curve" smooth="yes"/>
      <point x="508" y="62"/>
      <point x="589" y="121"/>
      <point x="607" y="237" type="curve"/>
      <point x="688" y="237" type="line"/>
      <point x="664" y="80"/>
      <point x="560" y="-1"/>
      <point x="412" y="-8" type="curve"/>
      <point x="388" y="-53" type="line"/>
      <point x="434" y="-47"/>
      <point x="482" y="-73"/>
      <point x="482" y="-134" type="curve" smooth="yes"/>
      <point x="482" y="-188"/>
      <point x="435" y="-214"/>
    </contour>
  </outline>
</glyph>
<glyph name="Eacute" format="2">
  <advance width="566"/>
  <unicode hex="00C9"/>
  <outline>
    <contour>
      <point x="90" y="0" type="line"/>
      <point x="90" y="715" type="line"/>
      <point x="507" y="715" type="line"/>
      <point x="507" y="644" type="line"/>
      <point x="177" y="644" type="line"/>
      <point x="177" y="401" type="line"/>
      <point x="443" y="401" type="line"/>
      <point x="443" y="330" type="line"/>
      <point x="177" y="330" type="line"/>
      <point x="177" y="71" type="line"/>
      <point x="525" y="71" type="line"/>
      <point x="525" y="0" type="line"/>
    </contour>
    <contour>
      <point x="269" y="771" type="line"/>
      <point x="325" y="898" type="line"/>
      <point x="429" y="898" type="line"/>
      <point x="331" y="771" type="line"/>
    </contour>
  </outline>
</glyph>
<glyph name="Ecircumflex" format="2">
  <advance width="566"/>
  <unicode hex="00CA"/>
  <outline>
    <contour>
      <point x="90" y="0" type="line"/>
      <point x="90" y="715" type="line"/>
      <point x="507" y="715" type="line"/>
      <point x="507" y="644" type="line"/>
      <point x="177" y="644" type="line"/>
      <point x="177" y="401" type="line"/>
      <point x="443" y="401" type="line"/>
      <point x="443" y="330" type="line"/>
      <point x="177" y="330" type="line"/>
      <point x="177" y="71" type="line"/>
      <point x="525" y="71" type="line"/>
      <point x="525" y="0" type="line"/>
    </contour>
    <contour>
      <point x="161" y="771" type="line"/>
      <point x="269" y="898" type="line"/>
      <point x="344" y="898" type="line"/>
      <point x="451" y="771" type="line"/>
      <point x="390" y="771" type="line"/>
      <point x="305" y="829" type="line"/>
      <point x="220" y="771" type="line"/>
    </contour>
  </outline>
</glyph>
<glyph name="Edieresis" format="2">
  <advance width="566"/>
  <unicode hex="00CB"/>
  <outline>
    <contour>
      <point x="90" y="0" type="line"/>
      <point x="90" y="715" type="line"/>
      <point x="507" y="715" type="line"/>
      <point x="507" y="644" type="line"/>
      <point x="177" y="644" type="line"/>
      <point x="177" y="401" type="line"/>
      <point x="443" y="401" type="line"/>
      <point x="443" y="330" type="line"/>
      <point x="177" y="330" type="line"/>
      <point x="177" y="71" type="line"/>
      <point x="525" y="71" type="line"/>
      <point x="525" y="0" type="line"/>
    </contour>
    <contour>
      <point x="204" y="789" type="curve" smooth="yes"/>
      <point x="175" y="789"/>
      <point x="151" y="813"/>
      <point x="151" y="842" type="curve" smooth="yes"/>
      <point x="151" y="871"/>
      <point x="175" y="895"/>
      <point x="204" y="895" type="curve" smooth="yes"/>
      <point x="233" y="895"/>
      <point x="257" y="871"/>
      <point x="257" y="842" type="curve" smooth="yes"/>
      <point x="257" y="813"/>
      <point x="233" y="789"/>
    </contour>
    <contour>
      <point x="407" y="789" type="curve" smooth="yes"/>
      <point x="378" y="789"/>
      <point x="354" y="813"/>
      <point x="354" y="842" type="curve" smooth="yes"/>
      <point x="354" y="871"/>
      <point x="378" y="895"/>
      <point x="407" y="895" type="curve" smooth="yes"/>
      <point x="436" y="895"/>
      <point x="460" y="871"/>
      <point x="460" y="842" type="curve" smooth="yes"/>
      <point x="460" y="813"/>
      <point x="436" y="789"/>
    </contour>
  </outline>
</glyph>
<glyph name="Igrave" format="2">
  <advance width="277"/>
  <unicode hex="00CC"/>
  <outline>
    <contour>
      <point x="95" y="0" type="line"/>
      <point x="95" y="715" type="line"/>
      <point x="182" y="715" type="line"/>
      <point x="182" y="0" type="line"/>
    </contour>
    <contour>
      <point x="113" y="771" type="line"/>
      <point x="15" y="898" type="line"/>
      <point x="119" y="898" type="line"/>
      <point x="175" y="771" type="line"/>
    </contour>
  </outline>
</glyph>
<glyph name="Iacute" format="2">
  <advance width="277"/>
  <unicode hex="00CD"/>
  <outline>
    <contour>
      <point x="95" y="0" type="line"/>
      <point x="95" y="715" type="line"/>
      <point x="182" y="715" type="line"/>
      <point x="182" y="0" type="line"/>
    </contour>
    <contour>
      <point x="101" y="771" type="line"/>
      <point x="157" y="898" type="line"/>
      <point x="261" y="898" type="line"/>
      <point x="163" y="771" type="line"/>
    </contour>
  </outline>
</glyph>
<glyph name="Icircumflex" format="2">
  <advance width="277"/>
  <unicode hex="00CE"/>
  <outline>
    <contour>
      <point x="95" y="0" type="line"/>
      <point x="95" y="715" type="line"/>
      <point x="182" y="715" type="line"/>
      <point x="182" y="0" type="line"/>
    </contour>
    <contour>
      <point x="-7" y="771" type="line"/>
      <point x="101" y="898" type="line"/>
      <point x="176" y="898" type="line"/>
      <point x="283" y="771" type="line"/>
      <point x="222" y="771" type="line"/>
      <point x="137" y="829" type="line"/>
      <point x="52" y="771" type="line"/>
    </contour>
  </outline>
</glyph>
<glyph name="Idieresis" format="2">
  <advance width="277"/>
  <unicode hex="00CF"/>
  <outline>
    <contour>
      <point x="95" y="0" type="line"/>
      <point x="95" y="715" type="line"/>
      <point x="182" y="715" type="line"/>
      <point x="182" y="0" type="line"/>
    </contour>
    <contour>
      <point x="36" y="789" type="curve" smooth="yes"/>
      <point x="7" y="789"/>
      <point x="-17" y="813"/>
      <point x="-17" y="842" type="curve" smooth="yes"/>
      <point x="-17" y="871"/>
      <point x="7" y="895"/>
      <point x="36" y="895" type="curve" smooth="yes"/>
      <point x="65" y="895"/>
      <point x="89" y="871"/>
      <point x="89" y="842" type="curve" smooth="yes"/>
      <point x="89" y="813"/>
      <point x="65" y="789"/>
    </contour>
    <contour>
      <point x="239" y="789" type="curve" smooth="yes"/>
      <point x="210" y="789"/>
      <point x="186" y="813"/>
      <point x="186" y="842" type="curve" smooth="yes"/>
      <point x="186" y="871"/>
      <point x="210" y="895"/>
      <point x="239" y="895" type="curve" smooth="yes"/>
      <point x="268" y="895"/>
      <point x="292" y="871"/>
      <point x="292" y="842" type="curve" smooth="yes"/>
      <point x="292" y="813"/>
      <point x="268" y="789"/>
    </contour>
  </outline>
</glyph>
<glyph name="Ntilde" format="2">
  <advance width="724"/>
  <unicode hex="00D1"/>
  <outline>
    <contour>
      <point x="90" y="0" type="line"/>
      <point x="90" y="715" type="line"/>
      <point x="203" y="715" type="line"/>
      <point x="551" y="124" type="line"/>
      <point x="551" y="715" type="line"/>
      <point x="634" y="715" type="line"/>
      <point x="634" y="0" type="line"/>
      <point x="534" y="0" type="line"/>
      <point x="173" y="613" type="line"/>
      <point x="173" y="0" type="line"/>
    </contour>
    <contour>
      <point x="426" y="774" type="curve" smooth="yes"/>
      <point x="383" y="774"/>
      <point x="347" y="817"/>
      <point x="318" y="817" type="curve" smooth="yes"/>
      <point x="299" y="817"/>
      <point x="283" y="798"/>
      <point x="278" y="772" type="curve"/>
      <point x="218" y="772" type="line"/>
      <point x="226" y="843"/>
      <point x="267" y="888"/>
      <point x="319" y="888" type="curve" smooth="yes"/>
      <point x="361" y="888"/>
      <point x="397" y="845"/>
      <point x="426" y="845" type="curve" smooth="yes"/>
      <point x="445" y="845"/>
      <point x="461" y="864"/>
      <point x="466" y="890" type="curve"/>
      <point x="526" y="890" type="line"/>
      <point x="518" y="819"/>
      <point x="477" y="774"/>
    </contour>
  </outline>
</glyph>
<glyph name="Oacute" format="2">
  <advance width="811"/>
  <unicode hex="00D3"/>
  <outline>
    <contour>
      <point x="409" y="63" type="curve" smooth="yes"/>
      <point x="568" y="63"/>
      <point x="666" y="183"/>
      <point x="666" y="356" type="curve" smooth="yes"/>
      <point x="666" y="364" type="line" smooth="yes"/>
      <point x="666" y="524"/>
      <point x="572" y="654"/>
      <point x="407" y="654" type="curve" smooth="yes"/>
      <point x="241" y="654"/>
      <point x="145" y="532"/>
      <point x="145" y="362" type="curve" smooth="yes"/>
      <point x="145" y="354" type="line" smooth="yes"/>
      <point x="145" y="181"/>
      <point x="260" y="63"/>
    </contour>
    <contour>
      <point x="409" y="-9" type="curve" smooth="yes"/>
      <point x="198" y="-9"/>
      <point x="55" y="153"/>
      <point x="55" y="353" type="curve" smooth="yes"/>
      <point x="55" y="361" type="line" smooth="yes"/>
      <point x="55" y="564"/>
      <point x="197" y="724"/>
      <point x="407" y="724" type="curve" smooth="yes"/>
      <point x="617" y="724"/>
      <point x="756" y="564"/>
      <point x="756" y="363" type="curve" smooth="yes"/>
      <point x="756" y="355" type="line" smooth="yes"/>
      <point x="756" y="153"/>
      <point x="617" y="-9"/>
    </contour>
    <contour>
      <point x="368" y="771" type="line"/>
      <point x="424" y="898" type="line"/>
      <point x="528" y="898" type="line"/>
      <point x="430" y="771" type="line"/>
    </contour>
  </outline>
</glyph>
<glyph name="Otilde" format="2">
  <advance width="811"/>
  <unicode hex="00D5"/>
  <outline>
    <contour>
      <point x="409" y="63" type="curve" smooth="yes"/>
      <point x="568" y="63"/>
      <point x="666" y="183"/>
      <point x="666" y="356" type="curve" smooth="yes"/>
      <point x="666" y="364" type="line" smooth="yes"/>
      <point x="666" y="524"/>
      <point x="572" y="654"/>
      <point x="407" y="654" type="curve" smooth="yes"/>
      <point x="241" y="654"/>
      <point x="145" y="532"/>
      <point x="145" y="362" type="curve" smooth="yes"/>
      <point x="145" y="354" type="line" smooth="yes"/>
      <point x="145" y="181"/>
      <point x="260" y="63"/>
    </contour>
    <contour>
      <point x="409" y="-9" type="curve" smooth="yes"/>
      <point x="198" y="-9"/>
      <point x="55" y="153"/>
      <point x="55" y="353" type="curve" smooth="yes"/>
      <point x="55" y="361" type="line" smooth="yes"/>
      <point x="55" y="564"/>
      <point x="197" y="724"/>
      <point x="407" y="724" type="curve" smooth="yes"/>
      <point x="617" y="724"/>
      <point x="756" y="564"/>
      <point x="756" y="363" type="curve" smooth="yes"/>
      <point x="756" y="355" type="line" smooth="yes"/>
      <point x="756" y="153"/>
      <point x="617" y="-9"/>
    </contour>
    <contour>
      <point x="459" y="774" type="curve" smooth="yes"/>
      <point x="416" y="774"/>
      <point x="380" y="817"/>
      <point x="351" y="817" type="curve" smooth="yes"/>
      <point x="332" y="817"/>
      <point x="316" y="798"/>
      <point x="311" y="772" type="curve"/>
      <point x="251" y="772" type="line"/>
      <point x="259" y="843"/>
      <point x="300" y="888"/>
      <point x="352" y="888" type="curve" smooth="yes"/>
      <point x="394" y="888"/>
      <point x="430" y="845"/>
      <point x="459" y="845" type="curve" smooth="yes"/>
      <point x="478" y="845"/>
      <point x="494" y="864"/>
      <point x="499" y="890" type="curve"/>
      <point x="559" y="890" type="line"/>
      <point x="551" y="819"/>
      <point x="510" y="774"/>
    </contour>
  </outline>
</glyph>
<glyph name="multiply" format="2">
  <advance width="469"/>
  <unicode hex="00D7"/>
  <outline>
    <contour>
      <point x="80" y="131" type="line"/>
      <point x="33" y="179" type="line"/>
      <point x="187" y="333" type="line"/>
      <point x="33" y="487" type="line"/>
      <point x="80" y="535" type="line"/>
      <point x="234" y="380" type="line"/>
      <point x="388" y="535" type="line"/>
      <point x="436" y="487" type="line"/>
      <point x="282" y="333" type="line"/>
      <point x="436" y="179" type="line"/>
      <point x="388" y="131" type="line"/>
      <point x="234" y="286" type="line"/>
    </contour>
  </outline>
</glyph>
<glyph name="Udieresis" format="2">
  <advance width="696"/>
  <unicode hex="00DC"/>
  <outline>
    <contour>
      <point x="341" y="-9" type="curve" smooth="yes"/>
      <point x="177" y="-9"/>
      <point x="84" y="87"/>
      <point x="84" y="261" type="curve" smooth="yes"/>
      <point x="84" y="715" type="line"/>
      <point x="171" y="715" type="line"/>
      <point x="171" y="271" type="line" smooth="yes"/>
      <point x="171" y="121"/>
      <point x="224" y="63"/>
      <point x="343" y="63" type="curve" smooth="yes"/>
      <point x="457" y="63"/>
      <point x="525" y="109"/>
      <point x="525" y="284" type="curve" smooth="yes"/>
      <point x="525" y="715" type="line"/>
      <point x="612" y="715" type="line"/>
      <point x="612" y="272" type="line" smooth="yes"/>
      <point x="612" y="98"/>
      <point x="525" y="-9"/>
    </contour>
    <contour>
      <point x="246" y="789" type="curve" smooth="yes"/>
      <point x="217" y="789"/>
      <point x="193" y="813"/>
      <point x="193" y="842" type="curve" smooth="yes"/>
      <point x="193" y="871"/>
      <point x="217" y="895"/>
      <point x="246" y="895" type="curve" smooth="yes"/>
      <point x="275" y="895"/>
      <point x="299" y="871"/>
      <point x="299" y="842" type="curve" smooth="yes"/>
      <point x="299" y="813"/>
      <point x="275" y="789"/>
    </contour>
    <contour>
      <point x="449" y="789" type="curve" smooth="yes"/>
      <point x="420" y="789"/>
      <point x="396" y="813"/>
      <point x="396" y="842" type="curve" smooth="yes"/>
      <point x="396" y="871"/>
      <point x="420" y="895"/>
      <point x="449" y="895" type="curve" smooth="yes"/>
      <point x="478" y="895"/>
      <point x="502" y="871"/>
      <point x="502" y="842" type="curve" smooth="yes"/>
      <point x="502" y="813"/>
      <point x="478" y="789"/>
    </contour>
  </outline>
</glyph>
<glyph name="Thorn" format="2">
  <advance width="581"/>
  <unicode hex="00DE"/>
  <outline>
    <contour>
      <point x="90" y="0" type="line"/>
      <point x="90" y="715" type="line"/>
      <point x="177" y="715" type="line"/>
      <point x="177" y="581" type="line"/>
      <point x="293" y="581" type="line" smooth="yes"/>
      <point x="430" y="581"/>
      <point x="543" y="525"/>
      <point x="543" y="376" type="curve" smooth="yes"/>
      <point x="543" y="372" type="line" smooth="yes"/>
      <point x="543" y="220"/>
      <point x="429" y="165"/>
      <point x="293" y="165" type="curve" smooth="yes"/>
      <point x="177" y="165" type="line"/>
      <point x="177" y="0" type="line"/>
    </contour>
    <contour>
      <point x="177" y="234" type="line"/>
      <point x="299" y="234" type="line" smooth="yes"/>
      <point x="401" y="234"/>
      <point x="456" y="280"/>
      <point x="456" y="372" type="curve" smooth="yes"/>
      <point x="456" y="376" type="line" smooth="yes"/>
      <point x="456" y="477"/>
      <point x="396" y="511"/>
      <point x="299" y="511" type="curve" smooth="yes"/>
      <point x="177" y="511" type="line"/>
    </contour>
  </outline>
</glyph>
<glyph name="germandbls" format="2">
  <advance width="590"/>
  <unicode hex="00DF"/>
  <outline>
    <contour>
      <point x="335" y="-9" type="curve" smooth="yes"/>
      <point x="293" y="-9"/>
      <point x="258" y="1"/>
      <point x="243" y="7" type="curve"/>
      <point x="243" y="78" type="line"/>
      <point x="262" y="69"/>
      <point x="293" y="60"/>
      <point x="331" y="60" type="curve" smooth="yes"/>
      <point x="392" y="60"/>
      <point x="461" y="85"/>
      <point x="461" y="210" type="curve" smooth="yes"/>
      <point x="461" y="217" type="line" smooth="yes"/>
      <point x="461" y="325"/>
      <point x="385" y="395"/>
      <point x="265" y="391" type="curve"/>
      <point x="265" y="462" type="line"/>
      <point x="378" y="459"/>
      <point x="414" y="532"/>
      <point x="414" y="593" type="curve" smooth="yes"/>
      <point x="414" y="597" type="line" smooth="yes"/>
      <point x="414" y="668"/>
      <point x="371" y="708"/>
      <point x="292" y="708" type="curve" smooth="yes"/>
      <point x="216" y="708"/>
      <point x="167" y="654"/>
      <point x="167" y="570" type="curve" smooth="yes"/>
      <point x="167" y="0" type="line"/>
      <point x="84" y="0" type="line"/>
      <point x="84" y="566" type="line" smooth="yes"/>
      <point x="84" y="694"/>
      <point x="181" y="776"/>
      <point x="293" y="776" type="curve" smooth="yes"/>
      <point x="412" y="776"/>
      <point x="493" y="704"/>
      <point x="493" y="597" type="curve" smooth="yes"/>
      <point x="493" y="593" type="line" smooth="yes"/>
      <point x="493" y="530"/>
      <point x="452" y="458"/>
      <point x="374" y="432" type="curve"/>
      <point x="477" y="406"/>
      <point x="547" y="322"/>
      <point x="547" y="218" type="curve" smooth="yes"/>
      <point x="547" y="212" type="line" smooth="yes"/>
      <point x="547" y="43"/>
      <point x="443" y="-9"/>
    </contour>
  </outline>
</glyph>
<glyph name="atilde" format="2">
  <advance width="540"/>
  <unicode hex="00E3"/>
  <outline>
    <contour>
      <point x="215" y="-9" type="curve" smooth="yes"/>
      <point x="118" y="-9"/>
      <point x="41" y="38"/>
      <point x="41" y="145" type="curve" smooth="yes"/>
      <point x="41" y="266"/>
      <point x="169" y="307"/>
      <point x="303" y="307" type="curve" smooth="yes"/>
      <point x="378" y="307" type="line"/>
      <point x="378" y="345" type="line" smooth="yes"/>
      <point x="378" y="428"/>
      <point x="346" y="463"/>
      <point x="266" y="463" type="curve" smooth="yes"/>
      <point x="194" y="463"/>
      <point x="154" y="433"/>
      <point x="146" y="369" type="curve"/>
      <point x="63" y="369" type="line"/>
      <point x="74" y="488"/>
      <point x="169" y="532"/>
      <point x="270" y="532" type="curve" smooth="yes"/>
      <point x="370" y="532"/>
      <point x="461" y="491"/>
      <point x="461" y="345" type="curve" smooth="yes"/>
      <point x="461" y="0" type="line"/>
      <point x="378" y="0" type="line"/>
      <point x="378" y="66" type="line"/>
      <point x="339" y="17"/>
      <point x="292" y="-9"/>
    </contour>
    <contour>
      <point x="223" y="57" type="curve" smooth="yes"/>
      <point x="311" y="57"/>
      <point x="378" y="102"/>
      <point x="378" y="183" type="curve" smooth="yes"/>
      <point x="378" y="248" type="line"/>
      <point x="306" y="248" type="line" smooth="yes"/>
      <point x="201" y="248"/>
      <point x="124" y="222"/>
      <point x="124" y="145" type="curve" smooth="yes"/>
      <point x="124" y="91"/>
      <point x="150" y="57"/>
    </contour>
    <contour>
      <point x="325" y="619" type="curve" smooth="yes"/>
      <point x="282" y="619"/>
      <point x="246" y="662"/>
      <point x="217" y="662" type="curve" smooth="yes"/>
      <point x="198" y="662"/>
      <point x="182" y="643"/>
      <point x="177" y="617" type="curve"/>
      <point x="117" y="617" type="line"/>
      <point x="125" y="688"/>
      <point x="166" y="733"/>
      <point x="218" y="733" type="curve" smooth="yes"/>
      <point x="260" y="733"/>
      <point x="296" y="690"/>
      <point x="325" y="690" type="curve" smooth="yes"/>
      <point x="344" y="690"/>
      <point x="360" y="709"/>
      <point x="365" y="735" type="curve"/>
      <point x="425" y="735" type="line"/>
      <point x="417" y="664"/>
      <point x="376" y="619"/>
    </contour>
  </outline>
</glyph>
<glyph name="ae" format="2">
  <advance width="880"/>
  <unicode hex="00E6"/>
  <outline>
    <contour>
      <point x="616" y="-9" type="curve" smooth="yes"/>
      <point x="528" y="-9"/>
      <point x="459" y="31"/>
      <point x="419" y="99" type="curve"/>
      <point x="371" y="24"/>
      <point x="311" y="-9"/>
      <point x="215" y="-9" type="curve" smooth="yes"/>
      <point x="118" y="-9"/>
      <point x="41" y="38"/>
      <point x="41" y="145" type="curve" smooth="yes"/>
      <point x="41" y="267"/>
      <point x="166" y="310"/>
      <point x="300" y="310" type="curve" smooth="yes"/>
      <point x="378" y="310" type="line"/>
      <point x="378" y="344" type="line" smooth="yes"/>
      <point x="378" y="427"/>
      <point x="343" y="463"/>
      <point x="266" y="463" type="curve" smooth="yes"/>
      <point x="194" y="463"/>
      <point x="154" y="433"/>
      <point x="146" y="369" type="curve"/>
      <point x="63" y="369" type="line"/>
      <point x="74" y="488"/>
      <point x="169" y="532"/>
      <point x="270" y="532" type="curve" smooth="yes"/>
      <point x="339" y="532"/>
      <point x="404" y="510"/>
      <point x="434" y="443" type="curve"/>
      <point x="474" y="499"/>
      <point x="534" y="532"/>
      <point x="610" y="532" type="curve" smooth="yes"/>
      <point x="726" y="532"/>
      <point x="837" y="461"/>
      <point x="837" y="272" type="curve" smooth="yes"/>
      <point x="837" y="247" type="line"/>
      <point x="458" y="247" type="line"/>
      <point x="462" y="128"/>
      <point x="514" y="60"/>
      <point x="617" y="60" type="curve" smooth="yes"/>
      <point x="695" y="60"/>
      <point x="739" y="90"/>
      <point x="750" y="151" type="curve"/>
      <point x="833" y="151" type="line"/>
      <point x="815" y="46"/>
      <point x="729" y="-9"/>
    </contour>
    <contour>
      <point x="223" y="57" type="curve" smooth="yes"/>
      <point x="311" y="57"/>
      <point x="378" y="102"/>
      <point x="378" y="183" type="curve" smooth="yes"/>
      <point x="378" y="247" type="line"/>
      <point x="303" y="247" type="line" smooth="yes"/>
      <point x="198" y="247"/>
      <point x="124" y="222"/>
      <point x="124" y="145" type="curve" smooth="yes"/>
      <point x="124" y="91"/>
      <point x="150" y="57"/>
    </contour>
    <contour>
      <point x="461" y="310" type="curve"/>
      <point x="752" y="310" type="line"/>
      <point x="744" y="420"/>
      <point x="693" y="463"/>
      <point x="610" y="463" type="curve" smooth="yes"/>
      <point x="529" y="463"/>
      <point x="474" y="404"/>
    </contour>
  </outline>
</glyph>
<glyph name="ccedilla" format="2">
  <advance width="570"/>
  <unicode hex="00E7"/>
  <outline>
    <contour>
      <point x="286" y="-214" type="curve" smooth="yes"/>
      <point x="228" y="-214"/>
      <point x="190" y="-180"/>
      <point x="186" y="-130" type="curve"/>
      <point x="240" y="-130" type="line"/>
      <point x="244" y="-149"/>
      <point x="258" y="-166"/>
      <point x="283" y="-166" type="curve" smooth="yes"/>
      <point x="308" y="-166"/>
      <point x="323" y="-151"/>
      <point x="323" y="-130" type="curve" smooth="yes"/>
      <point x="323" y="-109"/>
      <point x="308" y="-96"/>
      <point x="287" y="-96" type="curve" smooth="yes"/>
      <point x="274" y="-96"/>
      <point x="264" y="-101"/>
      <point x="259" y="-104" type="curve"/>
      <point x="227" y="-76" type="line"/>
      <point x="265" y="-7" type="line"/>
      <point x="137" y="8"/>
      <point x="45" y="107"/>
      <point x="45" y="256" type="curve" smooth="yes"/>
      <point x="45" y="264" type="line" smooth="yes"/>
      <point x="45" y="424"/>
      <point x="159" y="532"/>
      <point x="299" y="532" type="curve" smooth="yes"/>
      <point x="408" y="532"/>
      <point x="510" y="482"/>
      <point x="526" y="349" type="curve"/>
      <point x="444" y="349" type="line"/>
      <point x="431" y="432"/>
      <point x="371" y="463"/>
      <point x="299" y="463" type="curve" smooth="yes"/>
      <point x="204" y="463"/>
      <point x="131" y="387"/>
      <point x="131" y="264" type="curve" smooth="yes"/>
      <point x="131" y="256" type="line" smooth="yes"/>
      <point x="131" y="128"/>
      <point x="201" y="60"/>
      <point x="302" y="60" type="curve" smooth="yes"/>
      <point x="376" y="60"/>
      <point x="443" y="103"/>
      <point x="452" y="188" type="curve"/>
      <point x="529" y="188" type="line"/>
      <point x="518" y="80"/>
      <point x="435" y="-1"/>
      <point x="317" y="-8" type="curve"/>
      <point x="293" y="-53" type="line"/>
      <point x="339" y="-47"/>
      <point x="387" y="-73"/>
      <point x="387" y="-134" type="curve" smooth="yes"/>
      <point x="387" y="-188"/>
      <point x="340" y="-214"/>
    </contour>
  </outline>
</glyph>
<glyph name="igrave" format="2">
  <advance width="255"/>
  <unicode hex="00EC"/>
  <outline>
    <contour>
      <point x="86" y="0" type="line"/>
      <point x="86" y="523" type="line"/>
      <point x="169" y="523" type="line"/>
      <point x="169" y="0" type="line"/>
    </contour>
    <contour>
      <point x="102" y="613" type="line"/>
      <point x="-2" y="760" type="line"/>
      <point x="102" y="760" type="line"/>
      <point x="164" y="613" type="line"/>
    </contour>
  </outline>
</glyph>
<glyph name="iacute" format="2">
  <advance width="255"/>
  <unicode hex="00ED"/>
  <outline>
    <contour>
      <point x="86" y="0" type="line"/>
      <point x="86" y="523" type="line"/>
      <point x="169" y="523" type="line"/>
      <point x="169" y="0" type="line"/>
    </contour>
    <contour>
      <point x="90" y="613" type="line"/>
      <point x="152" y="760" type="line"/>
      <point x="256" y="760" type="line"/>
      <point x="152" y="613" type="line"/>
    </contour>
  </outline>
</glyph>
<glyph name="icircumflex" format="2">
  <advance width="255"/>
  <unicode hex="00EE"/>
  <outline>
    <contour>
      <point x="86" y="0" type="line"/>
      <point x="86" y="523" type="line"/>
      <point x="169" y="523" type="line"/>
      <point x="169" y="0" type="line"/>
    </contour>
    <contour>
      <point x="-18" y="613" type="line"/>
      <point x="90" y="757" type="line"/>
      <point x="165" y="757" type="line"/>
      <point x="272" y="613" type="line"/>
      <point x="211" y="613" type="line"/>
      <point x="126" y="688" type="line"/>
      <point x="41" y="613" type="line"/>
    </contour>
  </outline>
</glyph>
<glyph name="idieresis" format="2">
  <advance width="255"/>
  <unicode hex="00EF"/>
  <outline>
    <contour>
      <point x="37" y="634" type="curve" smooth="yes"/>
      <point x="8" y="634"/>
      <point x="-16" y="658"/>
      <point x="-16" y="687" type="curve" smooth="yes"/>
      <point x="-16" y="716"/>
      <point x="8" y="740"/>
      <point x="37" y="740" type="curve" smooth="yes"/>
      <point x="66" y="740"/>
      <point x="90" y="716"/>
      <point x="90" y="687" type="curve" smooth="yes"/>
      <point x="90" y="658"/>
      <point x="66" y="634"/>
    </contour>
    <contour>
      <point x="217" y="634" type="curve" smooth="yes"/>
      <point x="188" y="634"/>
      <point x="164" y="658"/>
      <point x="164" y="687" type="curve" smooth="yes"/>
      <point x="164" y="716"/>
      <point x="188" y="740"/>
      <point x="217" y="740" type="curve" smooth="yes"/>
      <point x="246" y="740"/>
      <point x="270" y="716"/>
      <point x="270" y="687" type="curve" smooth="yes"/>
      <point x="270" y="658"/>
      <point x="246" y="634"/>
    </contour>
    <contour>
      <point x="86" y="0" type="line"/>
      <point x="86" y="523" type="line"/>
      <point x="169" y="523" type="line"/>
      <point x="169" y="0" type="line"/>
    </contour>
  </outline>
</glyph>
<glyph name="eth" format="2">
  <advance width="604"/>
  <unicode hex="00F0"/>
  <outline>
    <contour>
      <point x="185" y="573" type="line"/>
      <point x="156" y="621" type="line"/>
      <point x="253" y="678" type="line"/>
      <point x="213" y="713"/>
      <point x="170" y="745"/>
      <point x="129" y="773" type="curve"/>
      <point x="236" y="773" type="line"/>
      <point x="261" y="759"/>
      <point x="290" y="741"/>
      <point x="320" y="718" type="curve"/>
      <point x="403" y="767" type="line"/>
      <point x="432" y="718" type="line"/>
      <point x="365" y="679" type="line"/>
      <point x="464" y="587"/>
      <point x="559" y="448"/>
      <point x="559" y="284" type="curve" smooth="yes"/>
      <point x="559" y="262" type="line" smooth="yes"/>
      <point x="559" y="104"/>
      <point x="450" y="-9"/>
      <point x="301" y="-9" type="curve" smooth="yes"/>
      <point x="152" y="-9"/>
      <point x="45" y="104"/>
      <point x="45" y="257" type="curve" smooth="yes"/>
      <point x="45" y="265" type="line" smooth="yes"/>
      <point x="45" y="422"/>
      <point x="155" y="532"/>
      <point x="283" y="532" type="curve" smooth="yes"/>
      <point x="352" y="532"/>
      <point x="401" y="501"/>
      <point x="434" y="460" type="curve"/>
      <point x="402" y="524"/>
      <point x="353" y="585"/>
      <point x="297" y="639" type="curve"/>
    </contour>
    <contour>
      <point x="302" y="60" type="curve" smooth="yes"/>
      <point x="407" y="60"/>
      <point x="473" y="139"/>
      <point x="473" y="257" type="curve" smooth="yes"/>
      <point x="473" y="264" type="line" smooth="yes"/>
      <point x="473" y="385"/>
      <point x="407" y="463"/>
      <point x="303" y="463" type="curve" smooth="yes"/>
      <point x="198" y="463"/>
      <point x="131" y="385"/>
      <point x="131" y="265" type="curve" smooth="yes"/>
      <point x="131" y="257" type="line" smooth="yes"/>
      <point x="131" y="138"/>
      <point x="196" y="60"/>
    </contour>
  </outline>
</glyph>
<glyph name="ntilde" format="2">
  <advance width="598"/>
  <unicode hex="00F1"/>
  <outline>
    <contour>
      <point x="84" y="0" type="line"/>
      <point x="84" y="523" type="line"/>
      <point x="167" y="523" type="line"/>
      <point x="167" y="440" type="line"/>
      <point x="191" y="489"/>
      <point x="249" y="532"/>
      <point x="335" y="532" type="curve" smooth="yes"/>
      <point x="443" y="532"/>
      <point x="519" y="473"/>
      <point x="519" y="321" type="curve" smooth="yes"/>
      <point x="519" y="0" type="line"/>
      <point x="436" y="0" type="line"/>
      <point x="436" y="327" type="line" smooth="yes"/>
      <point x="436" y="419"/>
      <point x="397" y="460"/>
      <point x="313" y="460" type="curve" smooth="yes"/>
      <point x="236" y="460"/>
      <point x="167" y="411"/>
      <point x="167" y="317" type="curve" smooth="yes"/>
      <point x="167" y="0" type="line"/>
    </contour>
    <contour>
      <point x="352" y="619" type="curve" smooth="yes"/>
      <point x="309" y="619"/>
      <point x="273" y="662"/>
      <point x="244" y="662" type="curve" smooth="yes"/>
      <point x="225" y="662"/>
      <point x="209" y="643"/>
      <point x="204" y="617" type="curve"/>
      <point x="144" y="617" type="line"/>
      <point x="152" y="688"/>
      <point x="193" y="733"/>
      <point x="245" y="733" type="curve" smooth="yes"/>
      <point x="287" y="733"/>
      <point x="323" y="690"/>
      <point x="352" y="690" type="curve" smooth="yes"/>
      <point x="371" y="690"/>
      <point x="387" y="709"/>
      <point x="392" y="735" type="curve"/>
      <point x="452" y="735" type="line"/>
      <point x="444" y="664"/>
      <point x="403" y="619"/>
    </contour>
  </outline>
</glyph>
<glyph name="oacute" format="2">
  <advance width="604"/>
  <unicode hex="00F3"/>
  <outline>
    <contour>
      <point x="302" y="60" type="curve" smooth="yes"/>
      <point x="407" y="60"/>
      <point x="473" y="139"/>
      <point x="473" y="257" type="curve" smooth="yes"/>
      <point x="473" y="264" type="line" smooth="yes"/>
      <point x="473" y="385"/>
      <point x="406" y="463"/>
      <point x="302" y="463" type="curve" smooth="yes"/>
      <point x="197" y="463"/>
      <point x="131" y="385"/>
      <point x="131" y="265" type="curve" smooth="yes"/>
      <point x="131" y="257" type="line" smooth="yes"/>
      <point x="131" y="138"/>
      <point x="196" y="60"/>
    </contour>
    <contour>
      <point x="301" y="-9" type="curve" smooth="yes"/>
      <point x="152" y="-9"/>
      <point x="45" y="104"/>
      <point x="45" y="257" type="curve" smooth="yes"/>
      <point x="45" y="265" type="line" smooth="yes"/>
      <point x="45" y="422"/>
      <point x="154" y="532"/>
      <point x="302" y="532" type="curve" smooth="yes"/>
      <point x="450" y="532"/>
      <point x="559" y="423"/>
      <point x="559" y="266" type="curve" smooth="yes"/>
      <point x="559" y="258" type="line" smooth="yes"/>
      <point x="559" y="100"/>
      <point x="450" y="-9"/>
    </contour>
    <contour>
      <point x="265" y="613" type="line"/>
      <point x="327" y="760" type="line"/>
      <point x="431" y="760" type="line"/>
      <point x="327" y="613" type="line"/>
    </contour>
  </outline>
</glyph>
<glyph name="otilde" format="2">
  <advance width="604"/>
  <unicode hex="00F5"/>
  <outline>
    <contour>
      <point x="302" y="60" type="curve" smooth="yes"/>
      <point x="407" y="60"/>
      <point x="473" y="139"/>
      <point x="473" y="257" type="curve" smooth="yes"/>
      <point x="473" y="264" type="line" smooth="yes"/>
      <point x="473" y="385"/>
      <point x="406" y="463"/>
      <point x="302" y="463" type="curve" smooth="yes"/>
      <point x="197" y="463"/>
      <point x="131" y="385"/>
      <point x="131" y="265" type="curve" smooth="yes"/>
      <point x="131" y="257" type="line" smooth="yes"/>
      <point x="131" y="138"/>
      <point x="196" y="60"/>
    </contour>
    <contour>
      <point x="301" y="-9" type="curve" smooth="yes"/>
      <point x="152" y="-9"/>
      <point x="45" y="104"/>
      <point x="45" y="257" type="curve" smooth="yes"/>
      <point x="45" y="265" type="line" smooth="yes"/>
      <point x="45" y="422"/>
      <point x="154" y="532"/>
      <point x="302" y="532" type="curve" smooth="yes"/>
      <point x="450" y="532"/>
      <point x="559" y="423"/>
      <point x="559" y="266" type="curve" smooth="yes"/>
      <point x="559" y="258" type="line" smooth="yes"/>
      <point x="559" y="100"/>
      <point x="450" y="-9"/>
    </contour>
    <contour>
      <point x="356" y="619" type="curve" smooth="yes"/>
      <point x="313" y="619"/>
      <point x="277" y="662"/>
      <point x="248" y="662" type="curve" smooth="yes"/>
      <point x="229" y="662"/>
      <point x="213" y="643"/>
      <point x="208" y="617" type="curve"/>
      <point x="148" y="617" type="line"/>
      <point x="156" y="688"/>
      <point x="197" y="733"/>
      <point x="249" y="733" type="curve" smooth="yes"/>
      <point x="291" y="733"/>
      <point x="327" y="690"/>
      <point x="356" y="690" type="curve" smooth="yes"/>
      <point x="375" y="690"/>
      <point x="391" y="709"/>
      <point x="396" y="735" type="curve"/>
      <point x="456" y="735" type="line"/>
      <point x="448" y="664"/>
      <point x="407" y="619"/>
    </contour>
  </outline>
</glyph>
<glyph name="odieresis" format="2">
  <advance width="604"/>
  <unicode hex="00F6"/>
  <outline>
    <contour>
      <point x="302" y="60" type="curve" smooth="yes"/>
      <point x="407" y="60"/>
      <point x="473" y="139"/>
      <point x="473" y="257" type="curve" smooth="yes"/>
      <point x="473" y="264" type="line" smooth="yes"/>
      <point x="473" y="385"/>
      <point x="406" y="463"/>
      <point x="302" y="463" type="curve" smooth="yes"/>
      <point x="197" y="463"/>
      <point x="131" y="385"/>
      <point x="131" y="265" type="curve" smooth="yes"/>
      <point x="131" y="257" type="line" smooth="yes"/>
      <point x="131" y="138"/>
      <point x="196" y="60"/>
    </contour>
    <contour>
      <point x="301" y="-9" type="curve" smooth="yes"/>
      <point x="152" y="-9"/>
      <point x="45" y="104"/>
      <point x="45" y="257" type="curve" smooth="yes"/>
      <point x="45" y="265" type="line" smooth="yes"/>
      <point x="45" y="422"/>
      <point x="154" y="532"/>
      <point x="302" y="532" type="curve" smooth="yes"/>
      <point x="450" y="532"/>
      <point x="559" y="423"/>
      <point x="559" y="266" type="curve" smooth="yes"/>
      <point x="559" y="258" type="line" smooth="yes"/>
      <point x="559" y="100"/>
      <point x="450" y="-9"/>
    </contour>
    <contour>
      <point x="208" y="634" type="curve" smooth="yes"/>
      <point x="179" y="634"/>
      <point x="155" y="658"/>
      <point x="155" y="687" type="curve" smooth="yes"/>
      <point x="155" y="716"/>
      <point x="179" y="740"/>
      <point x="208" y="740" type="curve" smooth="yes"/>
      <point x="237" y="740"/>
      <point x="261" y="716"/>
      <point x="261" y="687" type="curve" smooth="yes"/>
      <point x="261" y="658"/>
      <point x="237" y="634"/>
    </contour>
    <contour>
      <point x="396" y="634" type="curve" smooth="yes"/>
      <point x="367" y="634"/>
      <point x="343" y="658"/>
      <point x="343" y="687" type="curve" smooth="yes"/>
      <point x="343" y="716"/>
      <point x="367" y="740"/>
      <point x="396" y="740" type="curve" smooth="yes"/>
      <point x="425" y="740"/>
      <point x="449" y="716"/>
      <point x="449" y="687" type="curve" smooth="yes"/>
      <point x="449" y="658"/>
      <point x="425" y="634"/>
    </contour>
  </outline>
</glyph>
<glyph name="divide" format="2">
  <advance width="519"/>
  <unicode hex="00F7"/>
  <outline>
    <contour>
      <point x="259" y="89" type="curve" smooth="yes"/>
      <point x="224" y="89"/>
      <point x="195" y="117"/>
      <point x="195" y="153" type="curve" smooth="yes"/>
      <point x="195" y="189"/>
      <point x="224" y="217"/>
      <point x="259" y="217" type="curve" smooth="yes"/>
      <point x="294" y="217"/>
      <point x="323" y="189"/>
      <point x="323" y="153" type="curve" smooth="yes"/>
      <point x="323" y="117"/>
      <point x="294" y="89"/>
    </contour>
    <contour>
      <point x="36" y="307" type="line"/>
      <point x="36" y="377" type="line"/>
      <point x="483" y="377" type="line"/>
      <point x="483" y="307" type="line"/>
    </contour>
    <contour>
      <point x="259" y="467" type="curve" smooth="yes"/>
      <point x="224" y="467"/>
      <point x="195" y="495"/>
      <point x="195" y="531" type="curve" smooth="yes"/>
      <point x="195" y="567"/>
      <point x="224" y="595"/>
      <point x="259" y="595" type="curve" smooth="yes"/>
      <point x="294" y="595"/>
      <point x="323" y="567"/>
      <point x="323" y="531" type="curve" smooth="yes"/>
      <point x="323" y="495"/>
      <point x="294" y="467"/>
    </contour>
  </outline>
</glyph>
<glyph name="oslash" format="2">
  <advance width="604"/>
  <unicode hex="00F8"/>
  <outline>
    <contour>
      <point x="67" y="-37" type="line"/>
      <point x="23" y="1" type="line"/>
      <point x="100" y="86" type="line"/>
      <point x="65" y="131"/>
      <point x="45" y="190"/>
      <point x="45" y="257" type="curve" smooth="yes"/>
      <point x="45" y="265" type="line" smooth="yes"/>
      <point x="45" y="422"/>
      <point x="154" y="532"/>
      <point x="302" y="532" type="curve" smooth="yes"/>
      <point x="362" y="532"/>
      <point x="416" y="514"/>
      <point x="458" y="482" type="curve"/>
      <point x="526" y="556" type="line"/>
      <point x="570" y="518" type="line"/>
      <point x="500" y="441" type="line"/>
      <point x="537" y="395"/>
      <point x="559" y="335"/>
      <point x="559" y="266" type="curve" smooth="yes"/>
      <point x="559" y="258" type="line" smooth="yes"/>
      <point x="559" y="100"/>
      <point x="450" y="-9"/>
      <point x="301" y="-9" type="curve" smooth="yes"/>
      <point x="238" y="-9"/>
      <point x="184" y="11"/>
      <point x="141" y="45" type="curve"/>
    </contour>
    <contour>
      <point x="302" y="60" type="curve" smooth="yes"/>
      <point x="407" y="60"/>
      <point x="473" y="139"/>
      <point x="473" y="257" type="curve" smooth="yes"/>
      <point x="473" y="264" type="line" smooth="yes"/>
      <point x="473" y="310"/>
      <point x="463" y="349"/>
      <point x="446" y="381" type="curve"/>
      <point x="190" y="100" type="line"/>
      <point x="219" y="74"/>
      <point x="256" y="60"/>
    </contour>
    <contour>
      <point x="131" y="257" type="line" smooth="yes"/>
      <point x="131" y="214"/>
      <point x="139" y="177"/>
      <point x="155" y="146" type="curve"/>
      <point x="408" y="426" type="line"/>
      <point x="380" y="450"/>
      <point x="344" y="463"/>
      <point x="302" y="463" type="curve" smooth="yes"/>
      <point x="197" y="463"/>
      <point x="131" y="385"/>
      <point x="131" y="265" type="curve" smooth="yes"/>
    </contour>
  </outline>
</glyph>
<glyph name="udieresis" format="2">
  <advance width="594"/>
  <unicode hex="00FC"/>
  <outline>
    <contour>
      <point x="261" y="-9" type="curve" smooth="yes"/>
      <point x="157" y="-9"/>
      <point x="79" y="48"/>
      <point x="79" y="192" type="curve" smooth="yes"/>
      <point x="79" y="523" type="line"/>
      <point x="162" y="523" type="line"/>
      <point x="162" y="196" type="line" smooth="yes"/>
      <point x="162" y="104"/>
      <point x="201" y="63"/>
      <point x="283" y="63" type="curve" smooth="yes"/>
      <point x="357" y="63"/>
      <point x="427" y="112"/>
      <point x="427" y="206" type="curve" smooth="yes"/>
      <point x="427" y="523" type="line"/>
      <point x="510" y="523" type="line"/>
      <point x="510" y="0" type="line"/>
      <point x="427" y="0" type="line"/>
      <point x="427" y="83" type="line"/>
      <point x="403" y="34"/>
      <point x="345" y="-9"/>
    </contour>
    <contour>
      <point x="203" y="634" type="curve" smooth="yes"/>
      <point x="174" y="634"/>
      <point x="150" y="658"/>
      <point x="150" y="687" type="curve" smooth="yes"/>
      <point x="150" y="716"/>
      <point x="174" y="740"/>
      <point x="203" y="740" type="curve" smooth="yes"/>
      <point x="232" y="740"/>
      <point x="256" y="716"/>
      <point x="256" y="687" type="curve" smooth="yes"/>
      <point x="256" y="658"/>
      <point x="232" y="634"/>
    </contour>
    <contour>
      <point x="391" y="634" type="curve" smooth="yes"/>
      <point x="362" y="634"/>
      <point x="338" y="658"/>
      <point x="338" y="687" type="curve" smooth="yes"/>
      <point x="338" y="716"/>
      <point x="362" y="740"/>
      <point x="391" y="740" type="curve" smooth="yes"/>
      <point x="420" y="740"/>
      <point x="444" y="716"/>
      <point x="444" y="687" type="curve" smooth="yes"/>
      <point x="444" y="658"/>
      <point x="420" y="634"/>
    </contour>
  </outline>
</glyph>
<glyph name="thorn" format="2">
  <advance width="627"/>
  <unicode hex="00FE"/>
  <outline>
    <contour>
      <point x="84" y="-182" type="line"/>
      <point x="84" y="773" type="line"/>
      <point x="167" y="773" type="line"/>
      <point x="167" y="435" type="line"/>
      <point x="197" y="486"/>
      <point x="268" y="532"/>
      <point x="344" y="532" type="curve" smooth="yes"/>
      <point x="481" y="532"/>
      <point x="582" y="432"/>
      <point x="582" y="269" type="curve" smooth="yes"/>
      <point x="582" y="261" type="line" smooth="yes"/>
      <point x="582" y="101"/>
      <point x="488" y="-9"/>
      <point x="344" y="-9" type="curve" smooth="yes"/>
      <point x="258" y="-9"/>
      <point x="197" y="34"/>
      <point x="167" y="86" type="curve"/>
      <point x="167" y="-182" type="line"/>
    </contour>
    <contour>
      <point x="336" y="60" type="curve" smooth="yes"/>
      <point x="440" y="60"/>
      <point x="496" y="130"/>
      <point x="496" y="257" type="curve" smooth="yes"/>
      <point x="496" y="265" type="line" smooth="yes"/>
      <point x="496" y="397"/>
      <point x="423" y="463"/>
      <point x="335" y="463" type="curve" smooth="yes"/>
      <point x="238" y="463"/>
      <point x="164" y="399"/>
      <point x="164" y="265" type="curve" smooth="yes"/>
      <point x="164" y="257" type="line" smooth="yes"/>
      <point x="164" y="123"/>
      <point x="234" y="60"/>
    </contour>
  </outline>
</glyph>
<glyph name="ydieresis" format="2">
  <advance width="529"/>
  <unicode hex="00FF"/>
  <outline>
    <contour>
      <point x="131" y="-182" type="line"/>
      <point x="230" y="54" type="line"/>
      <point x="25" y="523" type="line"/>
      <point x="114" y="523" type="line"/>
      <point x="274" y="148" type="line"/>
      <point x="419" y="523" type="line"/>
      <point x="504" y="523" type="line"/>
      <point x="215" y="-182" type="line"/>
    </contour>
    <contour>
      <point x="178" y="634" type="curve" smooth="yes"/>
      <point x="149" y="634"/>
      <point x="125" y="658"/>
      <point x="125" y="687" type="curve" smooth="yes"/>
      <point x="125" y="716"/>
      <point x="149" y="740"/>
      <point x="178" y="740" type="curve" smooth="yes"/>
      <point x="207" y="740"/>
      <point x="231" y="716"/>
      <point x="231" y="687" type="curve" smooth="yes"/>
      <point x="231" y="658"/>
      <point x="207" y="634"/>
    </contour>
    <contour>
      <point x="366" y="634" type="curve" smooth="yes"/>
      <point x="337" y="634"/>
      <point x="313" y="658"/>
      <point x="313" y="687" type="curve" smooth="yes"/>
      <point x="313" y="716"/>
      <point x="337" y="740"/>
      <point x="366" y="740" type="curve" smooth="yes"/>
      <point x="395" y="740"/>
      <point x="419" y="716"/>
      <point x="419" y="687" type="curve" smooth="yes"/>
      <point x="419" y="658"/>
      <point x="395" y="634"/>
    </contour>
  </outline>
</glyph>
<glyph name="Amacron" format="2">
  <advance width="674"/>
  <unicode hex="0100"/>
  <outline>
    <contour>
      <point x="36" y="0" type="line"/>
      <point x="282" y="715" type="line"/>
      <point x="396" y="715" type="line"/>
      <point x="638" y="0" type="line"/>
      <point x="552" y="0" type="line"/>
      <point x="482" y="206" type="line"/>
      <point x="187" y="206" type="line"/>
      <point x="118" y="0" type="line"/>
    </contour>
    <contour>
      <point x="335" y="643" type="line"/>
      <point x="211" y="275" type="line"/>
      <point x="459" y="275" type="line"/>
    </contour>
    <contour>
      <point x="204" y="786" type="line"/>
      <point x="204" y="850" type="line"/>
      <point x="470" y="850" type="line"/>
      <point x="470" y="786" type="line"/>
    </contour>
  </outline>
</glyph>
<glyph name="Abreve" format="2">
  <advance width="674"/>
  <unicode hex="0102"/>
  <outline>
    <contour>
      <point x="36" y="0" type="line"/>
      <point x="282" y="715" type="line"/>
      <point x="396" y="715" type="line"/>
      <point x="638" y="0" type="line"/>
      <point x="552" y="0" type="line"/>
      <point x="482" y="206" type="line"/>
      <point x="187" y="206" type="line"/>
      <point x="118" y="0" type="line"/>
    </contour>
    <contour>
      <point x="335" y="643" type="line"/>
      <point x="211" y="275" type="line"/>
      <point x="459" y="275" type="line"/>
    </contour>
    <contour>
      <point x="335" y="767" type="curve" smooth="yes"/>
      <point x="263" y="767"/>
      <point x="207" y="823"/>
      <point x="203" y="899" type="curve"/>
      <point x="269" y="899" type="line"/>
      <point x="276" y="860"/>
      <point x="295" y="835"/>
      <point x="335" y="835" type="curve" smooth="yes"/>
      <point x="377" y="835"/>
      <point x="399" y="859"/>
      <point x="407" y="899" type="curve"/>
      <point x="471" y="899" type="line"/>
      <point x="467" y="823"/>
      <point x="407" y="767"/>
    </contour>
  </outline>
</glyph>
<glyph name="abreve" format="2">
  <advance width="540"/>
  <unicode hex="0103"/>
  <outline>
    <contour>
      <point x="215" y="-9" type="curve" smooth="yes"/>
      <point x="118" y="-9"/>
      <point x="41" y="38"/>
      <point x="41" y="145" type="curve" smooth="yes"/>
      <point x="41" y="266"/>
      <point x="169" y="307"/>
      <point x="303" y="307" type="curve" smooth="yes"/>
      <point x="378" y="307" type="line"/>
      <point x="378" y="345" type="line" smooth="yes"/>
      <point x="378" y="428"/>
      <point x="346" y="463"/>
      <point x="266" y="463" type="curve" smooth="yes"/>
      <point x="194" y="463"/>
      <point x="154" y="433"/>
      <point x="146" y="369" type="curve"/>
      <point x="63" y="369" type="line"/>
      <point x="74" y="488"/>
      <point x="169" y="532"/>
      <point x="270" y="532" type="curve" smooth="yes"/>
      <point x="370" y="532"/>
      <point x="461" y="491"/>
      <point x="461" y="345" type="curve" smooth="yes"/>
      <point x="461" y="0" type="line"/>
      <point x="378" y="0" type="line"/>
      <point x="378" y="66" type="line"/>
      <point x="339" y="17"/>
      <point x="292" y="-9"/>
    </contour>
    <contour>
      <point x="223" y="57" type="curve" smooth="yes"/>
      <point x="311" y="57"/>
      <point x="378" y="102"/>
      <point x="378" y="183" type="curve" smooth="yes"/>
      <point x="378" y="248" type="line"/>
      <point x="306" y="248" type="line" smooth="yes"/>
      <point x="201" y="248"/>
      <point x="124" y="222"/>
      <point x="124" y="145" type="curve" smooth="yes"/>
      <point x="124" y="91"/>
      <point x="150" y="57"/>
    </contour>
    <contour>
      <point x="269" y="619" type="curve" smooth="yes"/>
      <point x="197" y="619"/>
      <point x="141" y="675"/>
      <point x="137" y="751" type="curve"/>
      <point x="203" y="751" type="line"/>
      <point x="210" y="712"/>
      <point x="229" y="687"/>
      <point x="269" y="687" type="curve" smooth="yes"/>
      <point x="311" y="687"/>
      <point x="333" y="711"/>
      <point x="341" y="751" type="curve"/>
      <point x="405" y="751" type="line"/>
      <point x="401" y="675"/>
      <point x="341" y="619"/>
    </contour>
  </outline>
</glyph>
<glyph name="Aogonek" format="2">
  <advance width="674"/>
  <unicode hex="0104"/>
  <outline>
    <contour>
      <point x="585" y="-182" type="curve" smooth="yes"/>
      <point x="523" y="-182"/>
      <point x="481" y="-152"/>
      <point x="481" y="-102" type="curve" smooth="yes"/>
      <point x="481" y="-61"/>
      <point x="513" y="-24"/>
      <point x="553" y="-3" type="curve"/>
      <point x="482" y="206" type="line"/>
      <point x="187" y="206" type="line"/>
      <point x="118" y="0" type="line"/>
      <point x="36" y="0" type="line"/>
      <point x="282" y="715" type="line"/>
      <point x="396" y="715" type="line"/>
      <point x="637" y="3" type="line"/>
      <point x="582" y="-29"/>
      <point x="560" y="-55"/>
      <point x="560" y="-86" type="curve" smooth="yes"/>
      <point x="560" y="-110"/>
      <point x="574" y="-122"/>
      <point x="598" y="-122" type="curve" smooth="yes"/>
      <point x="615" y="-122"/>
      <point x="635" y="-119"/>
      <point x="650" y="-111" type="curve"/>
      <point x="650" y="-170" type="line"/>
      <point x="633" y="-177"/>
      <point x="613" y="-182"/>
    </contour>
    <contour>
      <point x="335" y="643" type="line"/>
      <point x="211" y="275" type="line"/>
      <point x="459" y="275" type="line"/>
    </contour>
  </outline>
</glyph>
<glyph name="aogonek" format="2">
  <advance width="540"/>
  <unicode hex="0105"/>
  <outline>
    <contour>
      <point x="407" y="-182" type="curve" smooth="yes"/>
      <point x="345" y="-182"/>
      <point x="303" y="-152"/>
      <point x="303" y="-102" type="curve" smooth="yes"/>
      <point x="303" y="-60"/>
      <point x="336" y="-23"/>
      <point x="378" y="-1" type="curve"/>
      <point x="378" y="66" type="line"/>
      <point x="339" y="17"/>
      <point x="292" y="-9"/>
      <point x="215" y="-9" type="curve" smooth="yes"/>
      <point x="118" y="-9"/>
      <point x="41" y="38"/>
      <point x="41" y="145" type="curve" smooth="yes"/>
      <point x="41" y="266"/>
      <point x="169" y="307"/>
      <point x="303" y="307" type="curve" smooth="yes"/>
      <point x="378" y="307" type="line"/>
      <point x="378" y="345" type="line" smooth="yes"/>
      <point x="378" y="428"/>
      <point x="346" y="463"/>
      <point x="266" y="463" type="curve" smooth="yes"/>
      <point x="194" y="463"/>
      <point x="154" y="433"/>
      <point x="146" y="369" type="curve"/>
      <point x="63" y="369" type="line"/>
      <point x="74" y="488"/>
      <point x="169" y="532"/>
      <point x="270" y="532" type="curve" smooth="yes"/>
      <point x="370" y="532"/>
      <point x="461" y="491"/>
      <point x="461" y="345" type="curve" smooth="yes"/>
      <point x="461" y="4" type="line"/>
      <point x="407" y="-27"/>
      <point x="382" y="-55"/>
      <point x="382" y="-86" type="curve" smooth="yes"/>
      <point x="382" y="-110"/>
      <point x="396" y="-122"/>
      <point x="420" y="-122" type="curve" smooth="yes"/>
      <point x="437" y="-122"/>
      <point x="457" y="-119"/>
      <point x="472" y="-111" type="curve"/>
      <point x="472" y="-170" type="line"/>
      <point x="455" y="-177"/>
      <point x="435" y="-182"/>
    </contour>
    <contour>
      <point x="223" y="57" type="curve" smooth="yes"/>
      <point x="311" y="57"/>
      <point x="378" y="102"/>
      <point x="378" y="183" type="curve" smooth="yes"/>
      <point x="378" y="248" type="line"/>
      <point x="306" y="248" type="line" smooth="yes"/>
      <point x="201" y="248"/>
      <point x="124" y="222"/>
      <point x="124" y="145" type="curve" smooth="yes"/>
      <point x="124" y="91"/>
      <point x="150" y="57"/>
    </contour>
  </outline>
</glyph>
<glyph name="Cdotaccent" format="2">
  <advance width="730"/>
  <unicode hex="010A"/>
  <outline>
    <contour>
      <point x="389" y="-9" type="curve" smooth="yes"/>
      <point x="182" y="-9"/>
      <point x="55" y="133"/>
      <point x="55" y="353" type="curve" smooth="yes"/>
      <point x="55" y="361" type="line" smooth="yes"/>
      <point x="55" y="573"/>
      <point x="197" y="726"/>
      <point x="391" y="726" type="curve" smooth="yes"/>
      <point x="540" y="726"/>
      <point x="666" y="647"/>
      <point x="681" y="492" type="curve"/>
      <point x="595" y="492" type="line"/>
      <point x="577" y="601"/>
      <point x="514" y="657"/>
      <point x="392" y="657" type="curve" smooth="yes"/>
      <point x="244" y="657"/>
      <point x="145" y="542"/>
      <point x="145" y="362" type="curve" smooth="yes"/>
      <point x="145" y="354" type="line" smooth="yes"/>
      <point x="145" y="172"/>
      <point x="237" y="62"/>
      <point x="391" y="62" type="curve" smooth="yes"/>
      <point x="508" y="62"/>
      <point x="589" y="121"/>
      <point x="607" y="237" type="curve"/>
      <point x="688" y="237" type="line"/>
      <point x="663" y="72"/>
      <point x="549" y="-9"/>
    </contour>
    <contour>
      <point x="389" y="787" type="curve" smooth="yes"/>
      <point x="359" y="787"/>
      <point x="334" y="812"/>
      <point x="334" y="842" type="curve" smooth="yes"/>
      <point x="334" y="872"/>
      <point x="359" y="897"/>
      <point x="389" y="897" type="curve" smooth="yes"/>
      <point x="419" y="897"/>
      <point x="444" y="872"/>
      <point x="444" y="842" type="curve" smooth="yes"/>
      <point x="444" y="812"/>
      <point x="419" y="787"/>
    </contour>
  </outline>
</glyph>
<glyph name="Dcaron" format="2">
  <advance width="696"/>
  <unicode hex="010E"/>
  <outline>
    <contour>
      <point x="177" y="71" type="line"/>
      <point x="275" y="71" type="line" smooth="yes"/>
      <point x="459" y="71"/>
      <point x="551" y="181"/>
      <point x="551" y="356" type="curve" smooth="yes"/>
      <point x="551" y="364" type="line" smooth="yes"/>
      <point x="551" y="529"/>
      <point x="471" y="645"/>
      <point x="274" y="645" type="curve" smooth="yes"/>
      <point x="177" y="645" type="line"/>
    </contour>
    <contour>
      <point x="90" y="0" type="line"/>
      <point x="90" y="715" type="line"/>
      <point x="279" y="715" type="line" smooth="yes"/>
      <point x="525" y="715"/>
      <point x="641" y="563"/>
      <point x="641" y="364" type="curve" smooth="yes"/>
      <point x="641" y="355" type="line" smooth="yes"/>
      <point x="641" y="157"/>
      <point x="527" y="0"/>
      <point x="277" y="0" type="curve" smooth="yes"/>
    </contour>
    <contour>
      <point x="278" y="771" type="line"/>
      <point x="171" y="898" type="line"/>
      <point x="232" y="898" type="line"/>
      <point x="317" y="840" type="line"/>
      <point x="402" y="898" type="line"/>
      <point x="461" y="898" type="line"/>
      <point x="353" y="771" type="line"/>
    </contour>
  </outline>
</glyph>
<glyph name="Dcroat" format="2">
  <advance width="716"/>
  <unicode hex="0110"/>
  <outline>
    <contour>
      <point x="34" y="325" type="line"/>
      <point x="34" y="392" type="line"/>
      <point x="110" y="392" type="line"/>
      <point x="110" y="715" type="line"/>
      <point x="299" y="715" type="line" smooth="yes"/>
      <point x="545" y="715"/>
      <point x="661" y="563"/>
      <point x="661" y="364" type="curve" smooth="yes"/>
      <point x="661" y="355" type="line" smooth="yes"/>
      <point x="661" y="157"/>
      <point x="547" y="0"/>
      <point x="297" y="0" type="curve" smooth="yes"/>
      <point x="110" y="0" type="line"/>
      <point x="110" y="325" type="line"/>
    </contour>
    <contour>
      <point x="197" y="71" type="line"/>
      <point x="295" y="71" type="line" smooth="yes"/>
      <point x="479" y="71"/>
      <point x="571" y="181"/>
      <point x="571" y="356" type="curve" smooth="yes"/>
      <point x="571" y="364" type="line" smooth="yes"/>
      <point x="571" y="529"/>
      <point x="491" y="645"/>
      <point x="294" y="645" type="curve" smooth="yes"/>
      <point x="197" y="645" type="line"/>
      <point x="197" y="392" type="line"/>
      <point x="404" y="392" type="line"/>
      <point x="404" y="325" type="line"/>
      <point x="197" y="325" type="line"/>
    </contour>
  </outline>
</glyph>
<glyph name="dcroat" format="2">
  <advance width="627"/>
  <unicode hex="0111"/>
  <outline>
    <contour>
      <point x="282" y="615" type="line"/>
      <point x="282" y="676" type="line"/>
      <point x="460" y="676" type="line"/>
      <point x="460" y="773" type="line"/>
      <point x="543" y="773" type="line"/>
      <point x="543" y="676" type="line"/>
      <point x="618" y="676" type="line"/>
      <point x="618" y="615" type="line"/>
      <point x="543" y="615" type="line"/>
      <point x="543" y="0" type="line"/>
      <point x="460" y="0" type="line"/>
      <point x="460" y="90" type="line"/>
      <point x="430" y="39"/>
      <point x="357" y="-9"/>
      <point x="281" y="-9" type="curve" smooth="yes"/>
      <point x="144" y="-9"/>
      <point x="45" y="88"/>
      <point x="45" y="251" type="curve" smooth="yes"/>
      <point x="45" y="259" type="line" smooth="yes"/>
      <point x="45" y="419"/>
      <point x="145" y="532"/>
      <point x="289" y="532" type="curve" smooth="yes"/>
      <point x="376" y="532"/>
      <point x="430" y="490"/>
      <point x="460" y="439" type="curve"/>
      <point x="460" y="615" type="line"/>
    </contour>
    <contour>
      <point x="290" y="60" type="curve" smooth="yes"/>
      <point x="387" y="60"/>
      <point x="463" y="124"/>
      <point x="463" y="258" type="curve" smooth="yes"/>
      <point x="463" y="266" type="line" smooth="yes"/>
      <point x="463" y="400"/>
      <point x="399" y="463"/>
      <point x="297" y="463" type="curve" smooth="yes"/>
      <point x="193" y="463"/>
      <point x="131" y="390"/>
      <point x="131" y="263" type="curve" smooth="yes"/>
      <point x="131" y="255" type="line" smooth="yes"/>
      <point x="131" y="123"/>
      <point x="202" y="60"/>
    </contour>
  </outline>
</glyph>
<glyph name="Emacron" format="2">
  <advance width="566"/>
  <unicode hex="0112"/>
  <outline>
    <contour>
      <point x="90" y="0" type="line"/>
      <point x="90" y="715" type="line"/>
      <point x="507" y="715" type="line"/>
      <point x="507" y="644" type="line"/>
      <point x="177" y="644" type="line"/>
      <point x="177" y="401" type="line"/>
      <point x="443" y="401" type="line"/>
      <point x="443" y="330" type="line"/>
      <point x="177" y="330" type="line"/>
      <point x="177" y="71" type="line"/>
      <point x="525" y="71" type="line"/>
      <point x="525" y="0" type="line"/>
    </contour>
    <contour>
      <point x="173" y="786" type="line"/>
      <point x="173" y="850" type="line"/>
      <point x="439" y="850" type="line"/>
      <point x="439" y="786" type="line"/>
    </contour>
  </outline>
</glyph>
<glyph name="Ebreve" format="2">
  <advance width="566"/>
  <unicode hex="0114"/>
  <outline>
    <contour>
      <point x="90" y="0" type="line"/>
      <point x="90" y="715" type="line"/>
      <point x="507" y="715" type="line"/>
      <point x="507" y="644" type="line"/>
      <point x="177" y="644" type="line"/>
      <point x="177" y="401" type="line"/>
      <point x="443" y="401" type="line"/>
      <point x="443" y="330" type="line"/>
      <point x="177" y="330" type="line"/>
      <point x="177" y="71" type="line"/>
      <point x="525" y="71" type="line"/>
      <point x="525" y="0" type="line"/>
    </contour>
    <contour>
      <point x="311" y="767" type="curve" smooth="yes"/>
      <point x="239" y="767"/>
      <point x="183" y="823"/>
      <point x="179" y="899" type="curve"/>
      <point x="245" y="899" type="line"/>
      <point x="252" y="860"/>
      <point x="271" y="835"/>
      <point x="311" y="835" type="curve" smooth="yes"/>
      <point x="353" y="835"/>
      <point x="375" y="859"/>
      <point x="383" y="899" type="curve"/>
      <point x="447" y="899" type="line"/>
      <point x="443" y="823"/>
      <point x="383" y="767"/>
    </contour>
  </outline>
</glyph>
<glyph name="ebreve" format="2">
  <advance width="568"/>
  <unicode hex="0115"/>
  <outline>
    <contour>
      <point x="298" y="-9" type="curve" smooth="yes"/>
      <point x="150" y="-9"/>
      <point x="45" y="95"/>
      <point x="45" y="256" type="curve" smooth="yes"/>
      <point x="45" y="264" type="line" smooth="yes"/>
      <point x="45" y="422"/>
      <point x="146" y="532"/>
      <point x="290" y="532" type="curve" smooth="yes"/>
      <point x="411" y="532"/>
      <point x="525" y="459"/>
      <point x="525" y="272" type="curve" smooth="yes"/>
      <point x="525" y="245" type="line"/>
      <point x="131" y="245" type="line"/>
      <point x="135" y="126"/>
      <point x="192" y="60"/>
      <point x="299" y="60" type="curve" smooth="yes"/>
      <point x="380" y="60"/>
      <point x="427" y="90"/>
      <point x="438" y="151" type="curve"/>
      <point x="521" y="151" type="line"/>
      <point x="503" y="46"/>
      <point x="416" y="-9"/>
    </contour>
    <contour>
      <point x="134" y="312" type="curve"/>
      <point x="440" y="312" type="line"/>
      <point x="432" y="420"/>
      <point x="376" y="463"/>
      <point x="290" y="463" type="curve" smooth="yes"/>
      <point x="205" y="463"/>
      <point x="148" y="405"/>
    </contour>
    <contour>
      <point x="280" y="619" type="curve" smooth="yes"/>
      <point x="208" y="619"/>
      <point x="152" y="675"/>
      <point x="148" y="751" type="curve"/>
      <point x="214" y="751" type="line"/>
      <point x="221" y="712"/>
      <point x="240" y="687"/>
      <point x="280" y="687" type="curve" smooth="yes"/>
      <point x="322" y="687"/>
      <point x="344" y="711"/>
      <point x="352" y="751" type="curve"/>
      <point x="416" y="751" type="line"/>
      <point x="412" y="675"/>
      <point x="352" y="619"/>
    </contour>
  </outline>
</glyph>
<glyph name="Edotaccent" format="2">
  <advance width="566"/>
  <unicode hex="0116"/>
  <outline>
    <contour>
      <point x="90" y="0" type="line"/>
      <point x="90" y="715" type="line"/>
      <point x="507" y="715" type="line"/>
      <point x="507" y="644" type="line"/>
      <point x="177" y="644" type="line"/>
      <point x="177" y="401" type="line"/>
      <point x="443" y="401" type="line"/>
      <point x="443" y="330" type="line"/>
      <point x="177" y="330" type="line"/>
      <point x="177" y="71" type="line"/>
      <point x="525" y="71" type="line"/>
      <point x="525" y="0" type="line"/>
    </contour>
    <contour>
      <point x="306" y="787" type="curve" smooth="yes"/>
      <point x="276" y="787"/>
      <point x="251" y="812"/>
      <point x="251" y="842" type="curve" smooth="yes"/>
      <point x="251" y="872"/>
      <point x="276" y="897"/>
      <point x="306" y="897" type="curve" smooth="yes"/>
      <point x="336" y="897"/>
      <point x="361" y="872"/>
      <point x="361" y="842" type="curve" smooth="yes"/>
      <point x="361" y="812"/>
      <point x="336" y="787"/>
    </contour>
  </outline>
</glyph>
<glyph name="Eogonek" format="2">
  <advance width="566"/>
  <unicode hex="0118"/>
  <outline>
    <contour>
      <point x="454" y="-182" type="curve" smooth="yes"/>
      <point x="392" y="-182"/>
      <point x="350" y="-152"/>
      <point x="350" y="-102" type="curve" smooth="yes"/>
      <point x="350" y="-59"/>
      <point x="385" y="-21"/>
      <point x="428" y="0" type="curve"/>
      <point x="90" y="0" type="line"/>
      <point x="90" y="715" type="line"/>
      <point x="507" y="715" type="line"/>
      <point x="507" y="644" type="line"/>
      <point x="177" y="644" type="line"/>
      <point x="177" y="401" type="line"/>
      <point x="443" y="401" type="line"/>
      <point x="443" y="330" type="line"/>
      <point x="177" y="330" type="line"/>
      <point x="177" y="71" type="line"/>
      <point x="525" y="71" type="line"/>
      <point x="525" y="0" type="line"/>
      <point x="497" y="0" type="line"/>
      <point x="452" y="-30"/>
      <point x="429" y="-55"/>
      <point x="429" y="-86" type="curve" smooth="yes"/>
      <point x="429" y="-110"/>
      <point x="443" y="-122"/>
      <point x="467" y="-122" type="curve" smooth="yes"/>
      <point x="484" y="-122"/>
      <point x="504" y="-119"/>
      <point x="519" y="-111" type="curve"/>
      <point x="519" y="-170" type="line"/>
      <point x="502" y="-177"/>
      <point x="482" y="-182"/>
    </contour>
  </outline>
</glyph>
<glyph name="eogonek" format="2">
  <advance width="568"/>
  <unicode hex="0119"/>
  <outline>
    <contour>
      <point x="388" y="-182" type="curve" smooth="yes"/>
      <point x="326" y="-182"/>
      <point x="284" y="-152"/>
      <point x="284" y="-102" type="curve" smooth="yes"/>
      <point x="284" y="-62"/>
      <point x="314" y="-26"/>
      <point x="353" y="-5" type="curve"/>
      <point x="335" y="-8"/>
      <point x="317" y="-9"/>
      <point x="298" y="-9" type="curve" smooth="yes"/>
      <point x="150" y="-9"/>
      <point x="45" y="95"/>
      <point x="45" y="256" type="curve" smooth="yes"/>
      <point x="45" y="264" type="line" smooth="yes"/>
      <point x="45" y="422"/>
      <point x="146" y="532"/>
      <point x="290" y="532" type="curve" smooth="yes"/>
      <point x="411" y="532"/>
      <point x="525" y="459"/>
      <point x="525" y="272" type="curve" smooth="yes"/>
      <point x="525" y="245" type="line"/>
      <point x="131" y="245" type="line"/>
      <point x="135" y="126"/>
      <point x="192" y="60"/>
      <point x="299" y="60" type="curve" smooth="yes"/>
      <point x="380" y="60"/>
      <point x="427" y="90"/>
      <point x="438" y="151" type="curve"/>
      <point x="521" y="151" type="line"/>
      <point x="507" y="70"/>
      <point x="456" y="33"/>
      <point x="430" y="11" type="curve" smooth="yes"/>
      <point x="391" y="-22"/>
      <point x="363" y="-55"/>
      <point x="363" y="-86" type="curve" smooth="yes"/>
      <point x="363" y="-110"/>
      <point x="377" y="-122"/>
      <point x="401" y="-122" type="curve" smooth="yes"/>
      <point x="418" y="-122"/>
      <point x="438" y="-119"/>
      <point x="453" y="-111" type="curve"/>
      <point x="453" y="-170" type="line"/>
      <point x="436" y="-177"/>
      <point x="416" y="-182"/>
    </contour>
    <contour>
      <point x="134" y="312" type="curve"/>
      <point x="440" y="312" type="line"/>
      <point x="432" y="420"/>
      <point x="376" y="463"/>
      <point x="290" y="463" type="curve" smooth="yes"/>
      <point x="205" y="463"/>
      <point x="148" y="405"/>
    </contour>
  </outline>
</glyph>
<glyph name="Ecaron" format="2">
  <advance width="566"/>
  <unicode hex="011A"/>
  <outline>
    <contour>
      <point x="90" y="0" type="line"/>
      <point x="90" y="715" type="line"/>
      <point x="507" y="715" type="line"/>
      <point x="507" y="644" type="line"/>
      <point x="177" y="644" type="line"/>
      <point x="177" y="401" type="line"/>
      <point x="443" y="401" type="line"/>
      <point x="443" y="330" type="line"/>
      <point x="177" y="330" type="line"/>
      <point x="177" y="71" type="line"/>
      <point x="525" y="71" type="line"/>
      <point x="525" y="0" type="line"/>
    </contour>
    <contour>
      <point x="272" y="771" type="line"/>
      <point x="165" y="898" type="line"/>
      <point x="226" y="898" type="line"/>
      <point x="311" y="840" type="line"/>
      <point x="396" y="898" type="line"/>
      <point x="455" y="898" type="line"/>
      <point x="347" y="771" type="line"/>
    </contour>
  </outline>
</glyph>
<glyph name="ecaron" format="2">
  <advance width="568"/>
  <unicode hex="011B"/>
  <outline>
    <contour>
      <point x="298" y="-9" type="curve" smooth="yes"/>
      <point x="150" y="-9"/>
      <point x="45" y="95"/>
      <point x="45" y="256" type="curve" smooth="yes"/>
      <point x="45" y="264" type="line" smooth="yes"/>
      <point x="45" y="422"/>
      <point x="146" y="532"/>
      <point x="290" y="532" type="curve" smooth="yes"/>
      <point x="411" y="532"/>
      <point x="525" y="459"/>
      <point x="525" y="272" type="curve" smooth="yes"/>
      <point x="525" y="245" type="line"/>
      <point x="131" y="245" type="line"/>
      <point x="135" y="126"/>
      <point x="192" y="60"/>
      <point x="299" y="60" type="curve" smooth="yes"/>
      <point x="380" y="60"/>
      <point x="427" y="90"/>
      <point x="438" y="151" type="curve"/>
      <point x="521" y="151" type="line"/>
      <point x="503" y="46"/>
      <point x="416" y="-9"/>
    </contour>
    <contour>
      <point x="134" y="312" type="curve"/>
      <point x="440" y="312" type="line"/>
      <point x="432" y="420"/>
      <point x="376" y="463"/>
      <point x="290" y="463" type="curve" smooth="yes"/>
      <point x="205" y="463"/>
      <point x="148" y="405"/>
    </contour>
    <contour>
      <point x="252" y="613" type="line"/>
      <point x="145" y="757" type="line"/>
      <point x="206" y="757" type="line"/>
      <point x="291" y="682" type="line"/>
      <point x="376" y="757" type="line"/>
      <point x="435" y="757" type="line"/>
      <point x="327" y="613" type="line"/>
    </contour>
  </outline>
</glyph>
<glyph name="Gbreve" format="2">
  <advance width="767"/>
  <unicode hex="011E"/>
  <outline>
    <contour>
      <point x="401" y="-9" type="curve" smooth="yes"/>
      <point x="181" y="-9"/>
      <point x="55" y="144"/>
      <point x="55" y="353" type="curve" smooth="yes"/>
      <point x="55" y="361" type="line" smooth="yes"/>
      <point x="55" y="570"/>
      <point x="196" y="726"/>
      <point x="401" y="726" type="curve" smooth="yes"/>
      <point x="543" y="726"/>
      <point x="670" y="660"/>
      <point x="692" y="499" type="curve"/>
      <point x="605" y="499" type="line"/>
      <point x="585" y="613"/>
      <point x="507" y="657"/>
      <point x="403" y="657" type="curve" smooth="yes"/>
      <point x="239" y="657"/>
      <point x="145" y="537"/>
      <point x="145" y="362" type="curve" smooth="yes"/>
      <point x="145" y="354" type="line" smooth="yes"/>
      <point x="145" y="177"/>
      <point x="233" y="61"/>
      <point x="401" y="61" type="curve" smooth="yes"/>
      <point x="556" y="61"/>
      <point x="623" y="162"/>
      <point x="626" y="289" type="curve"/>
      <point x="417" y="289" type="line"/>
      <point x="417" y="361" type="line"/>
      <point x="711" y="361" type="line"/>
      <point x="711" y="308" type="line" smooth="yes"/>
      <point x="711" y="101"/>
      <point x="584" y="-9"/>
    </contour>
    <contour>
      <point x="393" y="767" type="curve" smooth="yes"/>
      <point x="321" y="767"/>
      <point x="265" y="823"/>
      <point x="261" y="899" type="curve"/>
      <point x="327" y="899" type="line"/>
      <point x="334" y="860"/>
      <point x="353" y="835"/>
      <point x="393" y="835" type="curve" smooth="yes"/>
      <point x="435" y="835"/>
      <point x="457" y="859"/>
      <point x="465" y="899" type="curve"/>
      <point x="529" y="899" type="line"/>
      <point x="525" y="823"/>
      <point x="465" y="767"/>
    </contour>
  </outline>
</glyph>
<glyph name="gbreve" format="2">
  <advance width="627"/>
  <unicode hex="011F"/>
  <outline>
    <contour>
      <point x="293" y="-191" type="curve" smooth="yes"/>
      <point x="138" y="-191"/>
      <point x="70" y="-118"/>
      <point x="56" y="-30" type="curve"/>
      <point x="141" y="-30" type="line"/>
      <point x="153" y="-90"/>
      <point x="203" y="-121"/>
      <point x="292" y="-121" type="curve" smooth="yes"/>
      <point x="395" y="-121"/>
      <point x="460" y="-72"/>
      <point x="460" y="40" type="curve" smooth="yes"/>
      <point x="460" y="116" type="line"/>
      <point x="430" y="65"/>
      <point x="359" y="17"/>
      <point x="283" y="17" type="curve" smooth="yes"/>
      <point x="146" y="17"/>
      <point x="45" y="121"/>
      <point x="45" y="265" type="curve" smooth="yes"/>
      <point x="45" y="272" type="line" smooth="yes"/>
      <point x="45" y="414"/>
      <point x="145" y="532"/>
      <point x="289" y="532" type="curve" smooth="yes"/>
      <point x="376" y="532"/>
      <point x="430" y="490"/>
      <point x="460" y="439" type="curve"/>
      <point x="460" y="523" type="line"/>
      <point x="543" y="523" type="line"/>
      <point x="543" y="35" type="line" smooth="yes"/>
      <point x="542" y="-117"/>
      <point x="439" y="-191"/>
    </contour>
    <contour>
      <point x="292" y="86" type="curve" smooth="yes"/>
      <point x="389" y="86"/>
      <point x="463" y="154"/>
      <point x="463" y="271" type="curve" smooth="yes"/>
      <point x="463" y="278" type="line" smooth="yes"/>
      <point x="463" y="395"/>
      <point x="399" y="463"/>
      <point x="297" y="463" type="curve" smooth="yes"/>
      <point x="193" y="463"/>
      <point x="131" y="386"/>
      <point x="131" y="276" type="curve" smooth="yes"/>
      <point x="131" y="268" type="line" smooth="yes"/>
      <point x="131" y="154"/>
      <point x="204" y="86"/>
    </contour>
    <contour>
      <point x="292" y="619" type="curve" smooth="yes"/>
      <point x="220" y="619"/>
      <point x="164" y="675"/>
      <point x="160" y="751" type="curve"/>
      <point x="226" y="751" type="line"/>
      <point x="233" y="712"/>
      <point x="252" y="687"/>
      <point x="292" y="687" type="curve" smooth="yes"/>
      <point x="334" y="687"/>
      <point x="356" y="711"/>
      <point x="364" y="751" type="curve"/>
      <point x="428" y="751" type="line"/>
      <point x="424" y="675"/>
      <point x="364" y="619"/>
    </contour>
  </outline>
</glyph>
<glyph name="Gdotaccent" format="2">
  <advance width="767"/>
  <unicode hex="0120"/>
  <outline>
    <contour>
      <point x="401" y="-9" type="curve" smooth="yes"/>
      <point x="181" y="-9"/>
      <point x="55" y="144"/>
      <point x="55" y="353" type="curve" smooth="yes"/>
      <point x="55" y="361" type="line" smooth="yes"/>
      <point x="55" y="570"/>
      <point x="196" y="726"/>
      <point x="401" y="726" type="curve" smooth="yes"/>
      <point x="543" y="726"/>
      <point x="670" y="660"/>
      <point x="692" y="499" type="curve"/>
      <point x="605" y="499" type="line"/>
      <point x="585" y="613"/>
      <point x="507" y="657"/>
      <point x="403" y="657" type="curve" smooth="yes"/>
      <point x="239" y="657"/>
      <point x="145" y="537"/>
      <point x="145" y="362" type="curve" smooth="yes"/>
      <point x="145" y="354" type="line" smooth="yes"/>
      <point x="145" y="177"/>
      <point x="233" y="61"/>
      <point x="401" y="61" type="curve" smooth="yes"/>
      <point x="556" y="61"/>
      <point x="623" y="162"/>
      <point x="626" y="289" type="curve"/>
      <point x="417" y="289" type="line"/>
      <point x="417" y="361" type="line"/>
      <point x="711" y="361" type="line"/>
      <point x="711" y="308" type="line" smooth="yes"/>
      <point x="711" y="101"/>
      <point x="584" y="-9"/>
    </contour>
    <contour>
      <point x="395" y="787" type="curve" smooth="yes"/>
      <point x="365" y="787"/>
      <point x="340" y="812"/>
      <point x="340" y="842" type="curve" smooth="yes"/>
      <point x="340" y="872"/>
      <point x="365" y="897"/>
      <point x="395" y="897" type="curve" smooth="yes"/>
      <point x="425" y="897"/>
      <point x="450" y="872"/>
      <point x="450" y="842" type="curve" smooth="yes"/>
      <point x="450" y="812"/>
      <point x="425" y="787"/>
    </contour>
  </outline>
</glyph>
<glyph name="gdotaccent" format="2">
  <advance width="627"/>
  <unicode hex="0121"/>
  <outline>
    <contour>
      <point x="293" y="-191" type="curve" smooth="yes"/>
      <point x="138" y="-191"/>
      <point x="70" y="-118"/>
      <point x="56" y="-30" type="curve"/>
      <point x="141" y="-30" type="line"/>
      <point x="153" y="-90"/>
      <point x="203" y="-121"/>
      <point x="292" y="-121" type="curve" smooth="yes"/>
      <point x="395" y="-121"/>
      <point x="460" y="-72"/>
      <point x="460" y="40" type="curve" smooth="yes"/>
      <point x="460" y="116" type="line"/>
      <point x="430" y="65"/>
      <point x="359" y="17"/>
      <point x="283" y="17" type="curve" smooth="yes"/>
      <point x="146" y="17"/>
      <point x="45" y="121"/>
      <point x="45" y="265" type="curve" smooth="yes"/>
      <point x="45" y="272" type="line" smooth="yes"/>
      <point x="45" y="414"/>
      <point x="145" y="532"/>
      <point x="289" y="532" type="curve" smooth="yes"/>
      <point x="376" y="532"/>
      <point x="430" y="490"/>
      <point x="460" y="439" type="curve"/>
      <point x="460" y="523" type="line"/>
      <point x="543" y="523" type="line"/>
      <point x="543" y="35" type="line" smooth="yes"/>
      <point x="542" y="-117"/>
      <point x="439" y="-191"/>
    </contour>
    <contour>
      <point x="292" y="86" type="curve" smooth="yes"/>
      <point x="389" y="86"/>
      <point x="463" y="154"/>
      <point x="463" y="271" type="curve" smooth="yes"/>
      <point x="463" y="278" type="line" smooth="yes"/>
      <point x="463" y="395"/>
      <point x="399" y="463"/>
      <point x="297" y="463" type="curve" smooth="yes"/>
      <point x="193" y="463"/>
      <point x="131" y="386"/>
      <point x="131" y="276" type="curve" smooth="yes"/>
      <point x="131" y="268" type="line" smooth="yes"/>
      <point x="131" y="154"/>
      <point x="204" y="86"/>
    </contour>
    <contour>
      <point x="294" y="632" type="curve" smooth="yes"/>
      <point x="264" y="632"/>
      <point x="239" y="657"/>
      <point x="239" y="687" type="curve" smooth="yes"/>
      <point x="239" y="717"/>
      <point x="264" y="742"/>
      <point x="294" y="742" type="curve" smooth="yes"/>
      <point x="324" y="742"/>
      <point x="349" y="717"/>
      <point x="349" y="687" type="curve" smooth="yes"/>
      <point x="349" y="657"/>
      <point x="324" y="632"/>
    </contour>
  </outline>
</glyph>
<glyph name="Hcircumflex" format="2">
  <advance width="730"/>
  <unicode hex="0124"/>
  <outline>
    <contour>
      <point x="90" y="0" type="line"/>
      <point x="90" y="715" type="line"/>
      <point x="177" y="715" type="line"/>
      <point x="177" y="391" type="line"/>
      <point x="553" y="391" type="line"/>
      <point x="553" y="715" type="line"/>
      <point x="640" y="715" type="line"/>
      <point x="640" y="0" type="line"/>
      <point x="553" y="0" type="line"/>
      <point x="553" y="318" type="line"/>
      <point x="177" y="318" type="line"/>
      <point x="177" y="0" type="line"/>
    </contour>
    <contour>
      <point x="220" y="771" type="line"/>
      <point x="328" y="898" type="line"/>
      <point x="403" y="898" type="line"/>
      <point x="510" y="771" type="line"/>
      <point x="449" y="771" type="line"/>
      <point x="364" y="829" type="line"/>
      <point x="279" y="771" type="line"/>
    </contour>
  </outline>
</glyph>
<glyph name="hcircumflex" format="2">
  <advance width="598"/>
  <unicode hex="0125"/>
  <outline>
    <contour>
      <point x="84" y="0" type="line"/>
      <point x="84" y="773" type="line"/>
      <point x="167" y="773" type="line"/>
      <point x="167" y="440" type="line"/>
      <point x="191" y="489"/>
      <point x="249" y="532"/>
      <point x="335" y="532" type="curve" smooth="yes"/>
      <point x="443" y="532"/>
      <point x="519" y="473"/>
      <point x="519" y="321" type="curve" smooth="yes"/>
      <point x="519" y="0" type="line"/>
      <point x="436" y="0" type="line"/>
      <point x="436" y="327" type="line" smooth="yes"/>
      <point x="436" y="419"/>
      <point x="397" y="460"/>
      <point x="313" y="460" type="curve" smooth="yes"/>
      <point x="236" y="460"/>
      <point x="167" y="411"/>
      <point x="167" y="317" type="curve" smooth="yes"/>
      <point x="167" y="0" type="line"/>
    </contour>
    <contour>
      <point x="168" y="821" type="line"/>
      <point x="276" y="948" type="line"/>
      <point x="351" y="948" type="line"/>
      <point x="458" y="821" type="line"/>
      <point x="397" y="821" type="line"/>
      <point x="312" y="879" type="line"/>
      <point x="227" y="821" type="line"/>
    </contour>
  </outline>
</glyph>
<glyph name="Hbar" format="2">
  <advance width="730"/>
  <unicode hex="0126"/>
  <outline>
    <contour>
      <point x="20" y="493" type="line"/>
      <point x="20" y="560" type="line"/>
      <point x="90" y="560" type="line"/>
      <point x="90" y="715" type="line"/>
      <point x="177" y="715" type="line"/>
      <point x="177" y="560" type="line"/>
      <point x="553" y="560" type="line"/>
      <point x="553" y="715" type="line"/>
      <point x="640" y="715" type="line"/>
      <point x="640" y="560" type="line"/>
      <point x="710" y="560" type="line"/>
      <point x="710" y="493" type="line"/>
      <point x="640" y="493" type="line"/>
      <point x="640" y="0" type="line"/>
      <point x="553" y="0" type="line"/>
      <point x="553" y="318" type="line"/>
      <point x="177" y="318" type="line"/>
      <point x="177" y="0" type="line"/>
      <point x="90" y="0" type="line"/>
      <point x="90" y="493" type="line"/>
    </contour>
    <contour>
      <point x="177" y="391" type="line"/>
      <point x="553" y="391" type="line"/>
      <point x="553" y="493" type="line"/>
      <point x="177" y="493" type="line"/>
    </contour>
  </outline>
</glyph>
<glyph name="hbar" format="2">
  <advance width="598"/>
  <unicode hex="0127"/>
  <outline>
    <contour>
      <point x="9" y="615" type="line"/>
      <point x="9" y="676" type="line"/>
      <point x="84" y="676" type="line"/>
      <point x="84" y="773" type="line"/>
      <point x="167" y="773" type="line"/>
      <point x="167" y="676" type="line"/>
      <point x="345" y="676" type="line"/>
      <point x="345" y="615" type="line"/>
      <point x="167" y="615" type="line"/>
      <point x="167" y="440" type="line"/>
      <point x="191" y="489"/>
      <point x="249" y="532"/>
      <point x="335" y="532" type="curve" smooth="yes"/>
      <point x="443" y="532"/>
      <point x="519" y="473"/>
      <point x="519" y="321" type="curve" smooth="yes"/>
      <point x="519" y="0" type="line"/>
      <point x="436" y="0" type="line"/>
      <point x="436" y="327" type="line" smooth="yes"/>
      <point x="436" y="419"/>
      <point x="397" y="460"/>
      <point x="313" y="460" type="curve" smooth="yes"/>
      <point x="236" y="460"/>
      <point x="167" y="411"/>
      <point x="167" y="317" type="curve" smooth="yes"/>
      <point x="167" y="0" type="line"/>
      <point x="84" y="0" type="line"/>
      <point x="84" y="615" type="line"/>
    </contour>
  </outline>
</glyph>
<glyph name="Itilde" format="2">
  <advance width="277"/>
  <unicode hex="0128"/>
  <outline>
    <contour>
      <point x="95" y="0" type="line"/>
      <point x="95" y="715" type="line"/>
      <point x="182" y="715" type="line"/>
      <point x="182" y="0" type="line"/>
    </contour>
    <contour>
      <point x="194" y="774" type="curve" smooth="yes"/>
      <point x="151" y="774"/>
      <point x="115" y="817"/>
      <point x="86" y="817" type="curve" smooth="yes"/>
      <point x="67" y="817"/>
      <point x="51" y="798"/>
      <point x="46" y="772" type="curve"/>
      <point x="-14" y="772" type="line"/>
      <point x="-6" y="843"/>
      <point x="35" y="888"/>
      <point x="87" y="888" type="curve" smooth="yes"/>
      <point x="129" y="888"/>
      <point x="165" y="845"/>
      <point x="194" y="845" type="curve" smooth="yes"/>
      <point x="213" y="845"/>
      <point x="229" y="864"/>
      <point x="234" y="890" type="curve"/>
      <point x="294" y="890" type="line"/>
      <point x="286" y="819"/>
      <point x="245" y="774"/>
    </contour>
  </outline>
</glyph>
<glyph name="itilde" format="2">
  <advance width="255"/>
  <unicode hex="0129"/>
  <outline>
    <contour>
      <point x="86" y="0" type="line"/>
      <point x="86" y="523" type="line"/>
      <point x="169" y="523" type="line"/>
      <point x="169" y="0" type="line"/>
    </contour>
    <contour>
      <point x="182" y="619" type="curve" smooth="yes"/>
      <point x="139" y="619"/>
      <point x="103" y="662"/>
      <point x="74" y="662" type="curve" smooth="yes"/>
      <point x="55" y="662"/>
      <point x="39" y="643"/>
      <point x="34" y="617" type="curve"/>
      <point x="-26" y="617" type="line"/>
      <point x="-18" y="688"/>
      <point x="23" y="733"/>
      <point x="75" y="733" type="curve" smooth="yes"/>
      <point x="117" y="733"/>
      <point x="153" y="690"/>
      <point x="182" y="690" type="curve" smooth="yes"/>
      <point x="201" y="690"/>
      <point x="217" y="709"/>
      <point x="222" y="735" type="curve"/>
      <point x="282" y="735" type="line"/>
      <point x="274" y="664"/>
      <point x="233" y="619"/>
    </contour>
  </outline>
</glyph>
<glyph name="Imacron" format="2">
  <advance width="277"/>
  <unicode hex="012A"/>
  <outline>
    <contour>
      <point x="95" y="0" type="line"/>
      <point x="95" y="715" type="line"/>
      <point x="182" y="715" type="line"/>
      <point x="182" y="0" type="line"/>
    </contour>
    <contour>
      <point x="5" y="786" type="line"/>
      <point x="5" y="850" type="line"/>
      <point x="271" y="850" type="line"/>
      <point x="271" y="786" type="line"/>
    </contour>
  </outline>
</glyph>
<glyph name="imacron" format="2">
  <advance width="255"/>
  <unicode hex="012B"/>
  <outline>
    <contour>
      <point x="30" y="648" type="line"/>
      <point x="30" y="712" type="line"/>
      <point x="224" y="712" type="line"/>
      <point x="224" y="648" type="line"/>
    </contour>
    <contour>
      <point x="86" y="0" type="line"/>
      <point x="86" y="523" type="line"/>
      <point x="169" y="523" type="line"/>
      <point x="169" y="0" type="line"/>
    </contour>
  </outline>
</glyph>
<glyph name="Ibreve" format="2">
  <advance width="277"/>
  <unicode hex="012C"/>
  <outline>
    <contour>
      <point x="95" y="0" type="line"/>
      <point x="95" y="715" type="line"/>
      <point x="182" y="715" type="line"/>
      <point x="182" y="0" type="line"/>
    </contour>
    <contour>
      <point x="138" y="767" type="curve" smooth="yes"/>
      <point x="66" y="767"/>
      <point x="10" y="823"/>
      <point x="6" y="899" type="curve"/>
      <point x="72" y="899" type="line"/>
      <point x="79" y="860"/>
      <point x="98" y="835"/>
      <point x="138" y="835" type="curve" smooth="yes"/>
      <point x="180" y="835"/>
      <point x="202" y="859"/>
      <point x="210" y="899" type="curve"/>
      <point x="274" y="899" type="line"/>
      <point x="270" y="823"/>
      <point x="210" y="767"/>
    </contour>
  </outline>
</glyph>
<glyph name="ibreve" format="2">
  <advance width="255"/>
  <unicode hex="012D"/>
  <outline>
    <contour>
      <point x="86" y="0" type="line"/>
      <point x="86" y="523" type="line"/>
      <point x="169" y="523" type="line"/>
      <point x="169" y="0" type="line"/>
    </contour>
    <contour>
      <point x="126" y="619" type="curve" smooth="yes"/>
      <point x="54" y="619"/>
      <point x="-2" y="675"/>
      <point x="-6" y="751" type="curve"/>
      <point x="60" y="751" type="line"/>
      <point x="67" y="712"/>
      <point x="86" y="687"/>
      <point x="126" y="687" type="curve" smooth="yes"/>
      <point x="168" y="687"/>
      <point x="190" y="711"/>
      <point x="198" y="751" type="curve"/>
      <point x="262" y="751" type="line"/>
      <point x="258" y="675"/>
      <point x="198" y="619"/>
    </contour>
  </outline>
</glyph>
<glyph name="Iogonek" format="2">
  <advance width="277"/>
  <unicode hex="012E"/>
  <outline>
    <contour>
      <point x="130" y="-182" type="curve" smooth="yes"/>
      <point x="68" y="-182"/>
      <point x="26" y="-152"/>
      <point x="26" y="-102" type="curve" smooth="yes"/>
      <point x="26" y="-62"/>
      <point x="56" y="-26"/>
      <point x="95" y="-4" type="curve"/>
      <point x="95" y="715" type="line"/>
      <point x="182" y="715" type="line"/>
      <point x="182" y="4" type="line"/>
      <point x="128" y="-27"/>
      <point x="105" y="-55"/>
      <point x="105" y="-86" type="curve" smooth="yes"/>
      <point x="105" y="-110"/>
      <point x="119" y="-122"/>
      <point x="143" y="-122" type="curve" smooth="yes"/>
      <point x="160" y="-122"/>
      <point x="180" y="-119"/>
      <point x="195" y="-111" type="curve"/>
      <point x="195" y="-170" type="line"/>
      <point x="178" y="-177"/>
      <point x="158" y="-182"/>
    </contour>
  </outline>
</glyph>
<glyph name="iogonek" format="2">
  <advance width="255"/>
  <unicode hex="012F"/>
  <outline>
    <contour>
      <point x="120" y="-182" type="curve" smooth="yes"/>
      <point x="58" y="-182"/>
      <point x="16" y="-152"/>
      <point x="16" y="-102" type="curve" smooth="yes"/>
      <point x="16" y="-61"/>
      <point x="46" y="-25"/>
      <point x="86" y="-4" type="curve"/>
      <point x="86" y="523" type="line"/>
      <point x="169" y="523" type="line"/>
      <point x="169" y="3" type="line"/>
      <point x="118" y="-28"/>
      <point x="95" y="-55"/>
      <point x="95" y="-86" type="curve" smooth="yes"/>
      <point x="95" y="-110"/>
      <point x="109" y="-122"/>
      <point x="133" y="-122" type="curve" smooth="yes"/>
      <point x="150" y="-122"/>
      <point x="170" y="-119"/>
      <point x="185" y="-111" type="curve"/>
      <point x="185" y="-170" type="line"/>
      <point x="168" y="-177"/>
      <point x="148" y="-182"/>
    </contour>
    <contour>
      <point x="126" y="632" type="curve" smooth="yes"/>
      <point x="96" y="632"/>
      <point x="71" y="657"/>
      <point x="71" y="687" type="curve" smooth="yes"/>
      <point x="71" y="717"/>
      <point x="96" y="742"/>
      <point x="126" y="742" type="curve" smooth="yes"/>
      <point x="156" y="742"/>
      <point x="181" y="717"/>
      <point x="181" y="687" type="curve" smooth="yes"/>
      <point x="181" y="657"/>
      <point x="156" y="632"/>
    </contour>
  </outline>
</glyph>
<glyph name="Idotaccent" format="2">
  <advance width="277"/>
  <unicode hex="0130"/>
  <outline>
    <contour>
      <point x="95" y="0" type="line"/>
      <point x="95" y="715" type="line"/>
      <point x="182" y="715" type="line"/>
      <point x="182" y="0" type="line"/>
    </contour>
    <contour>
      <point x="138" y="787" type="curve" smooth="yes"/>
      <point x="108" y="787"/>
      <point x="83" y="812"/>
      <point x="83" y="842" type="curve" smooth="yes"/>
      <point x="83" y="872"/>
      <point x="108" y="897"/>
      <point x="138" y="897" type="curve" smooth="yes"/>
      <point x="168" y="897"/>
      <point x="193" y="872"/>
      <point x="193" y="842" type="curve" smooth="yes"/>
      <point x="193" y="812"/>
      <point x="168" y="787"/>
    </contour>
  </outline>
</glyph>
<glyph name="IJ" format="2">
  <advance width="657"/>
  <unicode hex="0132"/>
  <outline>
    <contour>
      <point x="95" y="0" type="line"/>
      <point x="95" y="715" type="line"/>
      <point x="182" y="715" type="line"/>
      <point x="182" y="0" type="line"/>
    </contour>
    <contour>
      <point x="375" y="-9" type="curve" smooth="yes"/>
      <point x="321" y="-9"/>
      <point x="294" y="0"/>
      <point x="275" y="10" type="curve"/>
      <point x="275" y="82" type="line"/>
      <point x="301" y="71"/>
      <point x="327" y="62"/>
      <point x="370" y="62" type="curve" smooth="yes"/>
      <point x="441" y="62"/>
      <point x="486" y="102"/>
      <point x="486" y="198" type="curve" smooth="yes"/>
      <point x="486" y="715" type="line"/>
      <point x="573" y="715" type="line"/>
      <point x="573" y="194" type="line" smooth="yes"/>
      <point x="573" y="51"/>
      <point x="484" y="-9"/>
    </contour>
  </outline>
</glyph>
<glyph name="ij" format="2">
  <advance width="510"/>
  <unicode hex="0133"/>
  <outline>
    <contour>
      <point x="86" y="0" type="line"/>
      <point x="86" y="523" type="line"/>
      <point x="169" y="523" type="line"/>
      <point x="169" y="0" type="line"/>
    </contour>
    <contour>
      <point x="126" y="632" type="curve" smooth="yes"/>
      <point x="96" y="632"/>
      <point x="71" y="657"/>
      <point x="71" y="687" type="curve" smooth="yes"/>
      <point x="71" y="717"/>
      <point x="96" y="742"/>
      <point x="126" y="742" type="curve" smooth="yes"/>
      <point x="156" y="742"/>
      <point x="181" y="717"/>
      <point x="181" y="687" type="curve" smooth="yes"/>
      <point x="181" y="657"/>
      <point x="156" y="632"/>
    </contour>
    <contour>
      <point x="264" y="-191" type="curve"/>
      <point x="264" y="-121" type="line"/>
      <point x="323" y="-116"/>
      <point x="341" y="-86"/>
      <point x="341" y="-40" type="curve" smooth="yes"/>
      <point x="341" y="523" type="line"/>
      <point x="424" y="523" type="line"/>
      <point x="424" y="-33" type="line" smooth="yes"/>
      <point x="424" y="-133"/>
      <point x="380" y="-187"/>
    </contour>
    <contour>
      <point x="381" y="632" type="curve" smooth="yes"/>
      <point x="351" y="632"/>
      <point x="326" y="657"/>
      <point x="326" y="687" type="curve" smooth="yes"/>
      <point x="326" y="717"/>
      <point x="351" y="742"/>
      <point x="381" y="742" type="curve" smooth="yes"/>
      <point x="411" y="742"/>
      <point x="436" y="717"/>
      <point x="436" y="687" type="curve" smooth="yes"/>
      <point x="436" y="657"/>
      <point x="411" y="632"/>
    </contour>
  </outline>
</glyph>
<glyph name="jcircumflex" format="2">
  <advance width="255"/>
  <unicode hex="0135"/>
  <outline>
    <contour>
      <point x="9" y="-191" type="curve"/>
      <point x="9" y="-121" type="line"/>
      <point x="68" y="-116"/>
      <point x="86" y="-86"/>
      <point x="86" y="-40" type="curve" smooth="yes"/>
      <point x="86" y="523" type="line"/>
      <point x="169" y="523" type="line"/>
      <point x="169" y="-33" type="line" smooth="yes"/>
      <point x="169" y="-133"/>
      <point x="125" y="-187"/>
    </contour>
    <contour>
      <point x="-19" y="613" type="line"/>
      <point x="89" y="757" type="line"/>
      <point x="164" y="757" type="line"/>
      <point x="271" y="613" type="line"/>
      <point x="210" y="613" type="line"/>
      <point x="125" y="688" type="line"/>
      <point x="40" y="613" type="line"/>
    </contour>
  </outline>
</glyph>
<glyph name="Kcommaaccent" format="2">
  <advance width="616"/>
  <unicode hex="0136"/>
  <outline>
    <contour>
      <point x="90" y="0" type="line"/>
      <point x="90" y="715" type="line"/>
      <point x="177" y="715" type="line"/>
      <point x="177" y="371" type="line"/>
      <point x="488" y="716" type="line"/>
      <point x="585" y="716" type="line"/>
      <point x="267" y="368" type="line"/>
      <point x="601" y="0" type="line"/>
      <point x="496" y="0" type="line"/>
      <point x="177" y="349" type="line"/>
      <point x="177" y="0" type="line"/>
    </contour>
    <contour>
      <point x="289" y="-220" type="line"/>
      <point x="238" y="-194" type="line"/>
      <point x="296" y="-37" type="line"/>
      <point x="376" y="-61" type="line"/>
    </contour>
  </outline>
</glyph>
